# MagicaVoxel @ Ephtracy

# group
g aa

# material
mtllib aa.mtl
usemtl palette

# normals
vn -1 0 0
vn 1 0 0
vn 0 0 1
vn 0 0 -1
vn 0 -1 0
vn 0 1 0

# texcoords
vt 0.966797 0.5
vt 0.982422 0.5
vt 0.986328 0.5
vt 0.990234 0.5
vt 0.994141 0.5

# verts
v -3 1 2
v -3 1 1
v -3 1 -2
v -3 1 -3
v -3 2 2
v -3 2 1
v -3 2 -2
v -3 2 -3
v -2 0 1
v -2 0 -2
v -2 1 3
v -2 1 2
v -2 1 1
v -2 1 -2
v -2 1 -3
v -2 1 -4
v -2 2 3
v -2 2 2
v -2 2 -0
v -2 2 -1
v -2 2 -3
v -2 2 -4
v -2 3 -0
v -2 3 -1
v -1 0 2
v -1 0 1
v -1 0 -2
v -1 0 -3
v -1 1 2
v -1 1 1
v -1 1 -1
v -1 1 -2
v -1 1 -3
v -1 2 1
v -1 2 -0
v -1 2 -1
v -1 2 -2
v -1 3 1
v -1 3 -0
v -1 3 -1
v -1 3 -2
v -1 4 2
v -1 4 1
v -1 4 -0
v -1 4 -1
v -1 4 -2
v -1 4 -3
v -1 7 2
v -1 7 1
v -1 7 -2
v -1 7 -3
v 0 3 2
v 0 3 1
v 0 3 -0
v 0 3 -1
v 0 3 -2
v 0 3 -3
v 0 4 3
v 0 4 2
v 0 4 1
v 0 4 -0
v 0 4 -1
v 0 4 -2
v 0 4 -3
v 0 4 -4
v 0 5 1
v 0 5 -2
v 0 6 1
v 0 6 -0
v 0 6 -1
v 0 6 -2
v 0 7 3
v 0 7 2
v 0 7 1
v 0 7 -0
v 0 7 -1
v 0 7 -2
v 0 7 -3
v 0 7 -4
v 3 1 -0
v 3 1 -1
v 3 2 -0
v 3 2 -1
v -2 1 -1
v -2 1 -2
v -2 2 -1
v -2 2 -2
v 1 3 2
v 1 3 1
v 1 3 -0
v 1 3 -1
v 1 3 -2
v 1 3 -3
v 1 4 3
v 1 4 2
v 1 4 1
v 1 4 -0
v 1 4 -1
v 1 4 -2
v 1 4 -3
v 1 4 -4
v 1 5 1
v 1 5 -2
v 1 6 1
v 1 6 -0
v 1 6 -1
v 1 6 -2
v 1 7 3
v 1 7 2
v 1 7 1
v 1 7 -0
v 1 7 -1
v 1 7 -2
v 1 7 -3
v 1 7 -4
v 2 0 2
v 2 0 1
v 2 0 -2
v 2 0 -3
v 2 1 2
v 2 1 1
v 2 1 -0
v 2 1 -1
v 2 1 -2
v 2 1 -3
v 2 2 1
v 2 2 -0
v 2 2 -1
v 2 2 -2
v 2 3 1
v 2 3 -0
v 2 3 -1
v 2 3 -2
v 2 4 2
v 2 4 1
v 2 4 -0
v 2 4 -1
v 2 4 -2
v 2 4 -3
v 2 7 2
v 2 7 1
v 2 7 -2
v 2 7 -3
v 3 0 1
v 3 0 -2
v 3 1 3
v 3 1 2
v 3 1 1
v 3 1 -2
v 3 1 -3
v 3 1 -4
v 3 2 3
v 3 2 2
v 3 2 -0
v 3 2 -1
v 3 2 -3
v 3 2 -4
v 3 3 -0
v 3 3 -1
v 4 1 2
v 4 1 1
v 4 1 -2
v 4 1 -3
v 4 2 2
v 4 2 1
v 4 2 -2
v 4 2 -3
v -2 1 3
v -2 2 3
v -1 1 3
v -1 2 3
v 0 4 3
v 0 7 3
v 1 4 3
v 1 7 3
v 2 1 3
v 2 2 3
v 3 1 3
v 3 2 3
v -3 1 2
v -3 2 2
v -2 1 2
v -2 2 2
v -1 0 2
v -1 1 2
v -1 4 2
v -1 7 2
v 0 3 2
v 0 4 2
v 0 7 2
v 1 3 2
v 1 4 2
v 1 7 2
v 2 0 2
v 2 1 2
v 2 4 2
v 2 7 2
v 3 1 2
v 3 2 2
v 4 1 2
v 4 2 2
v -2 0 1
v -2 1 1
v -1 0 1
v -1 1 1
v -1 2 1
v -1 3 1
v 0 3 1
v 1 3 1
v 2 0 1
v 2 1 1
v 2 2 1
v 2 3 1
v 3 0 1
v 3 1 1
v -2 2 -0
v -2 3 -0
v -1 2 -0
v -1 3 -0
v -1 4 -0
v 0 3 -0
v 0 4 -0
v 1 3 -0
v 1 4 -0
v 2 2 -0
v 2 3 -0
v 2 4 -0
v 3 2 -0
v 3 3 -0
v 0 6 -1
v 0 7 -1
v 1 6 -1
v 1 7 -1
v 2 1 -1
v 2 2 -1
v 3 1 -1
v 3 2 -1
v -2 1 -2
v -2 2 -2
v -1 1 -2
v -1 2 -2
v -1 4 -2
v -1 7 -2
v 0 4 -2
v 0 5 -2
v 0 6 -2
v 0 7 -2
v 1 4 -2
v 1 5 -2
v 1 6 -2
v 1 7 -2
v 2 4 -2
v 2 7 -2
v -1 4 1
v -1 7 1
v 0 4 1
v 0 5 1
v 0 6 1
v 0 7 1
v 1 4 1
v 1 5 1
v 1 6 1
v 1 7 1
v 2 4 1
v 2 7 1
v 0 6 -0
v 0 7 -0
v 1 6 -0
v 1 7 -0
v 2 1 -0
v 2 2 -0
v 3 1 -0
v 3 2 -0
v -2 1 -1
v -2 2 -1
v -2 3 -1
v -1 1 -1
v -1 2 -1
v -1 3 -1
v -1 4 -1
v 0 3 -1
v 0 4 -1
v 1 3 -1
v 1 4 -1
v 2 2 -1
v 2 3 -1
v 2 4 -1
v 3 2 -1
v 3 3 -1
v -2 0 -2
v -2 1 -2
v -1 0 -2
v -1 1 -2
v -1 2 -2
v -1 3 -2
v 0 3 -2
v 1 3 -2
v 2 0 -2
v 2 1 -2
v 2 2 -2
v 2 3 -2
v 3 0 -2
v 3 1 -2
v -3 1 -3
v -3 2 -3
v -2 1 -3
v -2 2 -3
v -1 0 -3
v -1 1 -3
v -1 4 -3
v -1 7 -3
v 0 3 -3
v 0 4 -3
v 0 7 -3
v 1 3 -3
v 1 4 -3
v 1 7 -3
v 2 0 -3
v 2 1 -3
v 2 4 -3
v 2 7 -3
v 3 1 -3
v 3 2 -3
v 4 1 -3
v 4 2 -3
v -2 1 -4
v -2 2 -4
v -1 1 -4
v -1 2 -4
v 0 4 -4
v 0 7 -4
v 1 4 -4
v 1 7 -4
v 2 1 -4
v 2 2 -4
v 3 1 -4
v 3 2 -4
v -1 0 2
v 2 0 2
v -2 0 1
v -1 0 1
v 2 0 1
v 3 0 1
v -2 0 -2
v -1 0 -2
v 2 0 -2
v 3 0 -2
v -1 0 -3
v 2 0 -3
v -2 1 3
v -1 1 3
v 2 1 3
v 3 1 3
v -3 1 2
v -2 1 2
v -1 1 2
v 2 1 2
v 3 1 2
v 4 1 2
v -3 1 1
v -2 1 1
v -1 1 1
v 2 1 1
v 3 1 1
v 4 1 1
v -3 1 -2
v -2 1 -2
v -1 1 -2
v 2 1 -2
v 3 1 -2
v 4 1 -2
v -3 1 -3
v -2 1 -3
v -1 1 -3
v 2 1 -3
v 3 1 -3
v 4 1 -3
v -2 1 -4
v -1 1 -4
v 2 1 -4
v 3 1 -4
v 2 2 -0
v 3 2 -0
v 2 2 -1
v 3 2 -1
v 0 3 2
v 1 3 2
v 0 3 1
v 1 3 1
v 0 3 -2
v 1 3 -2
v 0 3 -3
v 1 3 -3
v 0 4 3
v 1 4 3
v -1 4 2
v 0 4 2
v 1 4 2
v 2 4 2
v -1 4 1
v 0 4 1
v 1 4 1
v 2 4 1
v -1 4 -2
v 0 4 -2
v 1 4 -2
v 2 4 -2
v -1 4 -3
v 0 4 -3
v 1 4 -3
v 2 4 -3
v 0 4 -4
v 1 4 -4
v 0 6 1
v 1 6 1
v 0 6 -0
v 1 6 -0
v 0 6 -1
v 1 6 -1
v 0 6 -2
v 1 6 -2
v 2 1 -0
v 3 1 -0
v -2 1 -1
v -1 1 -1
v 2 1 -1
v 3 1 -1
v -2 1 -2
v -1 1 -2
v -2 2 3
v -1 2 3
v 2 2 3
v 3 2 3
v -3 2 2
v -2 2 2
v -1 2 2
v 2 2 2
v 3 2 2
v 4 2 2
v -3 2 1
v -2 2 1
v -1 2 1
v 2 2 1
v 3 2 1
v 4 2 1
v -2 2 -0
v -1 2 -0
v 2 2 -0
v 3 2 -0
v -2 2 -1
v 2 2 -1
v 3 2 -1
v -3 2 -2
v -2 2 -2
v -1 2 -2
v 2 2 -2
v 3 2 -2
v 4 2 -2
v -3 2 -3
v -2 2 -3
v -1 2 -3
v 2 2 -3
v 3 2 -3
v 4 2 -3
v -2 2 -4
v -1 2 -4
v 2 2 -4
v 3 2 -4
v -1 3 1
v 0 3 1
v 1 3 1
v 2 3 1
v -2 3 -0
v -1 3 -0
v 0 3 -0
v 1 3 -0
v 2 3 -0
v 3 3 -0
v -2 3 -1
v -1 3 -1
v 0 3 -1
v 1 3 -1
v 2 3 -1
v 3 3 -1
v -1 3 -2
v 0 3 -2
v 1 3 -2
v 2 3 -2
v -1 4 -0
v 0 4 -0
v 1 4 -0
v 2 4 -0
v -1 4 -1
v 0 4 -1
v 1 4 -1
v 2 4 -1
v 0 5 1
v 1 5 1
v 0 5 -2
v 1 5 -2
v 0 7 3
v 1 7 3
v -1 7 2
v 0 7 2
v 1 7 2
v 2 7 2
v -1 7 1
v 0 7 1
v 1 7 1
v 2 7 1
v 0 7 -0
v 1 7 -0
v 0 7 -1
v 1 7 -1
v -1 7 -2
v 0 7 -2
v 1 7 -2
v 2 7 -2
v -1 7 -3
v 0 7 -3
v 1 7 -3
v 2 7 -3
v 0 7 -4
v 1 7 -4

# faces
f 5/1/1 2/1/1 1/1/1
f 6/3/1 3/3/1 2/3/1
f 6/1/1 2/1/1 5/1/1
f 7/1/1 4/1/1 3/1/1
f 7/3/1 3/3/1 6/3/1
f 8/1/1 4/1/1 7/1/1
f 13/4/1 10/4/1 9/4/1
f 14/4/1 10/4/1 13/4/1
f 17/1/1 12/1/1 11/1/1
f 18/1/1 12/1/1 17/1/1
f 21/1/1 16/1/1 15/1/1
f 22/1/1 16/1/1 21/1/1
f 23/2/1 20/2/1 19/2/1
f 24/2/1 20/2/1 23/2/1
f 29/4/1 26/4/1 25/4/1
f 30/4/1 26/4/1 29/4/1
f 32/4/1 28/4/1 27/4/1
f 33/4/1 28/4/1 32/4/1
f 36/4/1 32/4/1 31/4/1
f 37/4/1 32/4/1 36/4/1
f 38/2/1 35/2/1 34/2/1
f 39/2/1 35/2/1 38/2/1
f 40/2/1 37/2/1 36/2/1
f 41/2/1 37/2/1 40/2/1
f 44/2/1 40/2/1 39/2/1
f 45/2/1 40/2/1 44/2/1
f 48/5/1 43/5/1 42/5/1
f 49/5/1 43/5/1 48/5/1
f 50/5/1 47/5/1 46/5/1
f 51/5/1 47/5/1 50/5/1
f 59/5/1 53/5/1 52/5/1
f 60/2/1 54/2/1 53/2/1
f 60/5/1 53/5/1 59/5/1
f 61/2/1 54/2/1 60/2/1
f 62/2/1 56/2/1 55/2/1
f 63/5/1 57/5/1 56/5/1
f 63/2/1 56/2/1 62/2/1
f 64/5/1 57/5/1 63/5/1
f 66/4/1 62/4/1 61/4/1
f 66/4/1 61/4/1 60/4/1
f 66/4/1 63/4/1 62/4/1
f 67/4/1 63/4/1 66/4/1
f 72/5/1 59/5/1 58/5/1
f 73/5/1 59/5/1 72/5/1
f 74/5/1 69/5/1 68/5/1
f 75/5/1 69/5/1 74/5/1
f 76/5/1 71/5/1 70/5/1
f 77/5/1 71/5/1 76/5/1
f 78/5/1 65/5/1 64/5/1
f 79/5/1 65/5/1 78/5/1
f 82/3/1 81/3/1 80/3/1
f 83/3/1 81/3/1 82/3/1
f 84/3/2 85/3/2 86/3/2
f 86/3/2 85/3/2 87/3/2
f 88/5/2 89/5/2 95/5/2
f 89/2/2 90/2/2 96/2/2
f 95/5/2 89/5/2 96/5/2
f 96/2/2 90/2/2 97/2/2
f 91/2/2 92/2/2 98/2/2
f 92/5/2 93/5/2 99/5/2
f 98/2/2 92/2/2 99/2/2
f 99/5/2 93/5/2 100/5/2
f 97/4/2 98/4/2 102/4/2
f 96/4/2 97/4/2 102/4/2
f 98/4/2 99/4/2 102/4/2
f 102/4/2 99/4/2 103/4/2
f 94/5/2 95/5/2 108/5/2
f 108/5/2 95/5/2 109/5/2
f 104/5/2 105/5/2 110/5/2
f 110/5/2 105/5/2 111/5/2
f 106/5/2 107/5/2 112/5/2
f 112/5/2 107/5/2 113/5/2
f 100/5/2 101/5/2 114/5/2
f 114/5/2 101/5/2 115/5/2
f 116/4/2 117/4/2 120/4/2
f 120/4/2 117/4/2 121/4/2
f 118/4/2 119/4/2 124/4/2
f 124/4/2 119/4/2 125/4/2
f 122/4/2 123/4/2 127/4/2
f 127/4/2 123/4/2 128/4/2
f 126/2/2 127/2/2 130/2/2
f 130/2/2 127/2/2 131/2/2
f 128/2/2 129/2/2 132/2/2
f 132/2/2 129/2/2 133/2/2
f 131/2/2 132/2/2 136/2/2
f 136/2/2 132/2/2 137/2/2
f 134/5/2 135/5/2 140/5/2
f 140/5/2 135/5/2 141/5/2
f 138/5/2 139/5/2 142/5/2
f 142/5/2 139/5/2 143/5/2
f 144/4/2 145/4/2 148/4/2
f 148/4/2 145/4/2 149/4/2
f 146/1/2 147/1/2 152/1/2
f 152/1/2 147/1/2 153/1/2
f 150/1/2 151/1/2 156/1/2
f 156/1/2 151/1/2 157/1/2
f 154/2/2 155/2/2 158/2/2
f 158/2/2 155/2/2 159/2/2
f 160/1/2 161/1/2 164/1/2
f 161/3/2 162/3/2 165/3/2
f 164/1/2 161/1/2 165/1/2
f 162/1/2 163/1/2 166/1/2
f 165/3/2 162/3/2 166/3/2
f 166/1/2 163/1/2 167/1/2
f 170/1/3 169/1/3 168/1/3
f 171/1/3 169/1/3 170/1/3
f 174/5/3 173/5/3 172/5/3
f 175/5/3 173/5/3 174/5/3
f 176/3/3 171/3/3 170/3/3
f 177/3/3 171/3/3 176/3/3
f 178/1/3 177/1/3 176/1/3
f 179/1/3 177/1/3 178/1/3
f 182/1/3 181/1/3 180/1/3
f 183/1/3 181/1/3 182/1/3
f 189/5/3 187/5/3 186/5/3
f 190/5/3 187/5/3 189/5/3
f 191/5/3 189/5/3 188/5/3
f 192/5/3 189/5/3 191/5/3
f 194/4/3 185/4/3 184/4/3
f 195/4/3 185/4/3 194/4/3
f 196/5/3 193/5/3 192/5/3
f 197/5/3 193/5/3 196/5/3
f 200/1/3 199/1/3 198/1/3
f 201/1/3 199/1/3 200/1/3
f 204/4/3 203/4/3 202/4/3
f 205/4/3 203/4/3 204/4/3
f 208/2/3 207/2/3 206/2/3
f 209/2/3 208/2/3 206/2/3
f 212/2/3 209/2/3 206/2/3
f 213/2/3 209/2/3 212/2/3
f 214/4/3 211/4/3 210/4/3
f 215/4/3 211/4/3 214/4/3
f 218/2/3 217/2/3 216/2/3
f 219/2/3 217/2/3 218/2/3
f 221/2/3 220/2/3 219/2/3
f 222/2/3 220/2/3 221/2/3
f 226/2/3 224/2/3 223/2/3
f 227/2/3 224/2/3 226/2/3
f 228/2/3 226/2/3 225/2/3
f 229/2/3 226/2/3 228/2/3
f 232/5/3 231/5/3 230/5/3
f 233/5/3 231/5/3 232/5/3
f 236/4/3 235/4/3 234/4/3
f 237/4/3 235/4/3 236/4/3
f 240/1/3 239/1/3 238/1/3
f 241/1/3 239/1/3 240/1/3
f 244/5/3 243/5/3 242/5/3
f 245/5/3 243/5/3 244/5/3
f 246/5/3 243/5/3 245/5/3
f 247/5/3 243/5/3 246/5/3
f 249/4/3 246/4/3 245/4/3
f 250/4/3 246/4/3 249/4/3
f 252/5/3 249/5/3 248/5/3
f 252/5/3 251/5/3 250/5/3
f 252/5/3 250/5/3 249/5/3
f 253/5/3 251/5/3 252/5/3
f 254/5/4 255/5/4 256/5/4
f 256/5/4 255/5/4 257/5/4
f 257/5/4 255/5/4 258/5/4
f 258/5/4 255/5/4 259/5/4
f 257/4/4 258/4/4 261/4/4
f 261/4/4 258/4/4 262/4/4
f 260/5/4 261/5/4 264/5/4
f 262/5/4 263/5/4 264/5/4
f 261/5/4 262/5/4 264/5/4
f 264/5/4 263/5/4 265/5/4
f 266/5/4 267/5/4 268/5/4
f 268/5/4 267/5/4 269/5/4
f 270/4/4 271/4/4 272/4/4
f 272/4/4 271/4/4 273/4/4
f 274/4/4 275/4/4 277/4/4
f 275/2/4 276/2/4 278/2/4
f 277/4/4 275/4/4 278/4/4
f 278/2/4 276/2/4 279/2/4
f 279/2/4 280/2/4 281/2/4
f 281/2/4 280/2/4 282/2/4
f 283/2/4 284/2/4 286/2/4
f 286/2/4 284/2/4 287/2/4
f 285/2/4 286/2/4 288/2/4
f 288/2/4 286/2/4 289/2/4
f 290/4/4 291/4/4 292/4/4
f 292/4/4 291/4/4 293/4/4
f 294/2/4 295/2/4 296/2/4
f 294/2/4 296/2/4 297/2/4
f 294/2/4 297/2/4 300/2/4
f 300/2/4 297/2/4 301/2/4
f 298/4/4 299/4/4 302/4/4
f 302/4/4 299/4/4 303/4/4
f 304/1/4 305/1/4 306/1/4
f 306/1/4 305/1/4 307/1/4
f 310/5/4 311/5/4 313/5/4
f 313/5/4 311/5/4 314/5/4
f 312/5/4 313/5/4 315/5/4
f 315/5/4 313/5/4 316/5/4
f 308/4/4 309/4/4 318/4/4
f 318/4/4 309/4/4 319/4/4
f 316/5/4 317/5/4 320/5/4
f 320/5/4 317/5/4 321/5/4
f 322/1/4 323/1/4 324/1/4
f 324/1/4 323/1/4 325/1/4
f 326/1/4 327/1/4 328/1/4
f 328/1/4 327/1/4 329/1/4
f 330/5/4 331/5/4 332/5/4
f 332/5/4 331/5/4 333/5/4
f 328/3/4 329/3/4 334/3/4
f 334/3/4 329/3/4 335/3/4
f 334/1/4 335/1/4 336/1/4
f 336/1/4 335/1/4 337/1/4
f 341/4/5 339/4/5 338/4/5
f 342/4/5 339/4/5 341/4/5
f 344/4/5 341/4/5 340/4/5
f 344/4/5 343/4/5 342/4/5
f 344/4/5 342/4/5 341/4/5
f 345/4/5 343/4/5 344/4/5
f 346/4/5 343/4/5 345/4/5
f 347/4/5 343/4/5 346/4/5
f 348/4/5 346/4/5 345/4/5
f 349/4/5 346/4/5 348/4/5
f 355/1/5 351/1/5 350/1/5
f 356/3/5 352/3/5 351/3/5
f 356/1/5 351/1/5 355/1/5
f 357/1/5 353/1/5 352/1/5
f 357/3/5 352/3/5 356/3/5
f 358/1/5 353/1/5 357/1/5
f 360/1/5 356/1/5 355/1/5
f 360/1/5 355/1/5 354/1/5
f 361/1/5 356/1/5 360/1/5
f 362/1/5 356/1/5 361/1/5
f 363/1/5 359/1/5 358/1/5
f 363/1/5 358/1/5 357/1/5
f 364/1/5 359/1/5 363/1/5
f 365/1/5 359/1/5 364/1/5
f 366/3/5 361/3/5 360/3/5
f 367/3/5 361/3/5 366/3/5
f 370/3/5 365/3/5 364/3/5
f 371/3/5 365/3/5 370/3/5
f 372/1/5 368/1/5 367/1/5
f 372/1/5 367/1/5 366/1/5
f 373/1/5 368/1/5 372/1/5
f 374/1/5 368/1/5 373/1/5
f 375/1/5 371/1/5 370/1/5
f 375/1/5 370/1/5 369/1/5
f 376/1/5 371/1/5 375/1/5
f 377/1/5 371/1/5 376/1/5
f 378/1/5 374/1/5 373/1/5
f 379/3/5 375/3/5 374/3/5
f 379/1/5 374/1/5 378/1/5
f 380/1/5 376/1/5 375/1/5
f 380/3/5 375/3/5 379/3/5
f 381/1/5 376/1/5 380/1/5
f 384/2/5 383/2/5 382/2/5
f 385/2/5 383/2/5 384/2/5
f 388/5/5 387/5/5 386/5/5
f 389/5/5 387/5/5 388/5/5
f 392/5/5 391/5/5 390/5/5
f 393/5/5 391/5/5 392/5/5
f 397/5/5 395/5/5 394/5/5
f 398/5/5 395/5/5 397/5/5
f 400/5/5 397/5/5 396/5/5
f 401/5/5 397/5/5 400/5/5
f 402/5/5 399/5/5 398/5/5
f 403/5/5 399/5/5 402/5/5
f 408/5/5 405/5/5 404/5/5
f 409/5/5 405/5/5 408/5/5
f 410/5/5 407/5/5 406/5/5
f 411/5/5 407/5/5 410/5/5
f 412/5/5 410/5/5 409/5/5
f 413/5/5 410/5/5 412/5/5
f 416/5/5 415/5/5 414/5/5
f 417/5/5 415/5/5 416/5/5
f 420/5/5 419/5/5 418/5/5
f 421/5/5 419/5/5 420/5/5
f 422/4/6 423/4/6 426/4/6
f 426/4/6 423/4/6 427/4/6
f 424/4/6 425/4/6 428/4/6
f 428/4/6 425/4/6 429/4/6
f 430/1/6 431/1/6 435/1/6
f 431/3/6 432/3/6 436/3/6
f 435/1/6 431/1/6 436/1/6
f 432/1/6 433/1/6 437/1/6
f 436/3/6 432/3/6 437/3/6
f 437/1/6 433/1/6 438/1/6
f 435/1/6 436/1/6 440/1/6
f 434/1/6 435/1/6 440/1/6
f 440/1/6 436/1/6 441/1/6
f 436/4/6 437/4/6 442/4/6
f 441/1/6 436/1/6 442/1/6
f 438/1/6 439/1/6 443/1/6
f 442/4/6 437/4/6 443/4/6
f 437/1/6 438/1/6 443/1/6
f 443/1/6 439/1/6 444/1/6
f 444/1/6 439/1/6 445/1/6
f 441/4/6 442/4/6 446/4/6
f 440/3/6 441/3/6 446/3/6
f 446/4/6 442/4/6 447/4/6
f 443/4/6 444/4/6 448/4/6
f 444/3/6 445/3/6 449/3/6
f 448/4/6 444/4/6 449/4/6
f 440/3/6 446/3/6 450/3/6
f 449/3/6 445/3/6 452/3/6
f 440/3/6 450/3/6 453/3/6
f 453/3/6 450/3/6 454/3/6
f 451/4/6 452/4/6 456/4/6
f 452/3/6 445/3/6 457/3/6
f 456/4/6 452/4/6 457/4/6
f 457/3/6 445/3/6 458/3/6
f 454/1/6 455/1/6 459/1/6
f 453/1/6 454/1/6 459/1/6
f 459/1/6 455/1/6 460/1/6
f 455/4/6 456/4/6 461/4/6
f 460/1/6 455/1/6 461/1/6
f 457/1/6 458/1/6 462/1/6
f 461/4/6 456/4/6 462/4/6
f 456/1/6 457/1/6 462/1/6
f 462/1/6 458/1/6 463/1/6
f 463/1/6 458/1/6 464/1/6
f 460/1/6 461/1/6 465/1/6
f 461/3/6 462/3/6 466/3/6
f 465/1/6 461/1/6 466/1/6
f 462/1/6 463/1/6 467/1/6
f 466/3/6 462/3/6 467/3/6
f 467/1/6 463/1/6 468/1/6
f 469/2/6 470/2/6 474/2/6
f 474/2/6 470/2/6 475/2/6
f 471/2/6 472/2/6 476/2/6
f 476/2/6 472/2/6 477/2/6
f 473/2/6 474/2/6 479/2/6
f 479/2/6 474/2/6 480/2/6
f 477/2/6 478/2/6 483/2/6
f 483/2/6 478/2/6 484/2/6
f 480/2/6 481/2/6 485/2/6
f 485/2/6 481/2/6 486/2/6
f 482/2/6 483/2/6 487/2/6
f 487/2/6 483/2/6 488/2/6
f 489/2/6 490/2/6 493/2/6
f 493/2/6 490/2/6 494/2/6
f 491/2/6 492/2/6 495/2/6
f 495/2/6 492/2/6 496/2/6
f 497/4/6 498/4/6 499/4/6
f 499/4/6 498/4/6 500/4/6
f 501/5/6 502/5/6 504/5/6
f 504/5/6 502/5/6 505/5/6
f 503/5/6 504/5/6 507/5/6
f 504/4/6 505/4/6 508/4/6
f 507/5/6 504/5/6 508/5/6
f 505/5/6 506/5/6 509/5/6
f 508/4/6 505/4/6 509/4/6
f 509/5/6 506/5/6 510/5/6
f 508/5/6 509/5/6 511/5/6
f 511/5/6 509/5/6 512/5/6
f 513/5/6 514/5/6 516/5/6
f 516/5/6 514/5/6 517/5/6
f 515/5/6 516/5/6 519/5/6
f 516/4/6 517/4/6 520/4/6
f 519/5/6 516/5/6 520/5/6
f 517/5/6 518/5/6 521/5/6
f 520/4/6 517/4/6 521/4/6
f 521/5/6 518/5/6 522/5/6
f 520/5/6 521/5/6 523/5/6
f 523/5/6 521/5/6 524/5/6
