# MagicaVoxel @ Ephtracy

# group
g lance_rockettes

# material
mtllib lance_rockettes.mtl
usemtl palette

# normals
vn -1 0 0
vn 1 0 0
vn 0 0 1
vn 0 0 -1
vn 0 -1 0
vn 0 1 0

# texcoords
vt 0.173828 0.5
vt 0.205078 0.5
vt 0.787109 0.5
vt 0.857422 0.5
vt 0.974609 0.5
vt 0.990234 0.5

# verts
v -4 0 3
v -4 0 -1
v -4 0 -2
v -4 0 -6
v -4 1 3
v -4 1 2
v -4 1 -0
v -4 1 -1
v -4 1 -2
v -4 1 -3
v -4 1 -5
v -4 1 -6
v -4 2 2
v -4 2 -0
v -4 2 -3
v -4 2 -5
v -4 3 2
v -4 3 -0
v -4 3 -3
v -4 3 -5
v -3 1 3
v -3 1 2
v -3 1 -0
v -3 1 -1
v -3 1 -2
v -3 1 -3
v -3 1 -5
v -3 1 -6
v -3 2 3
v -3 2 2
v -3 2 -0
v -3 2 -1
v -3 2 -2
v -3 2 -3
v -3 2 -5
v -3 2 -6
v -3 3 1
v -3 3 -0
v -3 3 -3
v -3 3 -4
v -3 4 1
v -3 4 -0
v -3 4 -3
v -3 4 -4
v -3 5 -3
v -3 5 -4
v -3 6 -3
v -3 6 -4
v -3 7 -3
v -3 7 -4
v -3 8 -3
v -3 8 -4
v -2 1 4
v -2 1 3
v -2 1 -1
v -2 1 -2
v -2 1 -6
v -2 1 -7
v -2 2 4
v -2 2 3
v -2 2 2
v -2 2 -0
v -2 2 -1
v -2 2 -2
v -2 2 -3
v -2 2 -5
v -2 2 -6
v -2 2 -7
v -2 3 3
v -2 3 2
v -2 3 1
v -2 3 -4
v -2 3 -5
v -2 3 -6
v -2 4 2
v -2 4 1
v -2 4 -0
v -2 4 -3
v -2 4 -4
v -2 4 -5
v -2 5 1
v -2 5 -0
v -2 5 -3
v -2 6 1
v -2 6 -0
v -2 6 -3
v -2 7 1
v -2 7 -0
v -2 7 -3
v -2 8 1
v -2 8 -0
v -2 8 -3
v -1 2 -6
v -1 2 -7
v -1 3 3
v -1 3 2
v -1 3 -5
v -1 3 -6
v -1 3 -7
v -1 4 3
v -1 4 2
v -1 4 1
v -1 4 -2
v -1 4 -5
v -1 5 2
v -1 5 1
v -1 5 -2
v -1 5 -4
v -1 5 -5
v -1 5 -6
v -1 6 -0
v -1 6 -4
v -1 6 -5
v -1 7 -0
v -1 7 -4
v 0 5 1
v 0 5 -0
v 0 5 -2
v 0 6 1
v 0 6 -0
v 0 6 -2
v 0 7 1
v 0 7 -0
v 0 7 -4
v 0 8 1
v 0 8 -0
v 0 8 -4
v 2 0 3
v 2 0 -1
v 2 0 -2
v 2 0 -6
v 2 1 3
v 2 1 2
v 2 1 -0
v 2 1 -1
v 2 1 -2
v 2 1 -3
v 2 1 -5
v 2 1 -6
v 2 2 2
v 2 2 -0
v 2 2 -3
v 2 2 -5
v -3 0 3
v -3 0 -1
v -3 0 -2
v -3 0 -6
v -3 1 3
v -3 1 -1
v -3 1 -2
v -3 1 -6
v -1 5 1
v -1 5 -0
v -1 5 -2
v -1 6 1
v -1 6 -0
v -1 6 -2
v -1 7 1
v -1 7 -0
v -1 7 -4
v -1 8 1
v -1 8 -0
v -1 8 -4
v 0 2 -6
v 0 2 -7
v 0 3 3
v 0 3 2
v 0 3 -5
v 0 3 -6
v 0 3 -7
v 0 4 3
v 0 4 2
v 0 4 1
v 0 4 -2
v 0 4 -5
v 0 5 2
v 0 5 1
v 0 5 -2
v 0 5 -4
v 0 5 -5
v 0 5 -6
v 0 6 -0
v 0 6 -4
v 0 6 -5
v 0 7 -0
v 0 7 -4
v 1 1 4
v 1 1 3
v 1 1 2
v 1 1 -0
v 1 1 -1
v 1 1 -2
v 1 1 -3
v 1 1 -5
v 1 1 -6
v 1 1 -7
v 1 2 4
v 1 2 3
v 1 2 2
v 1 2 -0
v 1 2 -1
v 1 2 -2
v 1 2 -3
v 1 2 -5
v 1 2 -6
v 1 2 -7
v 1 3 3
v 1 3 2
v 1 3 1
v 1 3 -4
v 1 3 -5
v 1 3 -6
v 1 4 2
v 1 4 1
v 1 4 -0
v 1 4 -3
v 1 4 -4
v 1 4 -5
v 1 5 1
v 1 5 -0
v 1 5 -3
v 1 6 1
v 1 6 -0
v 1 6 -3
v 1 7 1
v 1 7 -0
v 1 7 -3
v 1 8 1
v 1 8 -0
v 1 8 -3
v 2 1 3
v 2 1 2
v 2 1 -0
v 2 1 -1
v 2 1 -2
v 2 1 -3
v 2 1 -5
v 2 1 -6
v 2 2 3
v 2 2 2
v 2 2 -0
v 2 2 -1
v 2 2 -2
v 2 2 -3
v 2 2 -5
v 2 2 -6
v 2 3 1
v 2 3 -0
v 2 3 -3
v 2 3 -4
v 2 4 1
v 2 4 -0
v 2 4 -3
v 2 4 -4
v 2 5 -3
v 2 5 -4
v 2 6 -3
v 2 6 -4
v 2 7 -3
v 2 7 -4
v 2 8 -3
v 2 8 -4
v 3 0 3
v 3 0 -1
v 3 0 -2
v 3 0 -6
v 3 1 3
v 3 1 2
v 3 1 -0
v 3 1 -1
v 3 1 -2
v 3 1 -3
v 3 1 -5
v 3 1 -6
v 3 2 2
v 3 2 -0
v 3 2 -3
v 3 2 -5
v 3 3 2
v 3 3 -0
v 3 3 -3
v 3 3 -5
v -2 1 4
v -2 2 4
v 1 1 4
v 1 2 4
v -4 0 3
v -4 1 3
v -3 0 3
v -3 1 3
v -3 2 3
v -2 1 3
v -2 2 3
v -2 3 3
v -1 3 3
v -1 4 3
v 0 3 3
v 0 4 3
v 1 1 3
v 1 2 3
v 1 3 3
v 2 0 3
v 2 1 3
v 2 2 3
v 3 0 3
v 3 1 3
v -4 1 2
v -4 2 2
v -4 3 2
v -3 1 2
v -3 2 2
v -2 2 2
v -2 3 2
v -2 4 2
v -1 3 2
v -1 4 2
v -1 5 2
v 0 3 2
v 0 4 2
v 0 5 2
v 1 2 2
v 1 3 2
v 1 4 2
v 2 1 2
v 2 2 2
v 3 1 2
v 3 2 2
v 3 3 2
v -3 3 1
v -3 4 1
v -2 3 1
v -2 4 1
v -2 5 1
v -2 6 1
v -2 7 1
v -2 8 1
v -1 5 1
v -1 6 1
v -1 7 1
v -1 8 1
v 0 5 1
v 0 6 1
v 0 7 1
v 0 8 1
v 1 3 1
v 1 4 1
v 1 5 1
v 1 6 1
v 1 7 1
v 1 8 1
v 2 3 1
v 2 4 1
v -1 6 -0
v -1 7 -0
v 0 6 -0
v 0 7 -0
v 1 1 -0
v 1 2 -0
v 2 1 -0
v 2 2 -0
v -4 0 -2
v -4 1 -2
v -3 0 -2
v -3 1 -2
v -3 2 -2
v -2 1 -2
v -2 2 -2
v -1 4 -2
v -1 5 -2
v -1 6 -2
v 0 4 -2
v 0 5 -2
v 0 6 -2
v 1 1 -2
v 1 2 -2
v 2 0 -2
v 2 1 -2
v 2 2 -2
v 3 0 -2
v 3 1 -2
v -4 1 -3
v -4 2 -3
v -4 3 -3
v -3 1 -3
v -3 2 -3
v -3 3 -3
v -3 4 -3
v -3 5 -3
v -3 6 -3
v -3 7 -3
v -3 8 -3
v -2 2 -3
v -2 4 -3
v -2 5 -3
v -2 6 -3
v -2 7 -3
v -2 8 -3
v 1 2 -3
v 1 4 -3
v 1 5 -3
v 1 6 -3
v 1 7 -3
v 1 8 -3
v 2 1 -3
v 2 2 -3
v 2 3 -3
v 2 4 -3
v 2 5 -3
v 2 6 -3
v 2 7 -3
v 2 8 -3
v 3 1 -3
v 3 2 -3
v 3 3 -3
v 1 1 -5
v 1 2 -5
v 2 1 -5
v 2 2 -5
v 1 1 2
v 1 2 2
v 2 1 2
v 2 2 2
v -1 4 1
v -1 5 1
v 0 4 1
v 0 5 1
v -4 1 -0
v -4 2 -0
v -4 3 -0
v -3 1 -0
v -3 2 -0
v -3 3 -0
v -3 4 -0
v -2 2 -0
v -2 4 -0
v 1 2 -0
v 1 4 -0
v 2 1 -0
v 2 2 -0
v 2 3 -0
v 2 4 -0
v 3 1 -0
v 3 2 -0
v 3 3 -0
v -4 0 -1
v -4 1 -1
v -3 0 -1
v -3 1 -1
v -3 2 -1
v -2 1 -1
v -2 2 -1
v 1 1 -1
v 1 2 -1
v 2 0 -1
v 2 1 -1
v 2 2 -1
v 3 0 -1
v 3 1 -1
v 1 1 -3
v 1 2 -3
v 2 1 -3
v 2 2 -3
v -3 3 -4
v -3 4 -4
v -3 5 -4
v -3 6 -4
v -3 7 -4
v -3 8 -4
v -2 3 -4
v -2 4 -4
v -2 5 -4
v -2 6 -4
v -2 7 -4
v -2 8 -4
v -1 5 -4
v -1 6 -4
v -1 7 -4
v -1 8 -4
v 0 5 -4
v 0 6 -4
v 0 7 -4
v 0 8 -4
v 1 3 -4
v 1 4 -4
v 1 5 -4
v 1 6 -4
v 1 7 -4
v 1 8 -4
v 2 3 -4
v 2 4 -4
v 2 5 -4
v 2 6 -4
v 2 7 -4
v 2 8 -4
v -4 1 -5
v -4 2 -5
v -4 3 -5
v -3 1 -5
v -3 2 -5
v -2 2 -5
v -2 3 -5
v -2 4 -5
v -1 3 -5
v -1 4 -5
v -1 5 -5
v -1 6 -5
v 0 3 -5
v 0 4 -5
v 0 5 -5
v 0 6 -5
v 1 2 -5
v 1 3 -5
v 1 4 -5
v 2 1 -5
v 2 2 -5
v 3 1 -5
v 3 2 -5
v 3 3 -5
v -4 0 -6
v -4 1 -6
v -3 0 -6
v -3 1 -6
v -3 2 -6
v -2 1 -6
v -2 2 -6
v -2 3 -6
v -1 2 -6
v -1 3 -6
v -1 5 -6
v 0 2 -6
v 0 3 -6
v 0 5 -6
v 1 1 -6
v 1 2 -6
v 1 3 -6
v 2 0 -6
v 2 1 -6
v 2 2 -6
v 3 0 -6
v 3 1 -6
v -2 1 -7
v -2 2 -7
v -1 2 -7
v -1 3 -7
v 0 2 -7
v 0 3 -7
v 1 1 -7
v 1 2 -7
v -4 0 3
v -3 0 3
v 2 0 3
v 3 0 3
v -4 0 -1
v -3 0 -1
v 2 0 -1
v 3 0 -1
v -4 0 -2
v -3 0 -2
v 2 0 -2
v 3 0 -2
v -4 0 -6
v -3 0 -6
v 2 0 -6
v 3 0 -6
v -2 1 4
v 1 1 4
v -3 1 3
v -2 1 3
v 1 1 3
v 2 1 3
v 1 1 2
v 2 1 2
v 1 1 -0
v 2 1 -0
v -3 1 -1
v -2 1 -1
v 1 1 -1
v 2 1 -1
v -3 1 -2
v -2 1 -2
v 1 1 -2
v 2 1 -2
v 1 1 -3
v 2 1 -3
v 1 1 -5
v 2 1 -5
v -3 1 -6
v -2 1 -6
v 1 1 -6
v 2 1 -6
v -2 1 -7
v 1 1 -7
v 1 2 2
v 2 2 2
v 1 2 -0
v 2 2 -0
v 1 2 -3
v 2 2 -3
v 1 2 -5
v 2 2 -5
v -2 5 1
v -1 5 1
v 0 5 1
v 1 5 1
v -2 5 -0
v -1 5 -0
v 0 5 -0
v 1 5 -0
v -1 5 -2
v 0 5 -2
v -3 5 -3
v -2 5 -3
v 1 5 -3
v 2 5 -3
v -3 5 -4
v -2 5 -4
v -1 5 -4
v 0 5 -4
v 1 5 -4
v 2 5 -4
v -1 6 -0
v 0 6 -0
v -1 6 -2
v 0 6 -2
v -2 7 1
v -1 7 1
v 0 7 1
v 1 7 1
v -2 7 -0
v -1 7 -0
v 0 7 -0
v 1 7 -0
v -3 7 -3
v -2 7 -3
v 1 7 -3
v 2 7 -3
v -3 7 -4
v -2 7 -4
v -1 7 -4
v 0 7 -4
v 1 7 -4
v 2 7 -4
v -4 1 3
v -3 1 3
v 2 1 3
v 3 1 3
v -4 1 2
v -3 1 2
v 2 1 2
v 3 1 2
v -4 1 -0
v -3 1 -0
v 2 1 -0
v 3 1 -0
v -4 1 -1
v -3 1 -1
v 2 1 -1
v 3 1 -1
v -4 1 -2
v -3 1 -2
v 2 1 -2
v 3 1 -2
v -4 1 -3
v -3 1 -3
v 2 1 -3
v 3 1 -3
v -4 1 -5
v -3 1 -5
v 2 1 -5
v 3 1 -5
v -4 1 -6
v -3 1 -6
v 2 1 -6
v 3 1 -6
v -2 2 4
v 1 2 4
v -3 2 3
v -2 2 3
v 1 2 3
v 2 2 3
v -3 2 2
v -2 2 2
v 1 2 2
v 2 2 2
v -3 2 -0
v -2 2 -0
v 1 2 -0
v 2 2 -0
v -3 2 -1
v -2 2 -1
v 1 2 -1
v 2 2 -1
v -3 2 -2
v -2 2 -2
v 1 2 -2
v 2 2 -2
v -3 2 -3
v -2 2 -3
v 1 2 -3
v 2 2 -3
v -3 2 -5
v -2 2 -5
v 1 2 -5
v 2 2 -5
v -3 2 -6
v -2 2 -6
v -1 2 -6
v 0 2 -6
v 1 2 -6
v 2 2 -6
v -2 2 -7
v -1 2 -7
v 0 2 -7
v 1 2 -7
v -2 3 3
v -1 3 3
v 0 3 3
v 1 3 3
v -4 3 2
v -2 3 2
v -1 3 2
v 0 3 2
v 1 3 2
v 3 3 2
v -3 3 1
v -2 3 1
v 1 3 1
v 2 3 1
v -4 3 -0
v -3 3 -0
v 2 3 -0
v 3 3 -0
v -4 3 -3
v -3 3 -3
v 2 3 -3
v 3 3 -3
v -3 3 -4
v -2 3 -4
v 1 3 -4
v 2 3 -4
v -4 3 -5
v -2 3 -5
v -1 3 -5
v 0 3 -5
v 1 3 -5
v 3 3 -5
v -2 3 -6
v -1 3 -6
v 0 3 -6
v 1 3 -6
v -1 3 -7
v 0 3 -7
v -1 4 3
v 0 4 3
v -2 4 2
v -1 4 2
v 0 4 2
v 1 4 2
v -3 4 1
v -2 4 1
v -1 4 1
v 0 4 1
v 1 4 1
v 2 4 1
v -3 4 -0
v -2 4 -0
v 1 4 -0
v 2 4 -0
v -1 4 -2
v 0 4 -2
v -3 4 -3
v -2 4 -3
v 1 4 -3
v 2 4 -3
v -3 4 -4
v -2 4 -4
v 1 4 -4
v 2 4 -4
v -2 4 -5
v -1 4 -5
v 0 4 -5
v 1 4 -5
v -1 5 2
v 0 5 2
v -1 5 1
v 0 5 1
v -1 5 -5
v 0 5 -5
v -1 5 -6
v 0 5 -6
v -2 6 1
v -1 6 1
v 0 6 1
v 1 6 1
v -2 6 -0
v -1 6 -0
v 0 6 -0
v 1 6 -0
v -3 6 -3
v -2 6 -3
v 1 6 -3
v 2 6 -3
v -3 6 -4
v -2 6 -4
v -1 6 -4
v 0 6 -4
v 1 6 -4
v 2 6 -4
v -1 6 -5
v 0 6 -5
v -1 7 -0
v 0 7 -0
v -1 7 -4
v 0 7 -4
v -2 8 1
v -1 8 1
v 0 8 1
v 1 8 1
v -2 8 -0
v -1 8 -0
v 0 8 -0
v 1 8 -0
v -3 8 -3
v -2 8 -3
v 1 8 -3
v 2 8 -3
v -3 8 -4
v -2 8 -4
v -1 8 -4
v 0 8 -4
v 1 8 -4
v 2 8 -4

# faces
f 5/6/1 2/6/1 1/6/1
f 6/6/1 2/6/1 5/6/1
f 7/6/1 2/6/1 6/6/1
f 8/6/1 2/6/1 7/6/1
f 9/6/1 4/6/1 3/6/1
f 10/6/1 4/6/1 9/6/1
f 11/6/1 4/6/1 10/6/1
f 12/6/1 4/6/1 11/6/1
f 13/6/1 7/6/1 6/6/1
f 14/6/1 7/6/1 13/6/1
f 15/6/1 11/6/1 10/6/1
f 16/6/1 11/6/1 15/6/1
f 17/2/1 14/2/1 13/2/1
f 18/2/1 14/2/1 17/2/1
f 19/2/1 16/2/1 15/2/1
f 20/2/1 16/2/1 19/2/1
f 29/2/1 22/2/1 21/2/1
f 30/2/1 22/2/1 29/2/1
f 31/2/1 24/2/1 23/2/1
f 32/2/1 24/2/1 31/2/1
f 33/2/1 26/2/1 25/2/1
f 34/2/1 26/2/1 33/2/1
f 35/2/1 28/2/1 27/2/1
f 36/2/1 28/2/1 35/2/1
f 41/2/1 38/2/1 37/2/1
f 42/2/1 38/2/1 41/2/1
f 43/2/1 40/2/1 39/2/1
f 44/2/1 40/2/1 43/2/1
f 47/4/1 46/4/1 45/4/1
f 48/4/1 46/4/1 47/4/1
f 51/4/1 50/4/1 49/4/1
f 52/4/1 50/4/1 51/4/1
f 59/2/1 54/2/1 53/2/1
f 60/2/1 54/2/1 59/2/1
f 63/2/1 56/2/1 55/2/1
f 64/2/1 56/2/1 63/2/1
f 67/2/1 58/2/1 57/2/1
f 68/2/1 58/2/1 67/2/1
f 69/2/1 61/2/1 60/2/1
f 70/2/1 61/2/1 69/2/1
f 73/2/1 67/2/1 66/2/1
f 74/2/1 67/2/1 73/2/1
f 75/3/1 71/3/1 70/3/1
f 76/3/1 71/3/1 75/3/1
f 77/2/1 65/2/1 64/2/1
f 77/2/1 63/2/1 62/2/1
f 77/2/1 64/2/1 63/2/1
f 78/2/1 65/2/1 77/2/1
f 79/2/1 73/2/1 72/2/1
f 80/2/1 73/2/1 79/2/1
f 84/5/1 82/5/1 81/5/1
f 85/1/1 83/1/1 82/1/1
f 85/5/1 82/5/1 84/5/1
f 86/1/1 83/1/1 85/1/1
f 90/5/1 88/5/1 87/5/1
f 91/1/1 89/1/1 88/1/1
f 91/5/1 88/5/1 90/5/1
f 92/1/1 89/1/1 91/1/1
f 98/2/1 94/2/1 93/2/1
f 99/2/1 94/2/1 98/2/1
f 100/3/1 96/3/1 95/3/1
f 101/3/1 96/3/1 100/3/1
f 104/2/1 98/2/1 97/2/1
f 105/3/1 102/3/1 101/3/1
f 106/3/1 102/3/1 105/3/1
f 107/2/1 104/2/1 103/2/1
f 108/2/1 104/2/1 107/2/1
f 109/2/1 98/2/1 104/2/1
f 109/2/1 104/2/1 108/2/1
f 110/2/1 98/2/1 109/2/1
f 112/2/1 109/2/1 108/2/1
f 113/2/1 109/2/1 112/2/1
f 114/1/1 112/1/1 111/1/1
f 115/1/1 112/1/1 114/1/1
f 119/5/1 117/5/1 116/5/1
f 120/1/1 118/1/1 117/1/1
f 120/5/1 117/5/1 119/5/1
f 121/1/1 118/1/1 120/1/1
f 125/5/1 123/5/1 122/5/1
f 126/1/1 124/1/1 123/1/1
f 126/5/1 123/5/1 125/5/1
f 127/1/1 124/1/1 126/1/1
f 132/6/1 129/6/1 128/6/1
f 133/6/1 129/6/1 132/6/1
f 134/6/1 129/6/1 133/6/1
f 135/6/1 129/6/1 134/6/1
f 136/6/1 131/6/1 130/6/1
f 137/6/1 131/6/1 136/6/1
f 138/6/1 131/6/1 137/6/1
f 139/6/1 131/6/1 138/6/1
f 140/6/1 134/6/1 133/6/1
f 141/6/1 134/6/1 140/6/1
f 142/6/1 138/6/1 137/6/1
f 143/6/1 138/6/1 142/6/1
f 144/6/2 145/6/2 148/6/2
f 148/6/2 145/6/2 149/6/2
f 146/6/2 147/6/2 150/6/2
f 150/6/2 147/6/2 151/6/2
f 152/5/2 153/5/2 155/5/2
f 153/1/2 154/1/2 156/1/2
f 155/5/2 153/5/2 156/5/2
f 156/1/2 154/1/2 157/1/2
f 158/5/2 159/5/2 161/5/2
f 159/1/2 160/1/2 162/1/2
f 161/5/2 159/5/2 162/5/2
f 162/1/2 160/1/2 163/1/2
f 164/2/2 165/2/2 169/2/2
f 169/2/2 165/2/2 170/2/2
f 166/3/2 167/3/2 171/3/2
f 171/3/2 167/3/2 172/3/2
f 168/2/2 169/2/2 175/2/2
f 172/3/2 173/3/2 176/3/2
f 176/3/2 173/3/2 177/3/2
f 174/2/2 175/2/2 178/2/2
f 178/2/2 175/2/2 179/2/2
f 175/2/2 169/2/2 180/2/2
f 179/2/2 175/2/2 180/2/2
f 180/2/2 169/2/2 181/2/2
f 179/2/2 180/2/2 183/2/2
f 183/2/2 180/2/2 184/2/2
f 182/1/2 183/1/2 185/1/2
f 185/1/2 183/1/2 186/1/2
f 187/2/2 188/2/2 197/2/2
f 197/2/2 188/2/2 198/2/2
f 189/2/2 190/2/2 199/2/2
f 199/2/2 190/2/2 200/2/2
f 191/2/2 192/2/2 201/2/2
f 201/2/2 192/2/2 202/2/2
f 193/2/2 194/2/2 203/2/2
f 203/2/2 194/2/2 204/2/2
f 195/2/2 196/2/2 205/2/2
f 205/2/2 196/2/2 206/2/2
f 198/2/2 199/2/2 207/2/2
f 207/2/2 199/2/2 208/2/2
f 204/2/2 205/2/2 211/2/2
f 211/2/2 205/2/2 212/2/2
f 208/3/2 209/3/2 213/3/2
f 213/3/2 209/3/2 214/3/2
f 201/2/2 202/2/2 215/2/2
f 202/2/2 203/2/2 215/2/2
f 200/2/2 201/2/2 215/2/2
f 215/2/2 203/2/2 216/2/2
f 210/2/2 211/2/2 217/2/2
f 217/2/2 211/2/2 218/2/2
f 219/5/2 220/5/2 222/5/2
f 220/1/2 221/1/2 223/1/2
f 222/5/2 220/5/2 223/5/2
f 223/1/2 221/1/2 224/1/2
f 225/5/2 226/5/2 228/5/2
f 226/1/2 227/1/2 229/1/2
f 228/5/2 226/5/2 229/5/2
f 229/1/2 227/1/2 230/1/2
f 231/2/2 232/2/2 239/2/2
f 239/2/2 232/2/2 240/2/2
f 233/2/2 234/2/2 241/2/2
f 241/2/2 234/2/2 242/2/2
f 235/2/2 236/2/2 243/2/2
f 243/2/2 236/2/2 244/2/2
f 237/2/2 238/2/2 245/2/2
f 245/2/2 238/2/2 246/2/2
f 247/2/2 248/2/2 251/2/2
f 251/2/2 248/2/2 252/2/2
f 249/2/2 250/2/2 253/2/2
f 253/2/2 250/2/2 254/2/2
f 255/4/2 256/4/2 257/4/2
f 257/4/2 256/4/2 258/4/2
f 259/4/2 260/4/2 261/4/2
f 261/4/2 260/4/2 262/4/2
f 263/6/2 264/6/2 267/6/2
f 267/6/2 264/6/2 268/6/2
f 268/6/2 264/6/2 269/6/2
f 269/6/2 264/6/2 270/6/2
f 265/6/2 266/6/2 271/6/2
f 271/6/2 266/6/2 272/6/2
f 272/6/2 266/6/2 273/6/2
f 273/6/2 266/6/2 274/6/2
f 268/6/2 269/6/2 275/6/2
f 275/6/2 269/6/2 276/6/2
f 272/6/2 273/6/2 277/6/2
f 277/6/2 273/6/2 278/6/2
f 275/2/2 276/2/2 279/2/2
f 279/2/2 276/2/2 280/2/2
f 277/2/2 278/2/2 281/2/2
f 281/2/2 278/2/2 282/2/2
f 285/2/3 284/2/3 283/2/3
f 286/2/3 284/2/3 285/2/3
f 289/6/3 288/6/3 287/6/3
f 290/6/3 288/6/3 289/6/3
f 292/2/3 291/2/3 290/2/3
f 293/2/3 291/2/3 292/2/3
f 295/2/3 294/2/3 293/2/3
f 297/2/3 295/2/3 293/2/3
f 297/3/3 296/3/3 295/3/3
f 298/3/3 296/3/3 297/3/3
f 300/2/3 297/2/3 293/2/3
f 301/2/3 297/2/3 300/2/3
f 303/2/3 300/2/3 299/2/3
f 304/2/3 300/2/3 303/2/3
f 305/6/3 303/6/3 302/6/3
f 306/6/3 303/6/3 305/6/3
f 310/6/3 308/6/3 307/6/3
f 311/2/3 309/2/3 308/2/3
f 311/6/3 308/6/3 310/6/3
f 312/2/3 309/2/3 311/2/3
f 313/2/3 309/2/3 312/2/3
f 315/3/3 314/3/3 313/3/3
f 316/3/3 314/3/3 315/3/3
f 319/3/3 317/3/3 316/3/3
f 320/3/3 317/3/3 319/3/3
f 322/3/3 319/3/3 318/3/3
f 323/3/3 319/3/3 322/3/3
f 325/2/3 322/2/3 321/2/3
f 326/6/3 325/6/3 324/6/3
f 327/2/3 322/2/3 325/2/3
f 327/6/3 325/6/3 326/6/3
f 328/2/3 322/2/3 327/2/3
f 331/2/3 330/2/3 329/2/3
f 332/2/3 330/2/3 331/2/3
f 337/5/3 334/5/3 333/5/3
f 338/5/3 334/5/3 337/5/3
f 339/5/3 336/5/3 335/5/3
f 340/5/3 336/5/3 339/5/3
f 347/5/3 342/5/3 341/5/3
f 348/5/3 342/5/3 347/5/3
f 349/5/3 344/5/3 343/5/3
f 350/5/3 344/5/3 349/5/3
f 351/2/3 346/2/3 345/2/3
f 352/2/3 346/2/3 351/2/3
f 355/1/3 354/1/3 353/1/3
f 356/1/3 354/1/3 355/1/3
f 359/2/3 358/2/3 357/2/3
f 360/2/3 358/2/3 359/2/3
f 363/6/3 362/6/3 361/6/3
f 364/6/3 362/6/3 363/6/3
f 366/2/3 365/2/3 364/2/3
f 367/2/3 365/2/3 366/2/3
f 371/2/3 369/2/3 368/2/3
f 372/1/3 370/1/3 369/1/3
f 372/2/3 369/2/3 371/2/3
f 373/1/3 370/1/3 372/1/3
f 377/2/3 375/2/3 374/2/3
f 378/2/3 375/2/3 377/2/3
f 379/6/3 377/6/3 376/6/3
f 380/6/3 377/6/3 379/6/3
f 384/6/3 382/6/3 381/6/3
f 385/2/3 383/2/3 382/2/3
f 385/6/3 382/6/3 384/6/3
f 386/2/3 383/2/3 385/2/3
f 392/2/3 386/2/3 385/2/3
f 392/2/3 387/2/3 386/2/3
f 393/2/3 387/2/3 392/2/3
f 394/4/3 389/4/3 388/4/3
f 395/4/3 389/4/3 394/4/3
f 396/4/3 391/4/3 390/4/3
f 397/4/3 391/4/3 396/4/3
f 405/2/3 399/2/3 398/2/3
f 406/2/3 399/2/3 405/2/3
f 407/2/3 399/2/3 406/2/3
f 408/4/3 401/4/3 400/4/3
f 409/4/3 401/4/3 408/4/3
f 410/4/3 403/4/3 402/4/3
f 411/4/3 403/4/3 410/4/3
f 412/6/3 405/6/3 404/6/3
f 413/2/3 406/2/3 405/2/3
f 413/6/3 405/6/3 412/6/3
f 414/2/3 406/2/3 413/2/3
f 417/2/3 416/2/3 415/2/3
f 418/2/3 416/2/3 417/2/3
f 419/2/4 420/2/4 421/2/4
f 421/2/4 420/2/4 422/2/4
f 423/3/4 424/3/4 425/3/4
f 425/3/4 424/3/4 426/3/4
f 427/6/4 428/6/4 430/6/4
f 428/2/4 429/2/4 431/2/4
f 430/6/4 428/6/4 431/6/4
f 431/2/4 429/2/4 432/2/4
f 432/2/4 433/2/4 434/2/4
f 431/2/4 432/2/4 434/2/4
f 434/2/4 433/2/4 435/2/4
f 436/2/4 437/2/4 439/2/4
f 439/2/4 437/2/4 440/2/4
f 440/2/4 437/2/4 441/2/4
f 438/6/4 439/6/4 442/6/4
f 439/2/4 440/2/4 443/2/4
f 442/6/4 439/6/4 443/6/4
f 443/2/4 440/2/4 444/2/4
f 445/6/4 446/6/4 447/6/4
f 447/6/4 446/6/4 448/6/4
f 448/2/4 449/2/4 450/2/4
f 450/2/4 449/2/4 451/2/4
f 452/2/4 453/2/4 455/2/4
f 455/2/4 453/2/4 456/2/4
f 454/6/4 455/6/4 457/6/4
f 457/6/4 455/6/4 458/6/4
f 459/2/4 460/2/4 461/2/4
f 461/2/4 460/2/4 462/2/4
f 463/2/4 464/2/4 469/2/4
f 469/2/4 464/2/4 470/2/4
f 465/4/4 466/4/4 471/4/4
f 471/4/4 466/4/4 472/4/4
f 467/4/4 468/4/4 473/4/4
f 473/4/4 468/4/4 474/4/4
f 471/1/4 472/1/4 475/1/4
f 475/1/4 472/1/4 476/1/4
f 473/1/4 474/1/4 477/1/4
f 477/1/4 474/1/4 478/1/4
f 476/1/4 477/1/4 480/1/4
f 480/1/4 477/1/4 481/1/4
f 479/1/4 480/1/4 485/1/4
f 485/1/4 480/1/4 486/1/4
f 481/1/4 482/1/4 487/1/4
f 487/1/4 482/1/4 488/1/4
f 483/2/4 484/2/4 489/2/4
f 489/2/4 484/2/4 490/2/4
f 485/4/4 486/4/4 491/4/4
f 491/4/4 486/4/4 492/4/4
f 487/4/4 488/4/4 493/4/4
f 493/4/4 488/4/4 494/4/4
f 495/6/4 496/6/4 498/6/4
f 496/2/4 497/2/4 499/2/4
f 498/6/4 496/6/4 499/6/4
f 499/2/4 497/2/4 500/2/4
f 500/2/4 497/2/4 501/2/4
f 501/2/4 502/2/4 503/2/4
f 503/2/4 502/2/4 504/2/4
f 505/2/4 506/2/4 509/2/4
f 509/2/4 506/2/4 510/2/4
f 507/2/4 508/2/4 512/2/4
f 512/2/4 508/2/4 513/2/4
f 511/2/4 512/2/4 515/2/4
f 514/6/4 515/6/4 516/6/4
f 515/2/4 512/2/4 517/2/4
f 516/6/4 515/6/4 517/6/4
f 517/2/4 512/2/4 518/2/4
f 519/6/4 520/6/4 521/6/4
f 521/6/4 520/6/4 522/6/4
f 522/2/4 523/2/4 524/2/4
f 524/2/4 523/2/4 525/2/4
f 525/2/4 526/2/4 527/2/4
f 527/2/4 526/2/4 528/2/4
f 528/2/4 529/2/4 531/2/4
f 531/2/4 529/2/4 532/2/4
f 530/2/4 531/2/4 534/2/4
f 534/2/4 531/2/4 535/2/4
f 533/2/4 534/2/4 537/2/4
f 537/2/4 534/2/4 538/2/4
f 536/6/4 537/6/4 539/6/4
f 539/6/4 537/6/4 540/6/4
f 541/2/4 542/2/4 543/2/4
f 541/2/4 543/2/4 545/2/4
f 543/2/4 544/2/4 545/2/4
f 545/2/4 544/2/4 546/2/4
f 541/2/4 545/2/4 547/2/4
f 547/2/4 545/2/4 548/2/4
f 553/6/5 550/6/5 549/6/5
f 554/6/5 550/6/5 553/6/5
f 555/6/5 552/6/5 551/6/5
f 556/6/5 552/6/5 555/6/5
f 561/6/5 558/6/5 557/6/5
f 562/6/5 558/6/5 561/6/5
f 563/6/5 560/6/5 559/6/5
f 564/6/5 560/6/5 563/6/5
f 568/2/5 566/2/5 565/2/5
f 569/2/5 566/2/5 568/2/5
f 571/2/5 568/2/5 567/2/5
f 571/2/5 570/2/5 569/2/5
f 571/2/5 569/2/5 568/2/5
f 572/2/5 570/2/5 571/2/5
f 573/2/5 571/2/5 567/2/5
f 575/2/5 573/2/5 567/2/5
f 575/2/5 574/2/5 573/2/5
f 576/2/5 574/2/5 575/2/5
f 577/2/5 574/2/5 576/2/5
f 578/2/5 574/2/5 577/2/5
f 580/2/5 577/2/5 576/2/5
f 581/2/5 577/2/5 580/2/5
f 583/2/5 580/2/5 579/2/5
f 583/2/5 582/2/5 581/2/5
f 583/2/5 581/2/5 580/2/5
f 584/2/5 582/2/5 583/2/5
f 585/2/5 583/2/5 579/2/5
f 587/2/5 585/2/5 579/2/5
f 587/2/5 586/2/5 585/2/5
f 588/2/5 586/2/5 587/2/5
f 589/2/5 586/2/5 588/2/5
f 590/2/5 586/2/5 589/2/5
f 591/2/5 589/2/5 588/2/5
f 592/2/5 589/2/5 591/2/5
f 595/2/5 594/2/5 593/2/5
f 596/2/5 594/2/5 595/2/5
f 599/2/5 598/2/5 597/2/5
f 600/2/5 598/2/5 599/2/5
f 605/5/5 602/5/5 601/5/5
f 606/5/5 602/5/5 605/5/5
f 607/5/5 604/5/5 603/5/5
f 608/5/5 604/5/5 607/5/5
f 609/1/5 606/1/5 605/1/5
f 610/1/5 608/1/5 607/1/5
f 612/1/5 609/1/5 605/1/5
f 613/1/5 608/1/5 610/1/5
f 615/4/5 612/4/5 611/4/5
f 616/1/5 609/1/5 612/1/5
f 616/4/5 612/4/5 615/4/5
f 617/1/5 609/1/5 616/1/5
f 618/1/5 613/1/5 610/1/5
f 619/4/5 614/4/5 613/4/5
f 619/1/5 613/1/5 618/1/5
f 620/4/5 614/4/5 619/4/5
f 623/1/5 622/1/5 621/1/5
f 624/1/5 622/1/5 623/1/5
f 629/5/5 626/5/5 625/5/5
f 630/5/5 626/5/5 629/5/5
f 631/5/5 628/5/5 627/5/5
f 632/5/5 628/5/5 631/5/5
f 634/1/5 630/1/5 629/1/5
f 635/1/5 632/1/5 631/1/5
f 637/4/5 634/4/5 633/4/5
f 638/1/5 630/1/5 634/1/5
f 638/4/5 634/4/5 637/4/5
f 639/1/5 630/1/5 638/1/5
f 640/1/5 635/1/5 631/1/5
f 641/4/5 636/4/5 635/4/5
f 641/1/5 635/1/5 640/1/5
f 642/4/5 636/4/5 641/4/5
f 643/6/6 644/6/6 647/6/6
f 647/6/6 644/6/6 648/6/6
f 645/6/6 646/6/6 649/6/6
f 649/6/6 646/6/6 650/6/6
f 651/6/6 652/6/6 655/6/6
f 655/6/6 652/6/6 656/6/6
f 653/6/6 654/6/6 657/6/6
f 657/6/6 654/6/6 658/6/6
f 659/6/6 660/6/6 663/6/6
f 663/6/6 660/6/6 664/6/6
f 661/6/6 662/6/6 665/6/6
f 665/6/6 662/6/6 666/6/6
f 667/6/6 668/6/6 671/6/6
f 671/6/6 668/6/6 672/6/6
f 669/6/6 670/6/6 673/6/6
f 673/6/6 670/6/6 674/6/6
f 675/2/6 676/2/6 678/2/6
f 678/2/6 676/2/6 679/2/6
f 677/2/6 678/2/6 681/2/6
f 681/2/6 678/2/6 682/2/6
f 679/2/6 680/2/6 683/2/6
f 683/2/6 680/2/6 684/2/6
f 685/2/6 686/2/6 689/2/6
f 689/2/6 686/2/6 690/2/6
f 687/2/6 688/2/6 691/2/6
f 691/2/6 688/2/6 692/2/6
f 693/2/6 694/2/6 697/2/6
f 697/2/6 694/2/6 698/2/6
f 695/2/6 696/2/6 699/2/6
f 699/2/6 696/2/6 700/2/6
f 701/2/6 702/2/6 705/2/6
f 705/2/6 702/2/6 706/2/6
f 703/2/6 704/2/6 709/2/6
f 709/2/6 704/2/6 710/2/6
f 706/2/6 707/2/6 711/2/6
f 711/2/6 707/2/6 712/2/6
f 708/2/6 709/2/6 713/2/6
f 713/2/6 709/2/6 714/2/6
f 715/2/6 716/2/6 720/2/6
f 720/2/6 716/2/6 721/2/6
f 717/2/6 718/2/6 722/2/6
f 722/2/6 718/2/6 723/2/6
f 719/2/6 720/2/6 725/2/6
f 725/2/6 720/2/6 726/2/6
f 723/2/6 724/2/6 727/2/6
f 727/2/6 724/2/6 728/2/6
f 719/2/6 725/2/6 729/2/6
f 729/2/6 725/2/6 730/2/6
f 728/2/6 724/2/6 731/2/6
f 731/2/6 724/2/6 732/2/6
f 733/2/6 734/2/6 737/2/6
f 735/2/6 736/2/6 740/2/6
f 737/2/6 738/2/6 741/2/6
f 733/2/6 737/2/6 741/2/6
f 741/2/6 738/2/6 742/2/6
f 739/2/6 740/2/6 745/2/6
f 740/2/6 736/2/6 746/2/6
f 745/2/6 740/2/6 746/2/6
f 742/2/6 743/2/6 747/2/6
f 747/2/6 743/2/6 748/2/6
f 744/2/6 745/2/6 749/2/6
f 749/2/6 745/2/6 750/2/6
f 748/2/6 749/2/6 751/2/6
f 751/2/6 749/2/6 752/2/6
f 753/3/6 754/3/6 756/3/6
f 756/3/6 754/3/6 757/3/6
f 755/3/6 756/3/6 760/3/6
f 760/3/6 756/3/6 761/3/6
f 757/3/6 758/3/6 762/3/6
f 762/3/6 758/3/6 763/3/6
f 760/2/6 761/2/6 765/2/6
f 763/2/6 764/2/6 765/2/6
f 762/2/6 763/2/6 765/2/6
f 761/2/6 762/2/6 765/2/6
f 759/2/6 760/2/6 765/2/6
f 765/2/6 764/2/6 766/2/6
f 766/2/6 764/2/6 767/2/6
f 767/2/6 764/2/6 768/2/6
f 766/2/6 767/2/6 769/2/6
f 769/2/6 767/2/6 770/2/6
f 766/2/6 769/2/6 772/2/6
f 770/2/6 767/2/6 773/2/6
f 771/2/6 772/2/6 775/2/6
f 772/2/6 769/2/6 776/2/6
f 775/2/6 772/2/6 776/2/6
f 773/2/6 774/2/6 777/2/6
f 770/2/6 773/2/6 777/2/6
f 777/2/6 774/2/6 778/2/6
f 776/2/6 769/2/6 779/2/6
f 779/2/6 769/2/6 780/2/6
f 770/2/6 777/2/6 781/2/6
f 781/2/6 777/2/6 782/2/6
f 783/3/6 784/3/6 785/3/6
f 785/3/6 784/3/6 786/3/6
f 787/2/6 788/2/6 789/2/6
f 789/2/6 788/2/6 790/2/6
f 791/5/6 792/5/6 795/5/6
f 795/5/6 792/5/6 796/5/6
f 793/5/6 794/5/6 797/5/6
f 797/5/6 794/5/6 798/5/6
f 795/1/6 796/1/6 800/1/6
f 797/1/6 798/1/6 801/1/6
f 799/4/6 800/4/6 803/4/6
f 800/1/6 796/1/6 804/1/6
f 803/4/6 800/4/6 804/4/6
f 804/1/6 796/1/6 805/1/6
f 797/1/6 801/1/6 806/1/6
f 801/4/6 802/4/6 807/4/6
f 806/1/6 801/1/6 807/1/6
f 807/4/6 802/4/6 808/4/6
f 805/2/6 806/2/6 809/2/6
f 809/2/6 806/2/6 810/2/6
f 811/1/6 812/1/6 813/1/6
f 813/1/6 812/1/6 814/1/6
f 815/5/6 816/5/6 819/5/6
f 819/5/6 816/5/6 820/5/6
f 817/5/6 818/5/6 821/5/6
f 821/5/6 818/5/6 822/5/6
f 819/1/6 820/1/6 824/1/6
f 821/1/6 822/1/6 825/1/6
f 823/4/6 824/4/6 827/4/6
f 824/1/6 820/1/6 828/1/6
f 827/4/6 824/4/6 828/4/6
f 828/1/6 820/1/6 829/1/6
f 821/1/6 825/1/6 830/1/6
f 825/4/6 826/4/6 831/4/6
f 830/1/6 825/1/6 831/1/6
f 831/4/6 826/4/6 832/4/6
