# MagicaVoxel @ Ephtracy

# group
g boom2

# material
mtllib boom2.mtl
usemtl palette

# normals
vn -1 0 0
vn 1 0 0
vn 0 0 1
vn 0 0 -1
vn 0 -1 0
vn 0 1 0

# texcoords
vt 0.255859 0.5
vt 0.982422 0.5
vt 0.990234 0.5

# verts
v -6 17 1
v -6 17 -0
v -6 18 1
v -6 18 -0
v -4 17 2
v -4 17 1
v -4 18 2
v -4 18 1
v -4 18 -0
v -4 19 1
v -4 19 -0
v -3 17 3
v -3 17 2
v -3 17 1
v -3 17 -0
v -3 17 -1
v -3 18 3
v -3 18 2
v -3 18 1
v -3 18 -0
v -3 18 -1
v -5 17 1
v -5 17 -0
v -5 18 1
v -5 18 -0
v -3 17 2
v -3 17 1
v -3 18 2
v -3 18 1
v -3 18 -0
v -3 19 1
v -3 19 -0
v -2 17 3
v -2 17 2
v -2 17 1
v -2 17 -0
v -2 17 -1
v -2 18 3
v -2 18 2
v -2 18 1
v -2 18 -0
v -2 18 -1
v -3 17 3
v -3 18 3
v -2 17 3
v -2 18 3
v -4 17 2
v -4 18 2
v -3 17 2
v -3 18 2
v -6 17 1
v -6 18 1
v -5 17 1
v -5 18 1
v -4 18 1
v -4 19 1
v -3 17 1
v -3 18 1
v -3 19 1
v -2 17 1
v -2 18 1
v -3 17 2
v -3 18 2
v -2 17 2
v -2 18 2
v -4 17 1
v -4 18 1
v -3 17 1
v -3 18 1
v -6 17 -0
v -6 18 -0
v -5 17 -0
v -5 18 -0
v -4 18 -0
v -4 19 -0
v -3 18 -0
v -3 19 -0
v -3 17 -1
v -3 18 -1
v -2 17 -1
v -2 18 -1
v -3 17 3
v -2 17 3
v -4 17 2
v -3 17 2
v -2 17 2
v -6 17 1
v -5 17 1
v -4 17 1
v -3 17 1
v -2 17 1
v -6 17 -0
v -5 17 -0
v -3 17 -0
v -2 17 -0
v -3 17 -1
v -2 17 -1
v -4 18 1
v -3 18 1
v -4 18 -0
v -3 18 -0
v -3 18 3
v -2 18 3
v -4 18 2
v -3 18 2
v -2 18 2
v -6 18 1
v -5 18 1
v -4 18 1
v -3 18 1
v -2 18 1
v -6 18 -0
v -5 18 -0
v -3 18 -0
v -2 18 -0
v -3 18 -1
v -2 18 -1
v -4 19 1
v -3 19 1
v -4 19 -0
v -3 19 -0

# faces
f 3/3/1 2/3/1 1/3/1
f 4/3/1 2/3/1 3/3/1
f 7/3/1 6/3/1 5/3/1
f 8/3/1 6/3/1 7/3/1
f 10/3/1 9/3/1 8/3/1
f 11/3/1 9/3/1 10/3/1
f 17/2/1 13/2/1 12/2/1
f 18/2/1 13/2/1 17/2/1
f 19/1/1 15/1/1 14/1/1
f 20/2/1 16/2/1 15/2/1
f 20/1/1 15/1/1 19/1/1
f 21/2/1 16/2/1 20/2/1
f 22/3/2 23/3/2 24/3/2
f 24/3/2 23/3/2 25/3/2
f 26/3/2 27/3/2 28/3/2
f 28/3/2 27/3/2 29/3/2
f 29/3/2 30/3/2 31/3/2
f 31/3/2 30/3/2 32/3/2
f 33/2/2 34/2/2 38/2/2
f 38/2/2 34/2/2 39/2/2
f 35/1/2 36/1/2 40/1/2
f 36/2/2 37/2/2 41/2/2
f 40/1/2 36/1/2 41/1/2
f 41/2/2 37/2/2 42/2/2
f 45/2/3 44/2/3 43/2/3
f 46/2/3 44/2/3 45/2/3
f 49/3/3 48/3/3 47/3/3
f 50/3/3 48/3/3 49/3/3
f 53/3/3 52/3/3 51/3/3
f 54/3/3 52/3/3 53/3/3
f 58/3/3 56/3/3 55/3/3
f 59/3/3 56/3/3 58/3/3
f 60/1/3 58/1/3 57/1/3
f 61/1/3 58/1/3 60/1/3
f 62/2/4 63/2/4 64/2/4
f 64/2/4 63/2/4 65/2/4
f 66/3/4 67/3/4 68/3/4
f 68/3/4 67/3/4 69/3/4
f 70/3/4 71/3/4 72/3/4
f 72/3/4 71/3/4 73/3/4
f 74/3/4 75/3/4 76/3/4
f 76/3/4 75/3/4 77/3/4
f 78/2/4 79/2/4 80/2/4
f 80/2/4 79/2/4 81/2/4
f 85/2/5 83/2/5 82/2/5
f 86/2/5 83/2/5 85/2/5
f 89/3/5 85/3/5 84/3/5
f 90/3/5 85/3/5 89/3/5
f 92/3/5 88/3/5 87/3/5
f 93/3/5 88/3/5 92/3/5
f 94/1/5 91/1/5 90/1/5
f 95/1/5 91/1/5 94/1/5
f 96/2/5 95/2/5 94/2/5
f 97/2/5 95/2/5 96/2/5
f 100/3/5 99/3/5 98/3/5
f 101/3/5 99/3/5 100/3/5
f 102/2/6 103/2/6 105/2/6
f 105/2/6 103/2/6 106/2/6
f 104/3/6 105/3/6 109/3/6
f 109/3/6 105/3/6 110/3/6
f 107/3/6 108/3/6 112/3/6
f 112/3/6 108/3/6 113/3/6
f 110/1/6 111/1/6 114/1/6
f 114/1/6 111/1/6 115/1/6
f 114/2/6 115/2/6 116/2/6
f 116/2/6 115/2/6 117/2/6
f 118/3/6 119/3/6 120/3/6
f 120/3/6 119/3/6 121/3/6
