# MagicaVoxel @ Ephtracy

# group
g antenne

# material
mtllib antenne.mtl
usemtl palette

# normals
vn -1 0 0
vn 1 0 0
vn 0 0 1
vn 0 0 -1
vn 0 -1 0
vn 0 1 0

# texcoords
vt 0.853516 0.5
vt 0.982422 0.5
vt 0.986328 0.5

# verts
v -1 15 -0
v -1 15 -1
v -1 16 -0
v -1 16 -1
v -1 23 -0
v -1 23 -1
v -1 26 -0
v -1 26 -1
v 0 15 1
v 0 15 -0
v 0 15 -1
v 0 15 -2
v 0 16 1
v 0 16 -0
v 0 16 -1
v 0 16 -2
v 0 23 1
v 0 23 -0
v 0 23 -1
v 0 23 -2
v 0 26 1
v 0 26 -0
v 0 26 -1
v 0 26 -2
v 0 30 -0
v 0 30 -1
v 0 31 -0
v 0 31 -1
v 1 15 1
v 1 15 -0
v 1 15 -1
v 1 15 -2
v 1 16 1
v 1 16 -0
v 1 16 -1
v 1 16 -2
v 1 23 1
v 1 23 -0
v 1 23 -1
v 1 23 -2
v 1 26 1
v 1 26 -0
v 1 26 -1
v 1 26 -2
v 1 30 -0
v 1 30 -1
v 1 31 -0
v 1 31 -1
v 2 15 -0
v 2 15 -1
v 2 16 -0
v 2 16 -1
v 2 23 -0
v 2 23 -1
v 2 26 -0
v 2 26 -1
v 0 15 1
v 0 16 1
v 0 23 1
v 0 26 1
v 1 15 1
v 1 16 1
v 1 23 1
v 1 26 1
v -1 15 -0
v -1 16 -0
v -1 23 -0
v -1 26 -0
v 0 15 -0
v 0 16 -0
v 0 23 -0
v 0 26 -0
v 0 30 -0
v 0 31 -0
v 1 15 -0
v 1 16 -0
v 1 23 -0
v 1 26 -0
v 1 30 -0
v 1 31 -0
v 2 15 -0
v 2 16 -0
v 2 23 -0
v 2 26 -0
v -1 15 -1
v -1 16 -1
v -1 23 -1
v -1 26 -1
v 0 15 -1
v 0 16 -1
v 0 23 -1
v 0 26 -1
v 0 30 -1
v 0 31 -1
v 1 15 -1
v 1 16 -1
v 1 23 -1
v 1 26 -1
v 1 30 -1
v 1 31 -1
v 2 15 -1
v 2 16 -1
v 2 23 -1
v 2 26 -1
v 0 15 -2
v 0 16 -2
v 0 23 -2
v 0 26 -2
v 1 15 -2
v 1 16 -2
v 1 23 -2
v 1 26 -2
v 0 15 1
v 1 15 1
v -1 15 -0
v 0 15 -0
v 1 15 -0
v 2 15 -0
v -1 15 -1
v 0 15 -1
v 1 15 -1
v 2 15 -1
v 0 15 -2
v 1 15 -2
v 0 23 1
v 1 23 1
v -1 23 -0
v 0 23 -0
v 1 23 -0
v 2 23 -0
v -1 23 -1
v 0 23 -1
v 1 23 -1
v 2 23 -1
v 0 23 -2
v 1 23 -2
v 0 16 1
v 1 16 1
v -1 16 -0
v 0 16 -0
v 1 16 -0
v 2 16 -0
v -1 16 -1
v 0 16 -1
v 1 16 -1
v 2 16 -1
v 0 16 -2
v 1 16 -2
v 0 26 1
v 1 26 1
v -1 26 -0
v 0 26 -0
v 1 26 -0
v 2 26 -0
v -1 26 -1
v 0 26 -1
v 1 26 -1
v 2 26 -1
v 0 26 -2
v 1 26 -2
v 0 31 -0
v 1 31 -0
v 0 31 -1
v 1 31 -1

# faces
f 3/2/1 2/2/1 1/2/1
f 4/2/1 2/2/1 3/2/1
f 7/3/1 6/3/1 5/3/1
f 8/3/1 6/3/1 7/3/1
f 13/2/1 10/2/1 9/2/1
f 14/2/1 10/2/1 13/2/1
f 15/2/1 12/2/1 11/2/1
f 16/2/1 12/2/1 15/2/1
f 18/2/1 15/2/1 14/2/1
f 19/2/1 15/2/1 18/2/1
f 21/3/1 18/3/1 17/3/1
f 22/3/1 18/3/1 21/3/1
f 23/3/1 20/3/1 19/3/1
f 24/3/1 20/3/1 23/3/1
f 25/3/1 23/3/1 22/3/1
f 26/3/1 23/3/1 25/3/1
f 27/1/1 26/1/1 25/1/1
f 28/1/1 26/1/1 27/1/1
f 29/2/2 30/2/2 33/2/2
f 33/2/2 30/2/2 34/2/2
f 31/2/2 32/2/2 35/2/2
f 35/2/2 32/2/2 36/2/2
f 34/2/2 35/2/2 38/2/2
f 38/2/2 35/2/2 39/2/2
f 37/3/2 38/3/2 41/3/2
f 41/3/2 38/3/2 42/3/2
f 39/3/2 40/3/2 43/3/2
f 43/3/2 40/3/2 44/3/2
f 42/3/2 43/3/2 45/3/2
f 45/3/2 43/3/2 46/3/2
f 45/1/2 46/1/2 47/1/2
f 47/1/2 46/1/2 48/1/2
f 49/2/2 50/2/2 51/2/2
f 51/2/2 50/2/2 52/2/2
f 53/3/2 54/3/2 55/3/2
f 55/3/2 54/3/2 56/3/2
f 61/2/3 58/2/3 57/2/3
f 62/2/3 58/2/3 61/2/3
f 63/3/3 60/3/3 59/3/3
f 64/3/3 60/3/3 63/3/3
f 69/2/3 66/2/3 65/2/3
f 70/2/3 66/2/3 69/2/3
f 71/3/3 68/3/3 67/3/3
f 72/3/3 68/3/3 71/3/3
f 76/2/3 71/2/3 70/2/3
f 77/2/3 71/2/3 76/2/3
f 78/3/3 73/3/3 72/3/3
f 79/1/3 74/1/3 73/1/3
f 79/3/3 73/3/3 78/3/3
f 80/1/3 74/1/3 79/1/3
f 81/2/3 76/2/3 75/2/3
f 82/2/3 76/2/3 81/2/3
f 83/3/3 78/3/3 77/3/3
f 84/3/3 78/3/3 83/3/3
f 85/2/4 86/2/4 89/2/4
f 89/2/4 86/2/4 90/2/4
f 87/3/4 88/3/4 91/3/4
f 91/3/4 88/3/4 92/3/4
f 90/2/4 91/2/4 96/2/4
f 96/2/4 91/2/4 97/2/4
f 92/3/4 93/3/4 98/3/4
f 93/1/4 94/1/4 99/1/4
f 98/3/4 93/3/4 99/3/4
f 99/1/4 94/1/4 100/1/4
f 95/2/4 96/2/4 101/2/4
f 101/2/4 96/2/4 102/2/4
f 97/3/4 98/3/4 103/3/4
f 103/3/4 98/3/4 104/3/4
f 105/2/4 106/2/4 109/2/4
f 109/2/4 106/2/4 110/2/4
f 107/3/4 108/3/4 111/3/4
f 111/3/4 108/3/4 112/3/4
f 116/2/5 114/2/5 113/2/5
f 117/2/5 114/2/5 116/2/5
f 119/2/5 116/2/5 115/2/5
f 119/2/5 118/2/5 117/2/5
f 119/2/5 117/2/5 116/2/5
f 120/2/5 118/2/5 119/2/5
f 121/2/5 118/2/5 120/2/5
f 122/2/5 118/2/5 121/2/5
f 123/2/5 121/2/5 120/2/5
f 124/2/5 121/2/5 123/2/5
f 128/3/5 126/3/5 125/3/5
f 129/3/5 126/3/5 128/3/5
f 131/3/5 128/3/5 127/3/5
f 132/3/5 128/3/5 131/3/5
f 133/3/5 130/3/5 129/3/5
f 134/3/5 130/3/5 133/3/5
f 135/3/5 133/3/5 132/3/5
f 136/3/5 133/3/5 135/3/5
f 137/2/6 138/2/6 140/2/6
f 140/2/6 138/2/6 141/2/6
f 139/2/6 140/2/6 143/2/6
f 143/2/6 140/2/6 144/2/6
f 141/2/6 142/2/6 145/2/6
f 145/2/6 142/2/6 146/2/6
f 144/2/6 145/2/6 147/2/6
f 147/2/6 145/2/6 148/2/6
f 149/3/6 150/3/6 152/3/6
f 152/3/6 150/3/6 153/3/6
f 151/3/6 152/3/6 155/3/6
f 155/3/6 152/3/6 156/3/6
f 153/3/6 154/3/6 157/3/6
f 157/3/6 154/3/6 158/3/6
f 156/3/6 157/3/6 159/3/6
f 159/3/6 157/3/6 160/3/6
f 161/1/6 162/1/6 163/1/6
f 163/1/6 162/1/6 164/1/6
