# MagicaVoxel @ Ephtracy

# group
g boom

# material
mtllib boom.mtl
usemtl palette

# normals
vn -1 0 0
vn 1 0 0
vn 0 0 1
vn 0 0 -1
vn 0 -1 0
vn 0 1 0

# texcoords
vt 0.255859 0.5
vt 0.982422 0.5
vt 0.990234 0.5

# verts
v -8 17 1
v -8 17 -0
v -8 18 1
v -8 18 -0
v -6 16 3
v -6 16 2
v -6 17 3
v -6 17 2
v -6 17 1
v -6 17 -0
v -6 17 -1
v -6 17 -2
v -6 18 1
v -6 18 -0
v -6 18 -1
v -6 18 -2
v -6 19 2
v -6 19 1
v -6 19 -0
v -6 20 2
v -6 20 1
v -5 15 -0
v -5 15 -1
v -5 16 1
v -5 16 -0
v -5 16 -1
v -5 17 2
v -5 17 1
v -5 17 -0
v -5 18 2
v -5 18 1
v -4 14 1
v -4 14 -0
v -4 15 1
v -4 15 -0
v -4 16 4
v -4 16 3
v -4 16 2
v -4 16 1
v -4 16 -1
v -4 16 -2
v -4 17 4
v -4 17 3
v -4 17 2
v -4 17 1
v -4 17 -1
v -4 17 -2
v -4 18 1
v -4 18 -0
v -4 18 -1
v -4 18 -2
v -4 19 1
v -4 19 -0
v -4 19 -1
v -4 19 -2
v -4 19 -3
v -4 19 -4
v -4 20 -3
v -4 20 -4
v -3 15 2
v -3 15 1
v -3 15 -0
v -3 15 -1
v -3 16 2
v -3 16 1
v -3 16 -0
v -3 16 -1
v -3 17 2
v -3 17 1
v -3 17 -0
v -3 17 -1
v -3 18 3
v -3 18 2
v -3 18 1
v -3 18 -0
v -3 18 -1
v -3 19 3
v -3 19 2
v -3 19 -0
v -3 19 -1
v -2 20 -2
v -2 20 -3
v -2 21 -2
v -2 21 -3
v -1 16 3
v -1 16 2
v -1 16 1
v -1 16 -0
v -1 17 3
v -1 17 2
v -1 17 1
v -1 17 -0
v -1 18 -2
v -1 18 -3
v -1 19 -2
v -1 19 -3
v 0 17 2
v 0 17 1
v 0 18 2
v 0 18 1
v 0 18 -0
v 0 18 -1
v 0 19 -0
v 0 19 -1
v -7 17 1
v -7 17 -0
v -7 18 1
v -7 18 -0
v -5 16 3
v -5 16 2
v -5 17 3
v -5 17 2
v -5 17 -1
v -5 17 -2
v -5 18 1
v -5 18 -0
v -5 18 -1
v -5 18 -2
v -5 19 2
v -5 19 1
v -5 19 -0
v -5 20 2
v -5 20 1
v -4 15 -0
v -4 15 -1
v -4 16 1
v -4 16 -0
v -4 16 -1
v -4 17 2
v -4 17 1
v -4 17 -0
v -4 18 2
v -4 18 1
v -3 14 1
v -3 14 -0
v -3 15 1
v -3 15 -0
v -3 16 4
v -3 16 3
v -3 16 2
v -3 16 1
v -3 16 -1
v -3 16 -2
v -3 17 4
v -3 17 3
v -3 17 2
v -3 17 1
v -3 17 -0
v -3 17 -1
v -3 17 -2
v -3 18 1
v -3 18 -0
v -3 18 -1
v -3 18 -2
v -3 19 1
v -3 19 -0
v -3 19 -1
v -3 19 -2
v -3 19 -3
v -3 19 -4
v -3 20 -3
v -3 20 -4
v -2 15 2
v -2 15 1
v -2 15 -0
v -2 15 -1
v -2 16 2
v -2 16 1
v -2 16 -0
v -2 16 -1
v -2 17 2
v -2 17 1
v -2 17 -0
v -2 18 3
v -2 18 2
v -2 18 1
v -2 18 -0
v -2 18 -1
v -2 19 3
v -2 19 2
v -2 19 -0
v -2 19 -1
v -1 17 -0
v -1 17 -1
v -1 18 -0
v -1 18 -1
v -1 20 -2
v -1 20 -3
v -1 21 -2
v -1 21 -3
v 0 16 3
v 0 16 2
v 0 16 1
v 0 16 -0
v 0 17 3
v 0 17 2
v 0 17 1
v 0 17 -0
v 0 18 -2
v 0 18 -3
v 0 19 -2
v 0 19 -3
v 1 17 2
v 1 17 1
v 1 18 2
v 1 18 1
v 1 18 -0
v 1 18 -1
v 1 19 -0
v 1 19 -1
v -4 16 4
v -4 17 4
v -3 16 4
v -3 17 4
v -6 16 3
v -6 17 3
v -5 16 3
v -5 17 3
v -3 18 3
v -3 19 3
v -2 18 3
v -2 19 3
v -1 16 3
v -1 17 3
v 0 16 3
v 0 17 3
v -6 19 2
v -6 20 2
v -5 17 2
v -5 18 2
v -5 19 2
v -5 20 2
v -4 16 2
v -4 17 2
v -4 18 2
v -3 15 2
v -3 16 2
v -3 17 2
v -3 18 2
v -2 15 2
v -2 16 2
v -2 17 2
v -2 18 2
v 0 17 2
v 0 18 2
v 1 17 2
v 1 18 2
v -8 17 1
v -8 18 1
v -7 17 1
v -7 18 1
v -6 17 1
v -6 18 1
v -6 19 1
v -5 16 1
v -5 17 1
v -5 18 1
v -5 19 1
v -4 14 1
v -4 15 1
v -4 16 1
v -4 17 1
v -4 18 1
v -4 19 1
v -3 14 1
v -3 15 1
v -3 16 1
v -3 17 1
v -3 18 1
v -3 19 1
v -2 16 1
v -2 17 1
v -1 16 1
v -1 17 1
v 0 16 1
v 0 17 1
v -5 15 -0
v -5 16 -0
v -4 15 -0
v -4 16 -0
v -3 15 -0
v -3 16 -0
v -3 17 -0
v -3 18 -0
v -3 19 -0
v -2 15 -0
v -2 16 -0
v -2 17 -0
v -2 18 -0
v -2 19 -0
v -1 17 -0
v -1 18 -0
v 0 18 -0
v 0 19 -0
v 1 18 -0
v 1 19 -0
v -6 17 -1
v -6 18 -1
v -5 17 -1
v -5 18 -1
v -4 16 -1
v -4 17 -1
v -4 18 -1
v -4 19 -1
v -3 16 -1
v -3 17 -1
v -3 18 -1
v -3 19 -1
v -2 20 -2
v -2 21 -2
v -1 18 -2
v -1 19 -2
v -1 20 -2
v -1 21 -2
v 0 18 -2
v 0 19 -2
v -4 19 -3
v -4 20 -3
v -3 19 -3
v -3 20 -3
v -4 16 3
v -4 17 3
v -3 16 3
v -3 17 3
v -6 16 2
v -6 17 2
v -5 16 2
v -5 17 2
v -3 18 2
v -3 19 2
v -2 18 2
v -2 19 2
v -1 16 2
v -1 17 2
v 0 16 2
v 0 17 2
v -6 19 1
v -6 20 1
v -5 19 1
v -5 20 1
v -4 16 1
v -4 17 1
v -3 15 1
v -3 16 1
v -3 17 1
v -3 18 1
v -2 15 1
v -2 16 1
v -2 17 1
v -2 18 1
v 0 17 1
v 0 18 1
v 1 17 1
v 1 18 1
v -8 17 -0
v -8 18 -0
v -7 17 -0
v -7 18 -0
v -6 17 -0
v -6 18 -0
v -6 19 -0
v -5 16 -0
v -5 17 -0
v -5 18 -0
v -5 19 -0
v -4 14 -0
v -4 15 -0
v -4 16 -0
v -4 17 -0
v -4 18 -0
v -4 19 -0
v -3 14 -0
v -3 15 -0
v -3 16 -0
v -3 17 -0
v -3 18 -0
v -3 19 -0
v -2 16 -0
v -2 17 -0
v -1 16 -0
v -1 17 -0
v 0 16 -0
v 0 17 -0
v -5 15 -1
v -5 16 -1
v -4 15 -1
v -4 16 -1
v -3 15 -1
v -3 16 -1
v -3 17 -1
v -3 18 -1
v -3 19 -1
v -2 15 -1
v -2 16 -1
v -2 18 -1
v -2 19 -1
v -1 17 -1
v -1 18 -1
v 0 18 -1
v 0 19 -1
v 1 18 -1
v 1 19 -1
v -6 17 -2
v -6 18 -2
v -5 17 -2
v -5 18 -2
v -4 16 -2
v -4 17 -2
v -4 18 -2
v -4 19 -2
v -3 16 -2
v -3 17 -2
v -3 18 -2
v -3 19 -2
v -2 20 -3
v -2 21 -3
v -1 18 -3
v -1 19 -3
v -1 20 -3
v -1 21 -3
v 0 18 -3
v 0 19 -3
v -4 19 -4
v -4 20 -4
v -3 19 -4
v -3 20 -4
v -4 14 1
v -3 14 1
v -4 14 -0
v -3 14 -0
v -3 15 2
v -2 15 2
v -3 15 1
v -2 15 1
v -5 15 -0
v -4 15 -0
v -3 15 -0
v -2 15 -0
v -5 15 -1
v -4 15 -1
v -3 15 -1
v -2 15 -1
v -4 16 4
v -3 16 4
v -6 16 3
v -5 16 3
v -4 16 3
v -3 16 3
v -1 16 3
v 0 16 3
v -6 16 2
v -5 16 2
v -4 16 2
v -3 16 2
v -1 16 2
v 0 16 2
v -5 16 1
v -4 16 1
v -3 16 1
v -2 16 1
v -1 16 1
v 0 16 1
v -5 16 -0
v -4 16 -0
v -3 16 -0
v -2 16 -0
v -1 16 -0
v 0 16 -0
v -4 16 -1
v -3 16 -1
v -4 16 -2
v -3 16 -2
v -5 17 2
v -4 17 2
v -3 17 2
v -2 17 2
v 0 17 2
v 1 17 2
v -8 17 1
v -7 17 1
v -6 17 1
v -5 17 1
v -4 17 1
v -3 17 1
v -2 17 1
v 0 17 1
v 1 17 1
v -8 17 -0
v -7 17 -0
v -6 17 -0
v -5 17 -0
v -4 17 -0
v -3 17 -0
v -2 17 -0
v -1 17 -0
v -6 17 -1
v -5 17 -1
v -3 17 -1
v -1 17 -1
v -6 17 -2
v -5 17 -2
v -3 18 3
v -2 18 3
v -3 18 2
v -2 18 2
v 0 18 -0
v 1 18 -0
v -4 18 -1
v -3 18 -1
v 0 18 -1
v 1 18 -1
v -4 18 -2
v -3 18 -2
v -1 18 -2
v 0 18 -2
v -1 18 -3
v 0 18 -3
v -6 19 2
v -5 19 2
v -6 19 1
v -5 19 1
v -4 19 -3
v -3 19 -3
v -4 19 -4
v -3 19 -4
v -2 20 -2
v -1 20 -2
v -2 20 -3
v -1 20 -3
v -4 15 1
v -3 15 1
v -4 15 -0
v -3 15 -0
v -3 16 2
v -2 16 2
v -3 16 1
v -2 16 1
v -5 16 -0
v -4 16 -0
v -3 16 -0
v -2 16 -0
v -5 16 -1
v -4 16 -1
v -3 16 -1
v -2 16 -1
v -4 17 4
v -3 17 4
v -6 17 3
v -5 17 3
v -4 17 3
v -3 17 3
v -1 17 3
v 0 17 3
v -6 17 2
v -5 17 2
v -4 17 2
v -3 17 2
v -1 17 2
v 0 17 2
v -4 17 1
v -3 17 1
v -2 17 1
v -1 17 1
v 0 17 1
v -3 17 -0
v -2 17 -0
v -1 17 -0
v 0 17 -0
v -4 17 -1
v -3 17 -1
v -4 17 -2
v -3 17 -2
v -5 18 2
v -4 18 2
v -3 18 2
v -2 18 2
v 0 18 2
v 1 18 2
v -8 18 1
v -7 18 1
v -5 18 1
v -4 18 1
v -3 18 1
v -2 18 1
v 0 18 1
v 1 18 1
v -8 18 -0
v -7 18 -0
v -5 18 -0
v -4 18 -0
v -2 18 -0
v -1 18 -0
v -6 18 -1
v -5 18 -1
v -2 18 -1
v -1 18 -1
v -6 18 -2
v -5 18 -2
v -3 19 3
v -2 19 3
v -3 19 2
v -2 19 2
v -6 19 1
v -5 19 1
v -4 19 1
v -3 19 1
v -6 19 -0
v -5 19 -0
v -4 19 -0
v -3 19 -0
v -2 19 -0
v 0 19 -0
v 1 19 -0
v -4 19 -1
v -3 19 -1
v -2 19 -1
v 0 19 -1
v 1 19 -1
v -4 19 -2
v -3 19 -2
v -1 19 -2
v 0 19 -2
v -1 19 -3
v 0 19 -3
v -6 20 2
v -5 20 2
v -6 20 1
v -5 20 1
v -4 20 -3
v -3 20 -3
v -4 20 -4
v -3 20 -4
v -2 21 -2
v -1 21 -2
v -2 21 -3
v -1 21 -3

# faces
f 3/2/1 2/2/1 1/2/1
f 4/2/1 2/2/1 3/2/1
f 7/1/1 6/1/1 5/1/1
f 8/1/1 6/1/1 7/1/1
f 13/3/1 10/3/1 9/3/1
f 14/3/1 10/3/1 13/3/1
f 15/2/1 12/2/1 11/2/1
f 16/2/1 12/2/1 15/2/1
f 18/1/1 14/1/1 13/1/1
f 19/1/1 14/1/1 18/1/1
f 20/2/1 18/2/1 17/2/1
f 21/2/1 18/2/1 20/2/1
f 25/3/1 23/3/1 22/3/1
f 26/3/1 23/3/1 25/3/1
f 28/1/1 25/1/1 24/1/1
f 29/1/1 25/1/1 28/1/1
f 30/3/1 28/3/1 27/3/1
f 31/3/1 28/3/1 30/3/1
f 34/2/1 33/2/1 32/2/1
f 35/2/1 33/2/1 34/2/1
f 42/3/1 37/3/1 36/3/1
f 43/3/1 37/3/1 42/3/1
f 44/1/1 39/1/1 38/1/1
f 45/1/1 39/1/1 44/1/1
f 46/1/1 41/1/1 40/1/1
f 47/1/1 41/1/1 46/1/1
f 52/3/1 49/3/1 48/3/1
f 53/3/1 49/3/1 52/3/1
f 54/2/1 51/2/1 50/2/1
f 55/2/1 51/2/1 54/2/1
f 58/1/1 57/1/1 56/1/1
f 59/1/1 57/1/1 58/1/1
f 64/2/1 61/2/1 60/2/1
f 65/2/1 61/2/1 64/2/1
f 66/2/1 63/2/1 62/2/1
f 67/2/1 63/2/1 66/2/1
f 69/1/1 66/1/1 65/1/1
f 70/1/1 66/1/1 69/1/1
f 73/2/1 69/2/1 68/2/1
f 74/2/1 69/2/1 73/2/1
f 75/3/1 71/3/1 70/3/1
f 76/3/1 71/3/1 75/3/1
f 77/1/1 73/1/1 72/1/1
f 78/1/1 73/1/1 77/1/1
f 79/2/1 76/2/1 75/2/1
f 80/2/1 76/2/1 79/2/1
f 83/3/1 82/3/1 81/3/1
f 84/3/1 82/3/1 83/3/1
f 89/1/1 86/1/1 85/1/1
f 90/1/1 86/1/1 89/1/1
f 91/2/1 88/2/1 87/2/1
f 92/2/1 88/2/1 91/2/1
f 95/3/1 94/3/1 93/3/1
f 96/3/1 94/3/1 95/3/1
f 99/2/1 98/2/1 97/2/1
f 100/2/1 98/2/1 99/2/1
f 103/3/1 102/3/1 101/3/1
f 104/3/1 102/3/1 103/3/1
f 105/2/2 106/2/2 107/2/2
f 107/2/2 106/2/2 108/2/2
f 109/1/2 110/1/2 111/1/2
f 111/1/2 110/1/2 112/1/2
f 113/2/2 114/2/2 117/2/2
f 117/2/2 114/2/2 118/2/2
f 115/1/2 116/1/2 120/1/2
f 120/1/2 116/1/2 121/1/2
f 119/2/2 120/2/2 122/2/2
f 122/2/2 120/2/2 123/2/2
f 124/3/2 125/3/2 127/3/2
f 127/3/2 125/3/2 128/3/2
f 126/1/2 127/1/2 130/1/2
f 130/1/2 127/1/2 131/1/2
f 129/3/2 130/3/2 132/3/2
f 132/3/2 130/3/2 133/3/2
f 134/2/2 135/2/2 136/2/2
f 136/2/2 135/2/2 137/2/2
f 138/3/2 139/3/2 144/3/2
f 144/3/2 139/3/2 145/3/2
f 140/1/2 141/1/2 146/1/2
f 146/1/2 141/1/2 147/1/2
f 142/1/2 143/1/2 149/1/2
f 149/1/2 143/1/2 150/1/2
f 147/2/2 148/2/2 151/2/2
f 151/2/2 148/2/2 152/2/2
f 151/3/2 152/3/2 155/3/2
f 155/3/2 152/3/2 156/3/2
f 153/2/2 154/2/2 157/2/2
f 157/2/2 154/2/2 158/2/2
f 159/1/2 160/1/2 161/1/2
f 161/1/2 160/1/2 162/1/2
f 163/2/2 164/2/2 167/2/2
f 167/2/2 164/2/2 168/2/2
f 165/2/2 166/2/2 169/2/2
f 169/2/2 166/2/2 170/2/2
f 168/1/2 169/1/2 172/1/2
f 172/1/2 169/1/2 173/1/2
f 171/2/2 172/2/2 175/2/2
f 175/2/2 172/2/2 176/2/2
f 174/1/2 175/1/2 179/1/2
f 179/1/2 175/1/2 180/1/2
f 177/2/2 178/2/2 181/2/2
f 181/2/2 178/2/2 182/2/2
f 183/3/2 184/3/2 185/3/2
f 185/3/2 184/3/2 186/3/2
f 187/3/2 188/3/2 189/3/2
f 189/3/2 188/3/2 190/3/2
f 191/1/2 192/1/2 195/1/2
f 195/1/2 192/1/2 196/1/2
f 193/2/2 194/2/2 197/2/2
f 197/2/2 194/2/2 198/2/2
f 199/3/2 200/3/2 201/3/2
f 201/3/2 200/3/2 202/3/2
f 203/2/2 204/2/2 205/2/2
f 205/2/2 204/2/2 206/2/2
f 207/3/2 208/3/2 209/3/2
f 209/3/2 208/3/2 210/3/2
f 213/3/3 212/3/3 211/3/3
f 214/3/3 212/3/3 213/3/3
f 217/1/3 216/1/3 215/1/3
f 218/1/3 216/1/3 217/1/3
f 221/1/3 220/1/3 219/1/3
f 222/1/3 220/1/3 221/1/3
f 225/1/3 224/1/3 223/1/3
f 226/1/3 224/1/3 225/1/3
f 231/2/3 228/2/3 227/2/3
f 232/2/3 228/2/3 231/2/3
f 234/3/3 230/3/3 229/3/3
f 235/3/3 230/3/3 234/3/3
f 237/1/3 234/1/3 233/1/3
f 238/1/3 234/1/3 237/1/3
f 240/2/3 237/2/3 236/2/3
f 241/2/3 237/2/3 240/2/3
f 242/2/3 239/2/3 238/2/3
f 243/2/3 239/2/3 242/2/3
f 246/2/3 245/2/3 244/2/3
f 247/2/3 245/2/3 246/2/3
f 250/2/3 249/2/3 248/2/3
f 251/2/3 249/2/3 250/2/3
f 256/3/3 253/3/3 252/3/3
f 257/1/3 254/1/3 253/1/3
f 257/3/3 253/3/3 256/3/3
f 258/1/3 254/1/3 257/1/3
f 261/1/3 256/1/3 255/1/3
f 262/1/3 256/1/3 261/1/3
f 265/2/3 260/2/3 259/2/3
f 266/2/3 260/2/3 265/2/3
f 268/2/3 263/2/3 262/2/3
f 269/3/3 264/3/3 263/3/3
f 269/2/3 263/2/3 268/2/3
f 270/3/3 264/3/3 269/3/3
f 271/1/3 268/1/3 267/1/3
f 272/1/3 268/1/3 271/1/3
f 275/2/3 274/2/3 273/2/3
f 276/2/3 274/2/3 275/2/3
f 279/3/3 278/3/3 277/3/3
f 280/3/3 278/3/3 279/3/3
f 286/2/3 282/2/3 281/2/3
f 287/2/3 282/2/3 286/2/3
f 288/3/3 284/3/3 283/3/3
f 289/2/3 285/2/3 284/2/3
f 289/3/3 284/3/3 288/3/3
f 290/2/3 285/2/3 289/2/3
f 291/3/3 289/3/3 288/3/3
f 292/3/3 289/3/3 291/3/3
f 295/3/3 294/3/3 293/3/3
f 296/3/3 294/3/3 295/3/3
f 299/2/3 298/2/3 297/2/3
f 300/2/3 298/2/3 299/2/3
f 305/1/3 302/1/3 301/1/3
f 306/1/3 302/1/3 305/1/3
f 307/2/3 304/2/3 303/2/3
f 308/2/3 304/2/3 307/2/3
f 313/3/3 310/3/3 309/3/3
f 314/3/3 310/3/3 313/3/3
f 315/3/3 312/3/3 311/3/3
f 316/3/3 312/3/3 315/3/3
f 319/1/3 318/1/3 317/1/3
f 320/1/3 318/1/3 319/1/3
f 321/3/4 322/3/4 323/3/4
f 323/3/4 322/3/4 324/3/4
f 325/1/4 326/1/4 327/1/4
f 327/1/4 326/1/4 328/1/4
f 329/1/4 330/1/4 331/1/4
f 331/1/4 330/1/4 332/1/4
f 333/1/4 334/1/4 335/1/4
f 335/1/4 334/1/4 336/1/4
f 337/2/4 338/2/4 339/2/4
f 339/2/4 338/2/4 340/2/4
f 341/1/4 342/1/4 344/1/4
f 344/1/4 342/1/4 345/1/4
f 343/2/4 344/2/4 347/2/4
f 347/2/4 344/2/4 348/2/4
f 345/2/4 346/2/4 349/2/4
f 349/2/4 346/2/4 350/2/4
f 351/2/4 352/2/4 353/2/4
f 353/2/4 352/2/4 354/2/4
f 355/2/4 356/2/4 357/2/4
f 357/2/4 356/2/4 358/2/4
f 359/3/4 360/3/4 363/3/4
f 360/1/4 361/1/4 364/1/4
f 363/3/4 360/3/4 364/3/4
f 364/1/4 361/1/4 365/1/4
f 362/1/4 363/1/4 368/1/4
f 363/2/4 364/2/4 369/2/4
f 368/1/4 363/1/4 369/1/4
f 369/2/4 364/2/4 370/2/4
f 366/2/4 367/2/4 372/2/4
f 372/2/4 367/2/4 373/2/4
f 369/2/4 370/2/4 375/2/4
f 370/3/4 371/3/4 376/3/4
f 375/2/4 370/2/4 376/2/4
f 376/3/4 371/3/4 377/3/4
f 374/1/4 375/1/4 378/1/4
f 378/1/4 375/1/4 379/1/4
f 380/2/4 381/2/4 382/2/4
f 382/2/4 381/2/4 383/2/4
f 384/3/4 385/3/4 386/3/4
f 386/3/4 385/3/4 387/3/4
f 388/2/4 389/2/4 393/2/4
f 393/2/4 389/2/4 394/2/4
f 391/2/4 392/2/4 395/2/4
f 390/3/4 391/3/4 395/3/4
f 395/2/4 392/2/4 396/2/4
f 390/3/4 395/3/4 397/3/4
f 397/3/4 395/3/4 398/3/4
f 399/3/4 400/3/4 401/3/4
f 401/3/4 400/3/4 402/3/4
f 403/2/4 404/2/4 405/2/4
f 405/2/4 404/2/4 406/2/4
f 407/1/4 408/1/4 411/1/4
f 411/1/4 408/1/4 412/1/4
f 409/2/4 410/2/4 413/2/4
f 413/2/4 410/2/4 414/2/4
f 415/3/4 416/3/4 419/3/4
f 419/3/4 416/3/4 420/3/4
f 417/3/4 418/3/4 421/3/4
f 421/3/4 418/3/4 422/3/4
f 423/1/4 424/1/4 425/1/4
f 425/1/4 424/1/4 426/1/4
f 429/2/5 428/2/5 427/2/5
f 430/2/5 428/2/5 429/2/5
f 433/2/5 432/2/5 431/2/5
f 434/2/5 432/2/5 433/2/5
f 439/3/5 436/3/5 435/3/5
f 440/3/5 436/3/5 439/3/5
f 441/2/5 438/2/5 437/2/5
f 442/2/5 438/2/5 441/2/5
f 447/3/5 444/3/5 443/3/5
f 448/3/5 444/3/5 447/3/5
f 451/1/5 446/1/5 445/1/5
f 452/1/5 446/1/5 451/1/5
f 455/1/5 450/1/5 449/1/5
f 456/1/5 450/1/5 455/1/5
f 458/1/5 454/1/5 453/1/5
f 459/1/5 454/1/5 458/1/5
f 463/1/5 458/1/5 457/1/5
f 464/1/5 458/1/5 463/1/5
f 465/1/5 460/1/5 459/1/5
f 466/1/5 460/1/5 465/1/5
f 467/2/5 462/2/5 461/2/5
f 468/2/5 462/2/5 467/2/5
f 471/1/5 470/1/5 469/1/5
f 472/1/5 470/1/5 471/1/5
f 482/3/5 474/3/5 473/3/5
f 483/3/5 474/3/5 482/3/5
f 484/2/5 476/2/5 475/2/5
f 485/2/5 476/2/5 484/2/5
f 486/2/5 478/2/5 477/2/5
f 487/2/5 478/2/5 486/2/5
f 488/2/5 480/2/5 479/2/5
f 489/2/5 480/2/5 488/2/5
f 490/3/5 482/3/5 481/3/5
f 491/3/5 482/3/5 490/3/5
f 492/2/5 484/2/5 483/2/5
f 493/2/5 484/2/5 492/2/5
f 498/3/5 495/3/5 494/3/5
f 498/3/5 494/3/5 493/3/5
f 499/3/5 495/3/5 498/3/5
f 500/2/5 497/2/5 496/2/5
f 501/2/5 497/2/5 500/2/5
f 504/1/5 503/1/5 502/1/5
f 505/1/5 503/1/5 504/1/5
f 510/3/5 507/3/5 506/3/5
f 511/3/5 507/3/5 510/3/5
f 512/2/5 509/2/5 508/2/5
f 513/2/5 509/2/5 512/2/5
f 516/3/5 515/3/5 514/3/5
f 517/3/5 515/3/5 516/3/5
f 520/2/5 519/2/5 518/2/5
f 521/2/5 519/2/5 520/2/5
f 524/1/5 523/1/5 522/1/5
f 525/1/5 523/1/5 524/1/5
f 528/3/5 527/3/5 526/3/5
f 529/3/5 527/3/5 528/3/5
f 530/2/6 531/2/6 532/2/6
f 532/2/6 531/2/6 533/2/6
f 534/2/6 535/2/6 536/2/6
f 536/2/6 535/2/6 537/2/6
f 538/3/6 539/3/6 542/3/6
f 542/3/6 539/3/6 543/3/6
f 540/2/6 541/2/6 544/2/6
f 544/2/6 541/2/6 545/2/6
f 546/3/6 547/3/6 550/3/6
f 550/3/6 547/3/6 551/3/6
f 548/1/6 549/1/6 554/1/6
f 554/1/6 549/1/6 555/1/6
f 552/1/6 553/1/6 558/1/6
f 558/1/6 553/1/6 559/1/6
f 556/1/6 557/1/6 560/1/6
f 560/1/6 557/1/6 561/1/6
f 561/1/6 562/1/6 565/1/6
f 565/1/6 562/1/6 566/1/6
f 563/2/6 564/2/6 567/2/6
f 567/2/6 564/2/6 568/2/6
f 569/1/6 570/1/6 571/1/6
f 571/1/6 570/1/6 572/1/6
f 573/3/6 574/3/6 581/3/6
f 581/3/6 574/3/6 582/3/6
f 575/2/6 576/2/6 583/2/6
f 583/2/6 576/2/6 584/2/6
f 577/2/6 578/2/6 585/2/6
f 585/2/6 578/2/6 586/2/6
f 579/2/6 580/2/6 587/2/6
f 587/2/6 580/2/6 588/2/6
f 581/2/6 582/2/6 589/2/6
f 589/2/6 582/2/6 590/2/6
f 591/3/6 592/3/6 595/3/6
f 595/3/6 592/3/6 596/3/6
f 593/2/6 594/2/6 597/2/6
f 597/2/6 594/2/6 598/2/6
f 599/1/6 600/1/6 601/1/6
f 601/1/6 600/1/6 602/1/6
f 603/1/6 604/1/6 607/1/6
f 607/1/6 604/1/6 608/1/6
f 605/3/6 606/3/6 609/3/6
f 609/3/6 606/3/6 610/3/6
f 610/2/6 611/2/6 615/2/6
f 615/2/6 611/2/6 616/2/6
f 612/3/6 613/3/6 617/3/6
f 617/3/6 613/3/6 618/3/6
f 614/2/6 615/2/6 619/2/6
f 619/2/6 615/2/6 620/2/6
f 621/3/6 622/3/6 623/3/6
f 623/3/6 622/3/6 624/3/6
f 625/2/6 626/2/6 627/2/6
f 627/2/6 626/2/6 628/2/6
f 629/1/6 630/1/6 631/1/6
f 631/1/6 630/1/6 632/1/6
f 633/3/6 634/3/6 635/3/6
f 635/3/6 634/3/6 636/3/6
