# MagicaVoxel @ Ephtracy

# group
g aaBot

# material
mtllib aaBot.mtl
usemtl palette

# normals
vn -1 0 0
vn 1 0 0
vn 0 0 1
vn 0 0 -1
vn 0 -1 0
vn 0 1 0

# texcoords
vt 0.966797 0.5
vt 0.982422 0.5
vt 0.986328 0.5
vt 0.990234 0.5

# verts
v -3 1 2
v -3 1 1
v -3 1 -2
v -3 1 -3
v -3 2 2
v -3 2 1
v -3 2 -2
v -3 2 -3
v -2 0 1
v -2 0 -2
v -2 1 3
v -2 1 2
v -2 1 1
v -2 1 -2
v -2 1 -3
v -2 1 -4
v -2 2 3
v -2 2 2
v -2 2 -0
v -2 2 -1
v -2 2 -3
v -2 2 -4
v -2 3 -0
v -2 3 -1
v -1 0 2
v -1 0 1
v -1 0 -2
v -1 0 -3
v -1 1 2
v -1 1 1
v -1 1 -1
v -1 1 -2
v -1 1 -3
v -1 2 1
v -1 2 -0
v -1 2 -1
v -1 2 -2
v -1 3 1
v -1 3 -0
v -1 3 -1
v -1 3 -2
v -1 4 -0
v -1 4 -1
v 0 3 1
v 0 3 -0
v 0 3 -1
v 0 3 -2
v 0 4 1
v 0 4 -0
v 0 4 -1
v 0 4 -2
v 3 1 -0
v 3 1 -1
v 3 2 -0
v 3 2 -1
v -2 1 -1
v -2 1 -2
v -2 2 -1
v -2 2 -2
v 1 3 1
v 1 3 -0
v 1 3 -1
v 1 3 -2
v 1 4 1
v 1 4 -0
v 1 4 -1
v 1 4 -2
v 2 0 2
v 2 0 1
v 2 0 -2
v 2 0 -3
v 2 1 2
v 2 1 1
v 2 1 -0
v 2 1 -1
v 2 1 -2
v 2 1 -3
v 2 2 1
v 2 2 -0
v 2 2 -1
v 2 2 -2
v 2 3 1
v 2 3 -0
v 2 3 -1
v 2 3 -2
v 2 4 -0
v 2 4 -1
v 3 0 1
v 3 0 -2
v 3 1 3
v 3 1 2
v 3 1 1
v 3 1 -2
v 3 1 -3
v 3 1 -4
v 3 2 3
v 3 2 2
v 3 2 -0
v 3 2 -1
v 3 2 -3
v 3 2 -4
v 3 3 -0
v 3 3 -1
v 4 1 2
v 4 1 1
v 4 1 -2
v 4 1 -3
v 4 2 2
v 4 2 1
v 4 2 -2
v 4 2 -3
v -2 1 3
v -2 2 3
v -1 1 3
v -1 2 3
v 2 1 3
v 2 2 3
v 3 1 3
v 3 2 3
v -3 1 2
v -3 2 2
v -2 1 2
v -2 2 2
v -1 0 2
v -1 1 2
v 2 0 2
v 2 1 2
v 3 1 2
v 3 2 2
v 4 1 2
v 4 2 2
v -2 0 1
v -2 1 1
v -1 0 1
v -1 1 1
v -1 2 1
v -1 3 1
v 0 3 1
v 0 4 1
v 1 3 1
v 1 4 1
v 2 0 1
v 2 1 1
v 2 2 1
v 2 3 1
v 3 0 1
v 3 1 1
v -2 2 -0
v -2 3 -0
v -1 2 -0
v -1 3 -0
v -1 4 -0
v 0 3 -0
v 0 4 -0
v 1 3 -0
v 1 4 -0
v 2 2 -0
v 2 3 -0
v 2 4 -0
v 3 2 -0
v 3 3 -0
v 2 1 -1
v 2 2 -1
v 3 1 -1
v 3 2 -1
v -2 1 -2
v -2 2 -2
v -1 1 -2
v -1 2 -2
v 2 1 -0
v 2 2 -0
v 3 1 -0
v 3 2 -0
v -2 1 -1
v -2 2 -1
v -2 3 -1
v -1 1 -1
v -1 2 -1
v -1 3 -1
v -1 4 -1
v 0 3 -1
v 0 4 -1
v 1 3 -1
v 1 4 -1
v 2 2 -1
v 2 3 -1
v 2 4 -1
v 3 2 -1
v 3 3 -1
v -2 0 -2
v -2 1 -2
v -1 0 -2
v -1 1 -2
v -1 2 -2
v -1 3 -2
v 0 3 -2
v 0 4 -2
v 1 3 -2
v 1 4 -2
v 2 0 -2
v 2 1 -2
v 2 2 -2
v 2 3 -2
v 3 0 -2
v 3 1 -2
v -3 1 -3
v -3 2 -3
v -2 1 -3
v -2 2 -3
v -1 0 -3
v -1 1 -3
v 2 0 -3
v 2 1 -3
v 3 1 -3
v 3 2 -3
v 4 1 -3
v 4 2 -3
v -2 1 -4
v -2 2 -4
v -1 1 -4
v -1 2 -4
v 2 1 -4
v 2 2 -4
v 3 1 -4
v 3 2 -4
v -1 0 2
v 2 0 2
v -2 0 1
v -1 0 1
v 2 0 1
v 3 0 1
v -2 0 -2
v -1 0 -2
v 2 0 -2
v 3 0 -2
v -1 0 -3
v 2 0 -3
v -2 1 3
v -1 1 3
v 2 1 3
v 3 1 3
v -3 1 2
v -2 1 2
v -1 1 2
v 2 1 2
v 3 1 2
v 4 1 2
v -3 1 1
v -2 1 1
v -1 1 1
v 2 1 1
v 3 1 1
v 4 1 1
v -3 1 -2
v -2 1 -2
v -1 1 -2
v 2 1 -2
v 3 1 -2
v 4 1 -2
v -3 1 -3
v -2 1 -3
v -1 1 -3
v 2 1 -3
v 3 1 -3
v 4 1 -3
v -2 1 -4
v -1 1 -4
v 2 1 -4
v 3 1 -4
v 2 2 -0
v 3 2 -0
v 2 2 -1
v 3 2 -1
v 2 1 -0
v 3 1 -0
v -2 1 -1
v -1 1 -1
v 2 1 -1
v 3 1 -1
v -2 1 -2
v -1 1 -2
v -2 2 3
v -1 2 3
v 2 2 3
v 3 2 3
v -3 2 2
v -2 2 2
v -1 2 2
v 2 2 2
v 3 2 2
v 4 2 2
v -3 2 1
v -2 2 1
v -1 2 1
v 2 2 1
v 3 2 1
v 4 2 1
v -2 2 -0
v -1 2 -0
v 2 2 -0
v 3 2 -0
v -2 2 -1
v 2 2 -1
v 3 2 -1
v -3 2 -2
v -2 2 -2
v -1 2 -2
v 2 2 -2
v 3 2 -2
v 4 2 -2
v -3 2 -3
v -2 2 -3
v -1 2 -3
v 2 2 -3
v 3 2 -3
v 4 2 -3
v -2 2 -4
v -1 2 -4
v 2 2 -4
v 3 2 -4
v -1 3 1
v 0 3 1
v 1 3 1
v 2 3 1
v -2 3 -0
v -1 3 -0
v 0 3 -0
v 1 3 -0
v 2 3 -0
v 3 3 -0
v -2 3 -1
v -1 3 -1
v 0 3 -1
v 1 3 -1
v 2 3 -1
v 3 3 -1
v -1 3 -2
v 0 3 -2
v 1 3 -2
v 2 3 -2
v 0 4 1
v 1 4 1
v -1 4 -0
v 0 4 -0
v 1 4 -0
v 2 4 -0
v -1 4 -1
v 0 4 -1
v 1 4 -1
v 2 4 -1
v 0 4 -2
v 1 4 -2

# faces
f 5/1/1 2/1/1 1/1/1
f 6/3/1 3/3/1 2/3/1
f 6/1/1 2/1/1 5/1/1
f 7/1/1 4/1/1 3/1/1
f 7/3/1 3/3/1 6/3/1
f 8/1/1 4/1/1 7/1/1
f 13/4/1 10/4/1 9/4/1
f 14/4/1 10/4/1 13/4/1
f 17/1/1 12/1/1 11/1/1
f 18/1/1 12/1/1 17/1/1
f 21/1/1 16/1/1 15/1/1
f 22/1/1 16/1/1 21/1/1
f 23/2/1 20/2/1 19/2/1
f 24/2/1 20/2/1 23/2/1
f 29/4/1 26/4/1 25/4/1
f 30/4/1 26/4/1 29/4/1
f 32/4/1 28/4/1 27/4/1
f 33/4/1 28/4/1 32/4/1
f 36/4/1 32/4/1 31/4/1
f 37/4/1 32/4/1 36/4/1
f 38/2/1 35/2/1 34/2/1
f 39/2/1 35/2/1 38/2/1
f 40/2/1 37/2/1 36/2/1
f 41/2/1 37/2/1 40/2/1
f 42/2/1 40/2/1 39/2/1
f 43/2/1 40/2/1 42/2/1
f 48/2/1 45/2/1 44/2/1
f 49/2/1 45/2/1 48/2/1
f 50/2/1 47/2/1 46/2/1
f 51/2/1 47/2/1 50/2/1
f 54/3/1 53/3/1 52/3/1
f 55/3/1 53/3/1 54/3/1
f 56/3/2 57/3/2 58/3/2
f 58/3/2 57/3/2 59/3/2
f 60/2/2 61/2/2 64/2/2
f 64/2/2 61/2/2 65/2/2
f 62/2/2 63/2/2 66/2/2
f 66/2/2 63/2/2 67/2/2
f 68/4/2 69/4/2 72/4/2
f 72/4/2 69/4/2 73/4/2
f 70/4/2 71/4/2 76/4/2
f 76/4/2 71/4/2 77/4/2
f 74/4/2 75/4/2 79/4/2
f 79/4/2 75/4/2 80/4/2
f 78/2/2 79/2/2 82/2/2
f 82/2/2 79/2/2 83/2/2
f 80/2/2 81/2/2 84/2/2
f 84/2/2 81/2/2 85/2/2
f 83/2/2 84/2/2 86/2/2
f 86/2/2 84/2/2 87/2/2
f 88/4/2 89/4/2 92/4/2
f 92/4/2 89/4/2 93/4/2
f 90/1/2 91/1/2 96/1/2
f 96/1/2 91/1/2 97/1/2
f 94/1/2 95/1/2 100/1/2
f 100/1/2 95/1/2 101/1/2
f 98/2/2 99/2/2 102/2/2
f 102/2/2 99/2/2 103/2/2
f 104/1/2 105/1/2 108/1/2
f 105/3/2 106/3/2 109/3/2
f 108/1/2 105/1/2 109/1/2
f 106/1/2 107/1/2 110/1/2
f 109/3/2 106/3/2 110/3/2
f 110/1/2 107/1/2 111/1/2
f 114/1/3 113/1/3 112/1/3
f 115/1/3 113/1/3 114/1/3
f 116/3/3 115/3/3 114/3/3
f 117/3/3 115/3/3 116/3/3
f 118/1/3 117/1/3 116/1/3
f 119/1/3 117/1/3 118/1/3
f 122/1/3 121/1/3 120/1/3
f 123/1/3 121/1/3 122/1/3
f 126/4/3 125/4/3 124/4/3
f 127/4/3 125/4/3 126/4/3
f 130/1/3 129/1/3 128/1/3
f 131/1/3 129/1/3 130/1/3
f 134/4/3 133/4/3 132/4/3
f 135/4/3 133/4/3 134/4/3
f 138/2/3 137/2/3 136/2/3
f 140/2/3 138/2/3 136/2/3
f 140/2/3 139/2/3 138/2/3
f 141/2/3 139/2/3 140/2/3
f 144/2/3 140/2/3 136/2/3
f 145/2/3 140/2/3 144/2/3
f 146/4/3 143/4/3 142/4/3
f 147/4/3 143/4/3 146/4/3
f 150/2/3 149/2/3 148/2/3
f 151/2/3 149/2/3 150/2/3
f 153/2/3 152/2/3 151/2/3
f 154/2/3 152/2/3 153/2/3
f 158/2/3 156/2/3 155/2/3
f 159/2/3 156/2/3 158/2/3
f 160/2/3 158/2/3 157/2/3
f 161/2/3 158/2/3 160/2/3
f 164/4/3 163/4/3 162/4/3
f 165/4/3 163/4/3 164/4/3
f 168/1/3 167/1/3 166/1/3
f 169/1/3 167/1/3 168/1/3
f 170/4/4 171/4/4 172/4/4
f 172/4/4 171/4/4 173/4/4
f 174/4/4 175/4/4 177/4/4
f 175/2/4 176/2/4 178/2/4
f 177/4/4 175/4/4 178/4/4
f 178/2/4 176/2/4 179/2/4
f 179/2/4 180/2/4 181/2/4
f 181/2/4 180/2/4 182/2/4
f 183/2/4 184/2/4 186/2/4
f 186/2/4 184/2/4 187/2/4
f 185/2/4 186/2/4 188/2/4
f 188/2/4 186/2/4 189/2/4
f 190/4/4 191/4/4 192/4/4
f 192/4/4 191/4/4 193/4/4
f 194/2/4 195/2/4 196/2/4
f 194/2/4 196/2/4 198/2/4
f 196/2/4 197/2/4 198/2/4
f 198/2/4 197/2/4 199/2/4
f 194/2/4 198/2/4 202/2/4
f 202/2/4 198/2/4 203/2/4
f 200/4/4 201/4/4 204/4/4
f 204/4/4 201/4/4 205/4/4
f 206/1/4 207/1/4 208/1/4
f 208/1/4 207/1/4 209/1/4
f 210/4/4 211/4/4 212/4/4
f 212/4/4 211/4/4 213/4/4
f 214/1/4 215/1/4 216/1/4
f 216/1/4 215/1/4 217/1/4
f 218/1/4 219/1/4 220/1/4
f 220/1/4 219/1/4 221/1/4
f 220/3/4 221/3/4 222/3/4
f 222/3/4 221/3/4 223/3/4
f 222/1/4 223/1/4 224/1/4
f 224/1/4 223/1/4 225/1/4
f 229/4/5 227/4/5 226/4/5
f 230/4/5 227/4/5 229/4/5
f 232/4/5 229/4/5 228/4/5
f 232/4/5 231/4/5 230/4/5
f 232/4/5 230/4/5 229/4/5
f 233/4/5 231/4/5 232/4/5
f 234/4/5 231/4/5 233/4/5
f 235/4/5 231/4/5 234/4/5
f 236/4/5 234/4/5 233/4/5
f 237/4/5 234/4/5 236/4/5
f 243/1/5 239/1/5 238/1/5
f 244/3/5 240/3/5 239/3/5
f 244/1/5 239/1/5 243/1/5
f 245/1/5 241/1/5 240/1/5
f 245/3/5 240/3/5 244/3/5
f 246/1/5 241/1/5 245/1/5
f 248/1/5 244/1/5 243/1/5
f 248/1/5 243/1/5 242/1/5
f 249/1/5 244/1/5 248/1/5
f 250/1/5 244/1/5 249/1/5
f 251/1/5 247/1/5 246/1/5
f 251/1/5 246/1/5 245/1/5
f 252/1/5 247/1/5 251/1/5
f 253/1/5 247/1/5 252/1/5
f 254/3/5 249/3/5 248/3/5
f 255/3/5 249/3/5 254/3/5
f 258/3/5 253/3/5 252/3/5
f 259/3/5 253/3/5 258/3/5
f 260/1/5 256/1/5 255/1/5
f 260/1/5 255/1/5 254/1/5
f 261/1/5 256/1/5 260/1/5
f 262/1/5 256/1/5 261/1/5
f 263/1/5 259/1/5 258/1/5
f 263/1/5 258/1/5 257/1/5
f 264/1/5 259/1/5 263/1/5
f 265/1/5 259/1/5 264/1/5
f 266/1/5 262/1/5 261/1/5
f 267/3/5 263/3/5 262/3/5
f 267/1/5 262/1/5 266/1/5
f 268/1/5 264/1/5 263/1/5
f 268/3/5 263/3/5 267/3/5
f 269/1/5 264/1/5 268/1/5
f 272/2/5 271/2/5 270/2/5
f 273/2/5 271/2/5 272/2/5
f 274/4/6 275/4/6 278/4/6
f 278/4/6 275/4/6 279/4/6
f 276/4/6 277/4/6 280/4/6
f 280/4/6 277/4/6 281/4/6
f 282/1/6 283/1/6 287/1/6
f 283/3/6 284/3/6 288/3/6
f 287/1/6 283/1/6 288/1/6
f 284/1/6 285/1/6 289/1/6
f 288/3/6 284/3/6 289/3/6
f 289/1/6 285/1/6 290/1/6
f 287/1/6 288/1/6 292/1/6
f 286/1/6 287/1/6 292/1/6
f 292/1/6 288/1/6 293/1/6
f 288/4/6 289/4/6 294/4/6
f 293/1/6 288/1/6 294/1/6
f 290/1/6 291/1/6 295/1/6
f 294/4/6 289/4/6 295/4/6
f 289/1/6 290/1/6 295/1/6
f 295/1/6 291/1/6 296/1/6
f 296/1/6 291/1/6 297/1/6
f 293/4/6 294/4/6 298/4/6
f 292/3/6 293/3/6 298/3/6
f 298/4/6 294/4/6 299/4/6
f 295/4/6 296/4/6 300/4/6
f 296/3/6 297/3/6 301/3/6
f 300/4/6 296/4/6 301/4/6
f 292/3/6 298/3/6 302/3/6
f 301/3/6 297/3/6 304/3/6
f 292/3/6 302/3/6 305/3/6
f 305/3/6 302/3/6 306/3/6
f 303/4/6 304/4/6 308/4/6
f 304/3/6 297/3/6 309/3/6
f 308/4/6 304/4/6 309/4/6
f 309/3/6 297/3/6 310/3/6
f 306/1/6 307/1/6 311/1/6
f 305/1/6 306/1/6 311/1/6
f 311/1/6 307/1/6 312/1/6
f 307/4/6 308/4/6 313/4/6
f 312/1/6 307/1/6 313/1/6
f 309/1/6 310/1/6 314/1/6
f 313/4/6 308/4/6 314/4/6
f 308/1/6 309/1/6 314/1/6
f 314/1/6 310/1/6 315/1/6
f 315/1/6 310/1/6 316/1/6
f 312/1/6 313/1/6 317/1/6
f 313/3/6 314/3/6 318/3/6
f 317/1/6 313/1/6 318/1/6
f 314/1/6 315/1/6 319/1/6
f 318/3/6 314/3/6 319/3/6
f 319/1/6 315/1/6 320/1/6
f 321/2/6 322/2/6 326/2/6
f 326/2/6 322/2/6 327/2/6
f 323/2/6 324/2/6 328/2/6
f 328/2/6 324/2/6 329/2/6
f 325/2/6 326/2/6 331/2/6
f 331/2/6 326/2/6 332/2/6
f 329/2/6 330/2/6 335/2/6
f 335/2/6 330/2/6 336/2/6
f 332/2/6 333/2/6 337/2/6
f 337/2/6 333/2/6 338/2/6
f 334/2/6 335/2/6 339/2/6
f 339/2/6 335/2/6 340/2/6
f 341/2/6 342/2/6 344/2/6
f 344/2/6 342/2/6 345/2/6
f 343/2/6 344/2/6 347/2/6
f 345/2/6 346/2/6 347/2/6
f 344/2/6 345/2/6 347/2/6
f 347/2/6 346/2/6 348/2/6
f 348/2/6 346/2/6 349/2/6
f 349/2/6 346/2/6 350/2/6
f 348/2/6 349/2/6 351/2/6
f 351/2/6 349/2/6 352/2/6
