# MagicaVoxel @ Ephtracy

# group
g tank3

# material
mtllib tank3.mtl
usemtl palette

# normals
vn -1 0 0
vn 1 0 0
vn 0 0 1
vn 0 0 -1
vn 0 -1 0
vn 0 1 0

# texcoords
vt 0.908203 0.5
vt 0.958984 0.5
vt 0.978516 0.5
vt 0.982422 0.5
vt 0.994141 0.5

# verts
v -2 0 4
v -2 0 -3
v -2 1 5
v -2 1 4
v -2 1 -3
v -2 1 -4
v -2 2 5
v -2 2 4
v -2 2 -3
v -2 2 -4
v -2 3 4
v -2 3 -3
v -1 3 2
v -1 3 -1
v -1 4 2
v -1 4 -1
v 0 3 5
v 0 3 4
v 0 3 2
v 0 4 5
v 0 4 2
v 0 4 -0
v 0 5 2
v 0 5 -0
v 2 0 4
v 2 0 -3
v 2 1 5
v 2 1 4
v 2 1 -3
v 2 1 -4
v 2 2 5
v 2 2 4
v 2 2 -3
v 2 2 -4
v -1 0 4
v -1 0 -3
v -1 1 5
v -1 1 4
v -1 1 -3
v -1 1 -4
v -1 2 5
v -1 2 4
v -1 2 -3
v -1 2 -4
v 1 3 5
v 1 3 4
v 1 3 2
v 1 4 5
v 1 4 2
v 1 4 -0
v 1 5 2
v 1 5 -0
v 2 3 2
v 2 3 -1
v 2 4 2
v 2 4 -1
v 3 0 4
v 3 0 -3
v 3 1 5
v 3 1 4
v 3 1 -3
v 3 1 -4
v 3 2 5
v 3 2 4
v 3 2 -3
v 3 2 -4
v 3 3 4
v 3 3 -3
v -2 1 5
v -2 2 5
v -1 1 5
v -1 2 5
v 0 3 5
v 0 4 5
v 1 3 5
v 1 4 5
v 2 1 5
v 2 2 5
v 3 1 5
v 3 2 5
v -2 0 4
v -2 1 4
v -2 2 4
v -2 3 4
v -1 0 4
v -1 1 4
v -1 2 4
v -1 3 4
v 0 3 4
v 1 3 4
v 2 0 4
v 2 1 4
v 2 2 4
v 2 3 4
v 3 0 4
v 3 1 4
v 3 2 4
v 3 3 4
v -1 3 2
v -1 4 2
v 0 3 2
v 0 4 2
v 0 5 2
v 1 3 2
v 1 4 2
v 1 5 2
v 2 3 2
v 2 4 2
v 0 4 -0
v 0 5 -0
v 1 4 -0
v 1 5 -0
v -1 3 -1
v -1 4 -1
v 2 3 -1
v 2 4 -1
v -2 0 -3
v -2 1 -3
v -2 2 -3
v -2 3 -3
v -1 0 -3
v -1 1 -3
v -1 2 -3
v -1 3 -3
v 2 0 -3
v 2 1 -3
v 2 2 -3
v 2 3 -3
v 3 0 -3
v 3 1 -3
v 3 2 -3
v 3 3 -3
v -2 1 -4
v -2 2 -4
v -1 1 -4
v -1 2 -4
v 2 1 -4
v 2 2 -4
v 3 1 -4
v 3 2 -4
v -2 0 4
v -1 0 4
v 2 0 4
v 3 0 4
v -2 0 -3
v -1 0 -3
v 2 0 -3
v 3 0 -3
v -2 1 5
v -1 1 5
v 2 1 5
v 3 1 5
v -2 1 4
v -1 1 4
v 2 1 4
v 3 1 4
v -2 1 -3
v -1 1 -3
v 2 1 -3
v 3 1 -3
v -2 1 -4
v -1 1 -4
v 2 1 -4
v 3 1 -4
v 0 3 5
v 1 3 5
v 0 3 4
v 1 3 4
v -2 2 5
v -1 2 5
v 2 2 5
v 3 2 5
v -2 2 4
v -1 2 4
v 2 2 4
v 3 2 4
v -2 2 -3
v -1 2 -3
v 2 2 -3
v 3 2 -3
v -2 2 -4
v -1 2 -4
v 2 2 -4
v 3 2 -4
v -2 3 4
v -1 3 4
v 0 3 4
v 1 3 4
v 2 3 4
v 3 3 4
v -1 3 2
v 0 3 2
v 1 3 2
v 2 3 2
v -1 3 -1
v 2 3 -1
v -2 3 -3
v -1 3 -3
v 2 3 -3
v 3 3 -3
v 0 4 5
v 1 4 5
v -1 4 2
v 0 4 2
v 1 4 2
v 2 4 2
v 0 4 -0
v 1 4 -0
v -1 4 -1
v 2 4 -1
v 0 5 2
v 1 5 2
v 0 5 -0
v 1 5 -0

# faces
f 4/5/1 2/5/1 1/5/1
f 5/5/1 2/5/1 4/5/1
f 7/5/1 4/5/1 3/5/1
f 8/3/1 5/3/1 4/3/1
f 8/5/1 4/5/1 7/5/1
f 9/5/1 6/5/1 5/5/1
f 9/3/1 5/3/1 8/3/1
f 10/5/1 6/5/1 9/5/1
f 11/5/1 9/5/1 8/5/1
f 12/5/1 9/5/1 11/5/1
f 15/1/1 14/1/1 13/1/1
f 16/1/1 14/1/1 15/1/1
f 20/4/1 18/4/1 17/4/1
f 20/4/1 19/4/1 18/4/1
f 21/4/1 19/4/1 20/4/1
f 23/1/1 22/1/1 21/1/1
f 24/1/1 22/1/1 23/1/1
f 28/5/1 26/5/1 25/5/1
f 29/5/1 26/5/1 28/5/1
f 31/5/1 28/5/1 27/5/1
f 32/5/1 28/5/1 31/5/1
f 33/5/1 30/5/1 29/5/1
f 34/5/1 30/5/1 33/5/1
f 35/5/2 36/5/2 38/5/2
f 38/5/2 36/5/2 39/5/2
f 37/5/2 38/5/2 41/5/2
f 41/5/2 38/5/2 42/5/2
f 39/5/2 40/5/2 43/5/2
f 43/5/2 40/5/2 44/5/2
f 45/4/2 46/4/2 48/4/2
f 46/4/2 47/4/2 48/4/2
f 48/4/2 47/4/2 49/4/2
f 49/1/2 50/1/2 51/1/2
f 51/1/2 50/1/2 52/1/2
f 53/1/2 54/1/2 55/1/2
f 55/1/2 54/1/2 56/1/2
f 57/5/2 58/5/2 60/5/2
f 60/5/2 58/5/2 61/5/2
f 59/5/2 60/5/2 63/5/2
f 60/3/2 61/3/2 64/3/2
f 63/5/2 60/5/2 64/5/2
f 61/5/2 62/5/2 65/5/2
f 64/3/2 61/3/2 65/3/2
f 65/5/2 62/5/2 66/5/2
f 64/5/2 65/5/2 67/5/2
f 67/5/2 65/5/2 68/5/2
f 71/5/3 70/5/3 69/5/3
f 72/5/3 70/5/3 71/5/3
f 75/4/3 74/4/3 73/4/3
f 76/4/3 74/4/3 75/4/3
f 79/5/3 78/5/3 77/5/3
f 80/5/3 78/5/3 79/5/3
f 85/5/3 82/5/3 81/5/3
f 86/5/3 82/5/3 85/5/3
f 87/5/3 84/5/3 83/5/3
f 88/5/3 84/5/3 87/5/3
f 89/1/3 87/1/3 86/1/3
f 89/1/3 88/1/3 87/1/3
f 90/1/3 89/1/3 86/1/3
f 92/1/3 90/1/3 86/1/3
f 93/1/3 90/1/3 92/1/3
f 94/1/3 90/1/3 93/1/3
f 95/5/3 92/5/3 91/5/3
f 96/5/3 92/5/3 95/5/3
f 97/5/3 94/5/3 93/5/3
f 98/5/3 94/5/3 97/5/3
f 101/1/3 100/1/3 99/1/3
f 102/1/3 100/1/3 101/1/3
f 105/1/3 103/1/3 102/1/3
f 106/1/3 103/1/3 105/1/3
f 107/1/3 105/1/3 104/1/3
f 108/1/3 105/1/3 107/1/3
f 109/1/4 110/1/4 111/1/4
f 111/1/4 110/1/4 112/1/4
f 113/1/4 114/1/4 115/1/4
f 115/1/4 114/1/4 116/1/4
f 117/5/4 118/5/4 121/5/4
f 121/5/4 118/5/4 122/5/4
f 119/5/4 120/5/4 123/5/4
f 123/5/4 120/5/4 124/5/4
f 122/1/4 123/1/4 126/1/4
f 123/1/4 124/1/4 126/1/4
f 126/1/4 124/1/4 127/1/4
f 127/1/4 124/1/4 128/1/4
f 125/5/4 126/5/4 129/5/4
f 129/5/4 126/5/4 130/5/4
f 127/5/4 128/5/4 131/5/4
f 131/5/4 128/5/4 132/5/4
f 133/5/4 134/5/4 135/5/4
f 135/5/4 134/5/4 136/5/4
f 137/5/4 138/5/4 139/5/4
f 139/5/4 138/5/4 140/5/4
f 145/5/5 142/5/5 141/5/5
f 146/5/5 142/5/5 145/5/5
f 147/5/5 144/5/5 143/5/5
f 148/5/5 144/5/5 147/5/5
f 153/5/5 150/5/5 149/5/5
f 154/5/5 150/5/5 153/5/5
f 155/5/5 152/5/5 151/5/5
f 156/5/5 152/5/5 155/5/5
f 158/1/5 155/1/5 154/1/5
f 159/1/5 155/1/5 158/1/5
f 161/5/5 158/5/5 157/5/5
f 162/5/5 158/5/5 161/5/5
f 163/5/5 160/5/5 159/5/5
f 164/5/5 160/5/5 163/5/5
f 167/4/5 166/4/5 165/4/5
f 168/4/5 166/4/5 167/4/5
f 169/5/6 170/5/6 173/5/6
f 173/5/6 170/5/6 174/5/6
f 171/5/6 172/5/6 175/5/6
f 175/5/6 172/5/6 176/5/6
f 177/5/6 178/5/6 181/5/6
f 181/5/6 178/5/6 182/5/6
f 179/5/6 180/5/6 183/5/6
f 183/5/6 180/5/6 184/5/6
f 185/5/6 186/5/6 191/5/6
f 186/1/6 187/1/6 191/1/6
f 191/1/6 187/1/6 192/1/6
f 188/1/6 189/1/6 193/1/6
f 189/5/6 190/5/6 194/5/6
f 193/1/6 189/1/6 194/1/6
f 185/5/6 191/5/6 195/5/6
f 194/5/6 190/5/6 196/5/6
f 185/5/6 195/5/6 197/5/6
f 195/1/6 196/1/6 198/1/6
f 197/5/6 195/5/6 198/5/6
f 196/5/6 190/5/6 199/5/6
f 198/1/6 196/1/6 199/1/6
f 199/5/6 190/5/6 200/5/6
f 201/4/6 202/4/6 204/4/6
f 204/4/6 202/4/6 205/4/6
f 203/1/6 204/1/6 207/1/6
f 205/1/6 206/1/6 208/1/6
f 203/1/6 207/1/6 209/1/6
f 207/1/6 208/1/6 209/1/6
f 208/1/6 206/1/6 210/1/6
f 209/1/6 208/1/6 210/1/6
f 211/1/6 212/1/6 213/1/6
f 213/1/6 212/1/6 214/1/6
