# MagicaVoxel @ Ephtracy

# group
g jet

# material
mtllib jet.mtl
usemtl palette

# normals
vn -1 0 0
vn 1 0 0
vn 0 0 1
vn 0 0 -1
vn 0 -1 0
vn 0 1 0

# texcoords
vt 0.255859 0.5
vt 0.634766 0.5
vt 0.974609 0.5
vt 0.978516 0.5
vt 0.986328 0.5

# verts
v -4 8 -1
v -4 8 -3
v -4 9 -1
v -4 9 -3
v -3 8 -0
v -3 8 -1
v -3 9 -0
v -3 9 -1
v -2 8 1
v -2 8 -0
v -2 8 -2
v -2 8 -3
v -2 9 1
v -2 9 -0
v -2 9 -2
v -2 9 -3
v -2 9 -4
v -2 9 -5
v -2 10 -4
v -2 10 -5
v -1 8 3
v -1 8 1
v -1 8 -3
v -1 8 -4
v -1 8 -5
v -1 9 3
v -1 9 2
v -1 9 1
v -1 9 -1
v -1 9 -2
v -1 9 -3
v -1 9 -4
v -1 9 -5
v -1 10 2
v -1 10 1
v -1 10 -2
v -1 10 -4
v -1 10 -5
v -1 11 -4
v -1 11 -5
v 2 8 -2
v 2 8 -3
v 2 9 -2
v 2 9 -3
v -3 8 -2
v -3 8 -3
v -3 9 -2
v -3 9 -3
v 0 8 3
v 0 8 1
v 0 8 -3
v 0 8 -4
v 0 8 -5
v 0 9 3
v 0 9 2
v 0 9 1
v 0 9 -1
v 0 9 -2
v 0 9 -3
v 0 9 -4
v 0 9 -5
v 0 10 2
v 0 10 1
v 0 10 -2
v 0 10 -4
v 0 10 -5
v 0 11 -4
v 0 11 -5
v 1 8 1
v 1 8 -0
v 1 8 -2
v 1 8 -3
v 1 9 1
v 1 9 -0
v 1 9 -2
v 1 9 -3
v 1 9 -4
v 1 9 -5
v 1 10 -4
v 1 10 -5
v 2 8 -0
v 2 8 -1
v 2 9 -0
v 2 9 -1
v 3 8 -1
v 3 8 -3
v 3 9 -1
v 3 9 -3
v -1 8 3
v -1 9 3
v 0 8 3
v 0 9 3
v -1 9 2
v -1 10 2
v 0 9 2
v 0 10 2
v -2 8 1
v -2 9 1
v -1 8 1
v -1 9 1
v 0 8 1
v 0 9 1
v 1 8 1
v 1 9 1
v -3 8 -0
v -3 9 -0
v -2 8 -0
v -2 9 -0
v 1 8 -0
v 1 9 -0
v 2 8 -0
v 2 9 -0
v -4 8 -1
v -4 9 -1
v -3 8 -1
v -3 9 -1
v 2 8 -1
v 2 9 -1
v 3 8 -1
v 3 9 -1
v -2 9 -4
v -2 10 -4
v -1 9 -4
v -1 10 -4
v -1 11 -4
v 0 9 -4
v 0 10 -4
v 0 11 -4
v 1 9 -4
v 1 10 -4
v -3 8 -2
v -3 9 -2
v -2 8 -2
v -2 9 -2
v 1 8 -2
v 1 9 -2
v 2 8 -2
v 2 9 -2
v -4 8 -3
v -4 9 -3
v -3 8 -3
v -3 9 -3
v -2 8 -3
v -2 9 -3
v -1 8 -3
v -1 9 -3
v 0 8 -3
v 0 9 -3
v 1 8 -3
v 1 9 -3
v 2 8 -3
v 2 9 -3
v 3 8 -3
v 3 9 -3
v -2 9 -5
v -2 10 -5
v -1 8 -5
v -1 9 -5
v -1 10 -5
v -1 11 -5
v 0 8 -5
v 0 9 -5
v 0 10 -5
v 0 11 -5
v 1 9 -5
v 1 10 -5
v -1 8 3
v 0 8 3
v -2 8 1
v -1 8 1
v 0 8 1
v 1 8 1
v -3 8 -0
v -2 8 -0
v 1 8 -0
v 2 8 -0
v -4 8 -1
v -3 8 -1
v -2 8 -1
v -1 8 -1
v 0 8 -1
v 1 8 -1
v 2 8 -1
v 3 8 -1
v -3 8 -2
v -2 8 -2
v -1 8 -2
v 0 8 -2
v 1 8 -2
v 2 8 -2
v -4 8 -3
v -3 8 -3
v -2 8 -3
v -1 8 -3
v 0 8 -3
v 1 8 -3
v 2 8 -3
v 3 8 -3
v -1 8 -4
v 0 8 -4
v -1 8 -5
v 0 8 -5
v -2 9 -4
v -1 9 -4
v 0 9 -4
v 1 9 -4
v -2 9 -5
v -1 9 -5
v 0 9 -5
v 1 9 -5
v -1 9 3
v 0 9 3
v -1 9 2
v 0 9 2
v -2 9 1
v -1 9 1
v 0 9 1
v 1 9 1
v -3 9 -0
v -2 9 -0
v 1 9 -0
v 2 9 -0
v -4 9 -1
v -3 9 -1
v -2 9 -1
v -1 9 -1
v 0 9 -1
v 1 9 -1
v 2 9 -1
v 3 9 -1
v -3 9 -2
v -2 9 -2
v -1 9 -2
v 0 9 -2
v 1 9 -2
v 2 9 -2
v -4 9 -3
v -3 9 -3
v -2 9 -3
v -1 9 -3
v 0 9 -3
v 1 9 -3
v 2 9 -3
v 3 9 -3
v -1 10 2
v 0 10 2
v -1 10 1
v 0 10 1
v -1 10 -2
v 0 10 -2
v -2 10 -4
v -1 10 -4
v 0 10 -4
v 1 10 -4
v -2 10 -5
v -1 10 -5
v 0 10 -5
v 1 10 -5
v -1 11 -4
v 0 11 -4
v -1 11 -5
v 0 11 -5

# faces
f 3/3/1 2/3/1 1/3/1
f 4/3/1 2/3/1 3/3/1
f 7/4/1 6/4/1 5/4/1
f 8/4/1 6/4/1 7/4/1
f 13/4/1 10/4/1 9/4/1
f 14/4/1 10/4/1 13/4/1
f 15/4/1 12/4/1 11/4/1
f 16/4/1 12/4/1 15/4/1
f 19/3/1 18/3/1 17/3/1
f 20/3/1 18/3/1 19/3/1
f 26/4/1 22/4/1 21/4/1
f 27/4/1 22/4/1 26/4/1
f 28/4/1 22/4/1 27/4/1
f 31/4/1 24/4/1 23/4/1
f 32/3/1 25/3/1 24/3/1
f 32/4/1 24/4/1 31/4/1
f 33/3/1 25/3/1 32/3/1
f 34/4/1 28/4/1 27/4/1
f 35/2/1 30/2/1 29/2/1
f 35/4/1 28/4/1 34/4/1
f 35/2/1 29/2/1 28/2/1
f 36/4/1 31/4/1 30/4/1
f 36/2/1 30/2/1 35/2/1
f 36/4/1 32/4/1 31/4/1
f 37/4/1 32/4/1 36/4/1
f 39/3/1 38/3/1 37/3/1
f 40/3/1 38/3/1 39/3/1
f 43/3/1 42/3/1 41/3/1
f 44/3/1 42/3/1 43/3/1
f 45/3/2 46/3/2 47/3/2
f 47/3/2 46/3/2 48/3/2
f 49/4/2 50/4/2 54/4/2
f 54/4/2 50/4/2 55/4/2
f 55/4/2 50/4/2 56/4/2
f 51/4/2 52/4/2 59/4/2
f 52/3/2 53/3/2 60/3/2
f 59/4/2 52/4/2 60/4/2
f 60/3/2 53/3/2 61/3/2
f 55/4/2 56/4/2 62/4/2
f 57/2/2 58/2/2 63/2/2
f 62/4/2 56/4/2 63/4/2
f 56/2/2 57/2/2 63/2/2
f 58/4/2 59/4/2 64/4/2
f 63/2/2 58/2/2 64/2/2
f 59/4/2 60/4/2 64/4/2
f 64/4/2 60/4/2 65/4/2
f 65/3/2 66/3/2 67/3/2
f 67/3/2 66/3/2 68/3/2
f 69/4/2 70/4/2 73/4/2
f 73/4/2 70/4/2 74/4/2
f 71/4/2 72/4/2 75/4/2
f 75/4/2 72/4/2 76/4/2
f 77/3/2 78/3/2 79/3/2
f 79/3/2 78/3/2 80/3/2
f 81/4/2 82/4/2 83/4/2
f 83/4/2 82/4/2 84/4/2
f 85/3/2 86/3/2 87/3/2
f 87/3/2 86/3/2 88/3/2
f 91/4/3 90/4/3 89/4/3
f 92/4/3 90/4/3 91/4/3
f 95/4/3 94/4/3 93/4/3
f 96/4/3 94/4/3 95/4/3
f 99/4/3 98/4/3 97/4/3
f 100/4/3 98/4/3 99/4/3
f 103/4/3 102/4/3 101/4/3
f 104/4/3 102/4/3 103/4/3
f 107/4/3 106/4/3 105/4/3
f 108/4/3 106/4/3 107/4/3
f 111/4/3 110/4/3 109/4/3
f 112/4/3 110/4/3 111/4/3
f 115/3/3 114/3/3 113/3/3
f 116/3/3 114/3/3 115/3/3
f 119/3/3 118/3/3 117/3/3
f 120/3/3 118/3/3 119/3/3
f 123/3/3 122/3/3 121/3/3
f 124/3/3 122/3/3 123/3/3
f 127/3/3 125/3/3 124/3/3
f 128/3/3 125/3/3 127/3/3
f 129/3/3 127/3/3 126/3/3
f 130/3/3 127/3/3 129/3/3
f 131/4/4 132/4/4 133/4/4
f 133/4/4 132/4/4 134/4/4
f 135/4/4 136/4/4 137/4/4
f 137/4/4 136/4/4 138/4/4
f 139/3/4 140/3/4 141/3/4
f 141/3/4 140/3/4 142/3/4
f 143/4/4 144/4/4 145/4/4
f 145/4/4 144/4/4 146/4/4
f 147/4/4 148/4/4 149/4/4
f 149/4/4 148/4/4 150/4/4
f 151/3/4 152/3/4 153/3/4
f 153/3/4 152/3/4 154/3/4
f 155/3/4 156/3/4 158/3/4
f 158/3/4 156/3/4 159/3/4
f 157/3/4 158/3/4 161/3/4
f 158/1/4 159/1/4 162/1/4
f 161/3/4 158/3/4 162/3/4
f 159/3/4 160/3/4 163/3/4
f 162/1/4 159/1/4 163/1/4
f 163/3/4 160/3/4 164/3/4
f 162/3/4 163/3/4 165/3/4
f 165/3/4 163/3/4 166/3/4
f 170/4/5 168/4/5 167/4/5
f 171/4/5 168/4/5 170/4/5
f 174/4/5 170/4/5 169/4/5
f 175/4/5 172/4/5 171/4/5
f 178/4/5 174/4/5 173/4/5
f 179/4/5 170/4/5 174/4/5
f 179/4/5 174/4/5 178/4/5
f 180/5/5 171/5/5 170/5/5
f 180/4/5 170/4/5 179/4/5
f 181/4/5 176/4/5 175/4/5
f 181/5/5 171/5/5 180/5/5
f 181/4/5 175/4/5 171/4/5
f 182/4/5 176/4/5 181/4/5
f 183/4/5 176/4/5 182/4/5
f 185/4/5 179/4/5 178/4/5
f 185/3/5 178/3/5 177/3/5
f 186/5/5 180/5/5 179/5/5
f 186/4/5 179/4/5 185/4/5
f 186/5/5 181/5/5 180/5/5
f 186/5/5 182/5/5 181/5/5
f 187/5/5 182/5/5 186/5/5
f 188/5/5 182/5/5 187/5/5
f 189/4/5 183/4/5 182/4/5
f 189/5/5 182/5/5 188/5/5
f 190/3/5 184/3/5 183/3/5
f 190/4/5 183/4/5 189/4/5
f 191/3/5 185/3/5 177/3/5
f 192/3/5 185/3/5 191/3/5
f 193/4/5 187/4/5 186/4/5
f 194/5/5 188/5/5 187/5/5
f 194/4/5 187/4/5 193/4/5
f 195/4/5 189/4/5 188/4/5
f 195/5/5 188/5/5 194/5/5
f 196/4/5 189/4/5 195/4/5
f 197/3/5 184/3/5 190/3/5
f 198/3/5 184/3/5 197/3/5
f 199/4/5 195/4/5 194/4/5
f 200/4/5 195/4/5 199/4/5
f 201/3/5 200/3/5 199/3/5
f 202/3/5 200/3/5 201/3/5
f 207/3/5 204/3/5 203/3/5
f 208/3/5 204/3/5 207/3/5
f 209/3/5 206/3/5 205/3/5
f 210/3/5 206/3/5 209/3/5
f 211/4/6 212/4/6 213/4/6
f 213/4/6 212/4/6 214/4/6
f 215/4/6 216/4/6 220/4/6
f 217/4/6 218/4/6 221/4/6
f 219/4/6 220/4/6 224/4/6
f 220/4/6 216/4/6 225/4/6
f 224/4/6 220/4/6 225/4/6
f 225/4/6 216/4/6 226/4/6
f 221/4/6 222/4/6 227/4/6
f 217/4/6 221/4/6 227/4/6
f 227/4/6 222/4/6 228/4/6
f 228/4/6 222/4/6 229/4/6
f 223/3/6 224/3/6 231/3/6
f 224/4/6 225/4/6 231/4/6
f 225/5/6 226/5/6 232/5/6
f 231/4/6 225/4/6 232/4/6
f 232/5/6 226/5/6 233/5/6
f 227/5/6 228/5/6 234/5/6
f 228/4/6 229/4/6 235/4/6
f 234/5/6 228/5/6 235/5/6
f 229/3/6 230/3/6 236/3/6
f 235/4/6 229/4/6 236/4/6
f 223/3/6 231/3/6 237/3/6
f 237/3/6 231/3/6 238/3/6
f 232/4/6 233/4/6 239/4/6
f 239/4/6 233/4/6 240/4/6
f 234/4/6 235/4/6 241/4/6
f 241/4/6 235/4/6 242/4/6
f 236/3/6 230/3/6 243/3/6
f 243/3/6 230/3/6 244/3/6
f 245/4/6 246/4/6 247/4/6
f 247/4/6 246/4/6 248/4/6
f 247/2/6 248/2/6 249/2/6
f 249/2/6 248/2/6 250/2/6
f 249/4/6 250/4/6 252/4/6
f 252/4/6 250/4/6 253/4/6
f 251/3/6 252/3/6 255/3/6
f 255/3/6 252/3/6 256/3/6
f 253/3/6 254/3/6 257/3/6
f 257/3/6 254/3/6 258/3/6
f 259/3/6 260/3/6 261/3/6
f 261/3/6 260/3/6 262/3/6
