# MagicaVoxel @ Ephtracy

# group
g jeep

# material
mtllib jeep.mtl
usemtl palette

# normals
vn -1 0 0
vn 1 0 0
vn 0 0 1
vn 0 0 -1
vn 0 -1 0
vn 0 1 0

# texcoords
vt 0.185547 0.5
vt 0.634766 0.5
vt 0.677734 0.5
vt 0.908203 0.5
vt 0.982422 0.5
vt 0.994141 0.5

# verts
v -2 2 -3
v -2 2 -4
v -2 2 -8
v -2 2 -9
v -2 3 -3
v -2 3 -4
v -2 3 -8
v -2 3 -9
v -2 4 -3
v -2 4 -4
v -2 4 -8
v -2 4 -9
v -2 5 -3
v -2 5 -4
v -2 5 -5
v -2 5 -6
v -2 5 -8
v -2 6 -5
v -2 6 -6
v -1 4 -8
v -1 4 -9
v -1 5 -4
v -1 5 -5
v -1 5 -7
v -1 5 -8
v -1 5 -9
v -1 6 -4
v -1 6 -5
v -1 6 -6
v -1 6 -7
v -1 6 -8
v -1 7 -5
v -1 7 -6
v 1 2 -3
v 1 2 -4
v 1 2 -8
v 1 2 -9
v 1 3 -3
v 1 3 -4
v 1 3 -8
v 1 3 -9
v 1 4 -6
v 1 4 -7
v 1 5 -6
v 1 5 -7
v -1 2 -3
v -1 2 -4
v -1 2 -8
v -1 2 -9
v -1 3 -3
v -1 3 -4
v -1 3 -8
v -1 3 -9
v -1 4 -6
v -1 4 -7
v -1 5 -6
v -1 5 -7
v 1 4 -8
v 1 4 -9
v 1 5 -4
v 1 5 -5
v 1 5 -7
v 1 5 -8
v 1 5 -9
v 1 6 -4
v 1 6 -5
v 1 6 -6
v 1 6 -7
v 1 6 -8
v 1 7 -5
v 1 7 -6
v 2 2 -3
v 2 2 -4
v 2 2 -8
v 2 2 -9
v 2 3 -3
v 2 3 -4
v 2 3 -8
v 2 3 -9
v 2 4 -3
v 2 4 -4
v 2 4 -8
v 2 4 -9
v 2 5 -3
v 2 5 -4
v 2 5 -5
v 2 5 -6
v 2 5 -8
v 2 6 -5
v 2 6 -6
v -2 2 -3
v -2 3 -3
v -2 4 -3
v -2 5 -3
v -1 2 -3
v -1 3 -3
v -1 4 -3
v -1 5 -3
v 1 2 -3
v 1 3 -3
v 1 4 -3
v 1 5 -3
v 2 2 -3
v 2 3 -3
v 2 4 -3
v 2 5 -3
v -1 5 -4
v -1 6 -4
v 1 5 -4
v 1 6 -4
v -2 5 -5
v -2 6 -5
v -1 5 -5
v -1 6 -5
v -1 7 -5
v 1 5 -5
v 1 6 -5
v 1 7 -5
v 2 5 -5
v 2 6 -5
v -1 4 -7
v -1 5 -7
v -1 6 -7
v 1 4 -7
v 1 5 -7
v 1 6 -7
v -2 2 -8
v -2 3 -8
v -1 2 -8
v -1 3 -8
v 1 2 -8
v 1 3 -8
v 2 2 -8
v 2 3 -8
v -2 2 -4
v -2 3 -4
v -1 2 -4
v -1 3 -4
v 1 2 -4
v 1 3 -4
v 2 2 -4
v 2 3 -4
v -2 5 -6
v -2 6 -6
v -1 4 -6
v -1 5 -6
v -1 6 -6
v -1 7 -6
v 1 4 -6
v 1 5 -6
v 1 6 -6
v 1 7 -6
v 2 5 -6
v 2 6 -6
v -2 4 -8
v -2 5 -8
v -1 4 -8
v -1 5 -8
v -1 6 -8
v 1 4 -8
v 1 5 -8
v 1 6 -8
v 2 4 -8
v 2 5 -8
v -2 2 -9
v -2 3 -9
v -2 4 -9
v -1 2 -9
v -1 3 -9
v -1 4 -9
v -1 5 -9
v 1 2 -9
v 1 3 -9
v 1 4 -9
v 1 5 -9
v 2 2 -9
v 2 3 -9
v 2 4 -9
v -2 2 -3
v -1 2 -3
v 1 2 -3
v 2 2 -3
v -2 2 -4
v -1 2 -4
v 1 2 -4
v 2 2 -4
v -2 2 -8
v -1 2 -8
v 1 2 -8
v 2 2 -8
v -2 2 -9
v -1 2 -9
v 1 2 -9
v 2 2 -9
v -1 3 -3
v 1 3 -3
v -2 3 -4
v -1 3 -4
v 1 3 -4
v 2 3 -4
v -2 3 -8
v -1 3 -8
v 1 3 -8
v 2 3 -8
v -1 3 -9
v 1 3 -9
v -1 4 -6
v 1 4 -6
v -1 4 -7
v 1 4 -7
v -2 4 -8
v -1 4 -8
v 1 4 -8
v 2 4 -8
v -2 4 -9
v -1 4 -9
v 1 4 -9
v 2 4 -9
v -2 5 -3
v -1 5 -3
v 1 5 -3
v 2 5 -3
v -2 5 -4
v -1 5 -4
v 1 5 -4
v 2 5 -4
v -2 5 -5
v -1 5 -5
v 1 5 -5
v 2 5 -5
v -2 5 -6
v -1 5 -6
v 1 5 -6
v 2 5 -6
v -1 5 -7
v 1 5 -7
v -2 5 -8
v -1 5 -8
v 1 5 -8
v 2 5 -8
v -1 5 -9
v 1 5 -9
v -1 6 -4
v 1 6 -4
v -2 6 -5
v -1 6 -5
v 1 6 -5
v 2 6 -5
v -2 6 -6
v -1 6 -6
v 1 6 -6
v 2 6 -6
v -1 6 -7
v 1 6 -7
v -1 6 -8
v 1 6 -8
v -1 7 -5
v 1 7 -5
v -1 7 -6
v 1 7 -6

# faces
f 5/6/1 2/6/1 1/6/1
f 6/6/1 2/6/1 5/6/1
f 7/6/1 4/6/1 3/6/1
f 8/6/1 4/6/1 7/6/1
f 9/4/1 6/4/1 5/4/1
f 9/4/1 7/4/1 6/4/1
f 9/4/1 8/4/1 7/4/1
f 10/4/1 8/4/1 9/4/1
f 11/4/1 8/4/1 10/4/1
f 12/4/1 8/4/1 11/4/1
f 13/1/1 10/1/1 9/1/1
f 14/4/1 11/4/1 10/4/1
f 14/1/1 10/1/1 13/1/1
f 15/4/1 11/4/1 14/4/1
f 16/4/1 11/4/1 15/4/1
f 17/4/1 11/4/1 16/4/1
f 18/2/1 16/2/1 15/2/1
f 19/2/1 16/2/1 18/2/1
f 25/4/1 21/4/1 20/4/1
f 26/4/1 21/4/1 25/4/1
f 27/4/1 23/4/1 22/4/1
f 28/4/1 23/4/1 27/4/1
f 30/3/1 25/3/1 24/3/1
f 31/3/1 25/3/1 30/3/1
f 32/2/1 29/2/1 28/2/1
f 33/2/1 29/2/1 32/2/1
f 38/6/1 35/6/1 34/6/1
f 39/6/1 35/6/1 38/6/1
f 40/6/1 37/6/1 36/6/1
f 41/6/1 37/6/1 40/6/1
f 44/4/1 43/4/1 42/4/1
f 45/4/1 43/4/1 44/4/1
f 46/6/2 47/6/2 50/6/2
f 50/6/2 47/6/2 51/6/2
f 48/6/2 49/6/2 52/6/2
f 52/6/2 49/6/2 53/6/2
f 54/4/2 55/4/2 56/4/2
f 56/4/2 55/4/2 57/4/2
f 58/4/2 59/4/2 63/4/2
f 63/4/2 59/4/2 64/4/2
f 60/4/2 61/4/2 65/4/2
f 65/4/2 61/4/2 66/4/2
f 62/3/2 63/3/2 68/3/2
f 68/3/2 63/3/2 69/3/2
f 66/2/2 67/2/2 70/2/2
f 70/2/2 67/2/2 71/2/2
f 72/6/2 73/6/2 76/6/2
f 76/6/2 73/6/2 77/6/2
f 74/6/2 75/6/2 78/6/2
f 78/6/2 75/6/2 79/6/2
f 76/4/2 77/4/2 80/4/2
f 77/4/2 78/4/2 80/4/2
f 78/4/2 79/4/2 80/4/2
f 80/4/2 79/4/2 81/4/2
f 81/4/2 79/4/2 82/4/2
f 82/4/2 79/4/2 83/4/2
f 80/1/2 81/1/2 84/1/2
f 81/4/2 82/4/2 85/4/2
f 84/1/2 81/1/2 85/1/2
f 85/4/2 82/4/2 86/4/2
f 86/4/2 82/4/2 87/4/2
f 87/4/2 82/4/2 88/4/2
f 86/2/2 87/2/2 89/2/2
f 89/2/2 87/2/2 90/2/2
f 95/6/3 92/6/3 91/6/3
f 96/4/3 93/4/3 92/4/3
f 96/6/3 92/6/3 95/6/3
f 97/1/3 94/1/3 93/1/3
f 97/4/3 93/4/3 96/4/3
f 98/1/3 94/1/3 97/1/3
f 100/5/3 97/5/3 96/5/3
f 100/5/3 98/5/3 97/5/3
f 101/5/3 98/5/3 100/5/3
f 102/5/3 98/5/3 101/5/3
f 103/6/3 100/6/3 99/6/3
f 104/4/3 101/4/3 100/4/3
f 104/6/3 100/6/3 103/6/3
f 105/1/3 102/1/3 101/1/3
f 105/4/3 101/4/3 104/4/3
f 106/1/3 102/1/3 105/1/3
f 109/4/3 108/4/3 107/4/3
f 110/4/3 108/4/3 109/4/3
f 113/2/3 112/2/3 111/2/3
f 114/2/3 112/2/3 113/2/3
f 117/2/3 115/2/3 114/2/3
f 118/2/3 115/2/3 117/2/3
f 119/2/3 117/2/3 116/2/3
f 120/2/3 117/2/3 119/2/3
f 124/3/3 122/3/3 121/3/3
f 124/3/3 123/3/3 122/3/3
f 125/3/3 123/3/3 124/3/3
f 126/3/3 123/3/3 125/3/3
f 129/6/3 128/6/3 127/6/3
f 130/6/3 128/6/3 129/6/3
f 133/6/3 132/6/3 131/6/3
f 134/6/3 132/6/3 133/6/3
f 135/6/4 136/6/4 137/6/4
f 137/6/4 136/6/4 138/6/4
f 139/6/4 140/6/4 141/6/4
f 141/6/4 140/6/4 142/6/4
f 143/2/4 144/2/4 146/2/4
f 146/2/4 144/2/4 147/2/4
f 145/4/4 146/4/4 149/4/4
f 146/6/4 147/6/4 150/6/4
f 149/4/4 146/4/4 150/4/4
f 147/2/4 148/2/4 151/2/4
f 150/6/4 147/6/4 151/6/4
f 151/2/4 148/2/4 152/2/4
f 150/2/4 151/2/4 153/2/4
f 153/2/4 151/2/4 154/2/4
f 155/4/4 156/4/4 157/4/4
f 157/4/4 156/4/4 158/4/4
f 158/3/4 159/3/4 161/3/4
f 161/3/4 159/3/4 162/3/4
f 160/4/4 161/4/4 163/4/4
f 163/4/4 161/4/4 164/4/4
f 165/6/4 166/6/4 168/6/4
f 166/4/4 167/4/4 169/4/4
f 168/6/4 166/6/4 169/6/4
f 169/4/4 167/4/4 170/4/4
f 170/4/4 171/4/4 173/4/4
f 169/4/4 170/4/4 173/4/4
f 173/4/4 171/4/4 174/4/4
f 174/4/4 171/4/4 175/4/4
f 172/6/4 173/6/4 176/6/4
f 173/4/4 174/4/4 177/4/4
f 176/6/4 173/6/4 177/6/4
f 177/4/4 174/4/4 178/4/4
f 183/6/5 180/6/5 179/6/5
f 184/6/5 180/6/5 183/6/5
f 185/6/5 182/6/5 181/6/5
f 186/6/5 182/6/5 185/6/5
f 191/6/5 188/6/5 187/6/5
f 192/6/5 188/6/5 191/6/5
f 193/6/5 190/6/5 189/6/5
f 194/6/5 190/6/5 193/6/5
f 198/5/5 196/5/5 195/5/5
f 199/5/5 196/5/5 198/5/5
f 201/4/5 198/4/5 197/4/5
f 201/4/5 200/4/5 199/4/5
f 201/4/5 199/4/5 198/4/5
f 202/4/5 200/4/5 201/4/5
f 203/4/5 200/4/5 202/4/5
f 204/4/5 200/4/5 203/4/5
f 205/4/5 203/4/5 202/4/5
f 206/4/5 203/4/5 205/4/5
f 207/4/6 208/4/6 209/4/6
f 209/4/6 208/4/6 210/4/6
f 211/4/6 212/4/6 215/4/6
f 215/4/6 212/4/6 216/4/6
f 213/4/6 214/4/6 217/4/6
f 217/4/6 214/4/6 218/4/6
f 219/1/6 220/1/6 223/1/6
f 220/5/6 221/5/6 224/5/6
f 223/1/6 220/1/6 224/1/6
f 221/1/6 222/1/6 225/1/6
f 224/5/6 221/5/6 225/5/6
f 225/1/6 222/1/6 226/1/6
f 223/4/6 224/4/6 227/4/6
f 227/4/6 224/4/6 228/4/6
f 225/4/6 226/4/6 229/4/6
f 229/4/6 226/4/6 230/4/6
f 231/4/6 232/4/6 235/4/6
f 233/4/6 234/4/6 236/4/6
f 231/4/6 235/4/6 237/4/6
f 237/4/6 235/4/6 238/4/6
f 236/4/6 234/4/6 239/4/6
f 239/4/6 234/4/6 240/4/6
f 238/4/6 239/4/6 241/4/6
f 241/4/6 239/4/6 242/4/6
f 243/4/6 244/4/6 246/4/6
f 246/4/6 244/4/6 247/4/6
f 245/2/6 246/2/6 249/2/6
f 249/2/6 246/2/6 250/2/6
f 247/2/6 248/2/6 251/2/6
f 251/2/6 248/2/6 252/2/6
f 253/3/6 254/3/6 255/3/6
f 255/3/6 254/3/6 256/3/6
f 257/2/6 258/2/6 259/2/6
f 259/2/6 258/2/6 260/2/6
