# MagicaVoxel @ Ephtracy

# group
g tank

# material
mtllib tank.mtl
usemtl palette

# normals
vn -1 0 0
vn 1 0 0
vn 0 0 1
vn 0 0 -1
vn 0 -1 0
vn 0 1 0

# texcoords
vt 0.904297 0.5
vt 0.982422 0.5
vt 0.994141 0.5

# verts
v -3 20 2
v -3 20 1
v -3 20 -2
v -3 20 -3
v -3 21 2
v -3 21 1
v -3 21 -0
v -3 21 -1
v -3 21 -2
v -3 21 -3
v -3 22 -0
v -3 22 -1
v -2 19 2
v -2 19 1
v -2 19 -2
v -2 19 -3
v -2 20 2
v -2 20 1
v -2 20 -2
v -2 20 -3
v -2 21 2
v -2 21 1
v -2 21 -0
v -2 21 -1
v -2 21 -2
v -2 21 -3
v -2 22 2
v -2 22 1
v -2 22 -0
v -2 22 -1
v -2 22 -2
v -2 22 -3
v -2 23 -0
v -2 23 -1
v -1 22 1
v -1 22 -0
v -1 22 -1
v -1 22 -2
v -1 23 1
v -1 23 -0
v -1 23 -1
v -1 23 -2
v -1 24 -0
v -1 24 -1
v 2 22 1
v 2 22 -2
v 2 23 1
v 2 23 -0
v 2 23 -1
v 2 23 -2
v 3 21 1
v 3 21 -2
v 3 22 1
v 3 22 -2
v 3 23 -0
v 3 23 -1
v 3 24 -0
v 3 24 -1
v 4 19 2
v 4 19 1
v 4 19 -2
v 4 19 -3
v 4 20 2
v 4 20 1
v 4 20 -2
v 4 20 -3
v 4 21 2
v 4 21 1
v 4 21 -2
v 4 21 -3
v 4 22 2
v 4 22 1
v 4 22 -2
v 4 22 -3
v 5 20 2
v 5 20 1
v 5 20 -2
v 5 20 -3
v 5 21 2
v 5 21 1
v 5 21 -2
v 5 21 -3
v -3 20 2
v -3 21 2
v -2 19 2
v -2 20 2
v -2 21 2
v -2 22 2
v 4 19 2
v 4 20 2
v 4 21 2
v 4 22 2
v 5 20 2
v 5 21 2
v -1 22 1
v -1 23 1
v 2 22 1
v 2 23 1
v -3 21 -0
v -3 22 -0
v -2 21 -0
v -2 22 -0
v -2 23 -0
v -1 22 -0
v -1 23 -0
v -1 24 -0
v 1 23 -0
v 1 24 -0
v 2 23 -0
v 3 23 -0
v 3 24 -0
v -2 19 -2
v -2 20 -2
v 3 21 -2
v 3 22 -2
v 4 19 -2
v 4 20 -2
v 4 21 -2
v 4 22 -2
v 5 20 -2
v 5 21 -2
v -2 19 1
v -2 20 1
v 3 21 1
v 3 22 1
v 4 19 1
v 4 20 1
v 4 21 1
v 4 22 1
v 5 20 1
v 5 21 1
v -3 21 -1
v -3 22 -1
v -2 21 -1
v -2 22 -1
v -2 23 -1
v -1 22 -1
v -1 23 -1
v -1 24 -1
v 1 23 -1
v 1 24 -1
v 2 23 -1
v 3 23 -1
v 3 24 -1
v -1 22 -2
v -1 23 -2
v 2 22 -2
v 2 23 -2
v -3 20 -3
v -3 21 -3
v -2 19 -3
v -2 20 -3
v -2 21 -3
v -2 22 -3
v 4 19 -3
v 4 20 -3
v 4 21 -3
v 4 22 -3
v 5 20 -3
v 5 21 -3
v -2 19 2
v 4 19 2
v -2 19 1
v 4 19 1
v -2 19 -2
v 4 19 -2
v -2 19 -3
v 4 19 -3
v -3 20 2
v -2 20 2
v 4 20 2
v 5 20 2
v -3 20 1
v -2 20 1
v 4 20 1
v 5 20 1
v -3 20 -2
v -2 20 -2
v 4 20 -2
v 5 20 -2
v -3 20 -3
v -2 20 -3
v 4 20 -3
v 5 20 -3
v 2 23 -0
v 3 23 -0
v 2 23 -1
v 3 23 -1
v -3 21 2
v -2 21 2
v 4 21 2
v 5 21 2
v -3 21 1
v -2 21 1
v 3 21 1
v 4 21 1
v 5 21 1
v -3 21 -0
v -2 21 -0
v -3 21 -1
v -2 21 -1
v -3 21 -2
v -2 21 -2
v 3 21 -2
v 4 21 -2
v 5 21 -2
v -3 21 -3
v -2 21 -3
v 4 21 -3
v 5 21 -3
v -2 22 2
v 4 22 2
v -2 22 1
v -1 22 1
v 2 22 1
v 3 22 1
v 4 22 1
v -3 22 -0
v -2 22 -0
v -1 22 -0
v -3 22 -1
v -2 22 -1
v -1 22 -1
v -2 22 -2
v -1 22 -2
v 2 22 -2
v 3 22 -2
v 4 22 -2
v -2 22 -3
v 4 22 -3
v -1 23 1
v 2 23 1
v -2 23 -0
v -1 23 -0
v 1 23 -0
v 2 23 -0
v -2 23 -1
v -1 23 -1
v 1 23 -1
v 2 23 -1
v -1 23 -2
v 2 23 -2
v -1 24 -0
v 1 24 -0
v 3 24 -0
v -1 24 -1
v 1 24 -1
v 3 24 -1

# faces
f 5/3/1 2/3/1 1/3/1
f 6/1/1 3/1/1 2/1/1
f 6/3/1 2/3/1 5/3/1
f 7/1/1 3/1/1 6/1/1
f 8/1/1 3/1/1 7/1/1
f 9/3/1 4/3/1 3/3/1
f 9/1/1 3/1/1 8/1/1
f 10/3/1 4/3/1 9/3/1
f 11/1/1 8/1/1 7/1/1
f 12/1/1 8/1/1 11/1/1
f 17/3/1 14/3/1 13/3/1
f 18/3/1 14/3/1 17/3/1
f 19/3/1 16/3/1 15/3/1
f 20/3/1 16/3/1 19/3/1
f 27/3/1 22/3/1 21/3/1
f 28/1/1 23/1/1 22/1/1
f 28/3/1 22/3/1 27/3/1
f 29/1/1 23/1/1 28/1/1
f 30/1/1 25/1/1 24/1/1
f 31/3/1 26/3/1 25/3/1
f 31/1/1 25/1/1 30/1/1
f 32/3/1 26/3/1 31/3/1
f 33/1/1 30/1/1 29/1/1
f 34/1/1 30/1/1 33/1/1
f 39/1/1 36/1/1 35/1/1
f 40/1/1 36/1/1 39/1/1
f 41/1/1 38/1/1 37/1/1
f 42/1/1 38/1/1 41/1/1
f 43/1/1 41/1/1 40/1/1
f 44/1/1 41/1/1 43/1/1
f 45/1/2 46/1/2 47/1/2
f 47/1/2 46/1/2 48/1/2
f 48/1/2 46/1/2 49/1/2
f 49/1/2 46/1/2 50/1/2
f 51/1/2 52/1/2 53/1/2
f 53/1/2 52/1/2 54/1/2
f 55/2/2 56/2/2 57/2/2
f 57/2/2 56/2/2 58/2/2
f 59/3/2 60/3/2 63/3/2
f 63/3/2 60/3/2 64/3/2
f 61/3/2 62/3/2 65/3/2
f 65/3/2 62/3/2 66/3/2
f 64/1/2 65/1/2 68/1/2
f 68/1/2 65/1/2 69/1/2
f 67/3/2 68/3/2 71/3/2
f 71/3/2 68/3/2 72/3/2
f 69/3/2 70/3/2 73/3/2
f 73/3/2 70/3/2 74/3/2
f 75/3/2 76/3/2 79/3/2
f 79/3/2 76/3/2 80/3/2
f 77/3/2 78/3/2 81/3/2
f 81/3/2 78/3/2 82/3/2
f 86/3/3 84/3/3 83/3/3
f 87/3/3 84/3/3 86/3/3
f 89/3/3 86/3/3 85/3/3
f 90/2/3 87/2/3 86/2/3
f 90/3/3 86/3/3 89/3/3
f 91/3/3 88/3/3 87/3/3
f 91/2/3 87/2/3 90/2/3
f 92/3/3 88/3/3 91/3/3
f 93/3/3 91/3/3 90/3/3
f 94/3/3 91/3/3 93/3/3
f 97/1/3 96/1/3 95/1/3
f 98/1/3 96/1/3 97/1/3
f 101/1/3 100/1/3 99/1/3
f 102/1/3 100/1/3 101/1/3
f 104/1/3 103/1/3 102/1/3
f 105/1/3 103/1/3 104/1/3
f 107/1/3 106/1/3 105/1/3
f 108/1/3 106/1/3 107/1/3
f 109/2/3 108/2/3 107/2/3
f 110/2/3 108/2/3 109/2/3
f 111/2/3 108/2/3 110/2/3
f 116/3/3 113/3/3 112/3/3
f 117/3/3 113/3/3 116/3/3
f 118/3/3 115/3/3 114/3/3
f 119/3/3 115/3/3 118/3/3
f 120/3/3 118/3/3 117/3/3
f 121/3/3 118/3/3 120/3/3
f 122/3/4 123/3/4 126/3/4
f 126/3/4 123/3/4 127/3/4
f 124/3/4 125/3/4 128/3/4
f 128/3/4 125/3/4 129/3/4
f 127/3/4 128/3/4 130/3/4
f 130/3/4 128/3/4 131/3/4
f 132/1/4 133/1/4 134/1/4
f 134/1/4 133/1/4 135/1/4
f 135/1/4 136/1/4 137/1/4
f 137/1/4 136/1/4 138/1/4
f 138/1/4 139/1/4 140/1/4
f 140/1/4 139/1/4 141/1/4
f 140/2/4 141/2/4 142/2/4
f 142/2/4 141/2/4 143/2/4
f 143/2/4 141/2/4 144/2/4
f 145/1/4 146/1/4 147/1/4
f 147/1/4 146/1/4 148/1/4
f 149/3/4 150/3/4 152/3/4
f 152/3/4 150/3/4 153/3/4
f 151/3/4 152/3/4 155/3/4
f 152/2/4 153/2/4 156/2/4
f 155/3/4 152/3/4 156/3/4
f 153/3/4 154/3/4 157/3/4
f 156/2/4 153/2/4 157/2/4
f 157/3/4 154/3/4 158/3/4
f 156/3/4 157/3/4 159/3/4
f 159/3/4 157/3/4 160/3/4
f 163/3/5 162/3/5 161/3/5
f 164/3/5 162/3/5 163/3/5
f 167/3/5 166/3/5 165/3/5
f 168/3/5 166/3/5 167/3/5
f 173/3/5 170/3/5 169/3/5
f 174/3/5 170/3/5 173/3/5
f 175/3/5 172/3/5 171/3/5
f 176/3/5 172/3/5 175/3/5
f 177/1/5 174/1/5 173/1/5
f 177/1/5 175/1/5 174/1/5
f 178/1/5 175/1/5 177/1/5
f 179/1/5 175/1/5 178/1/5
f 181/3/5 178/3/5 177/3/5
f 182/3/5 178/3/5 181/3/5
f 183/3/5 180/3/5 179/3/5
f 184/3/5 180/3/5 183/3/5
f 187/2/5 186/2/5 185/2/5
f 188/2/5 186/2/5 187/2/5
f 189/3/6 190/3/6 193/3/6
f 193/3/6 190/3/6 194/3/6
f 191/3/6 192/3/6 196/3/6
f 196/3/6 192/3/6 197/3/6
f 193/1/6 194/1/6 198/1/6
f 198/1/6 194/1/6 199/1/6
f 200/1/6 201/1/6 202/1/6
f 202/1/6 201/1/6 203/1/6
f 195/1/6 196/1/6 204/1/6
f 204/1/6 196/1/6 205/1/6
f 202/3/6 203/3/6 207/3/6
f 207/3/6 203/3/6 208/3/6
f 205/3/6 206/3/6 209/3/6
f 209/3/6 206/3/6 210/3/6
f 211/3/6 212/3/6 213/3/6
f 213/3/6 212/3/6 214/3/6
f 214/3/6 212/3/6 215/3/6
f 215/3/6 212/3/6 216/3/6
f 216/3/6 212/3/6 217/3/6
f 213/1/6 214/1/6 219/1/6
f 219/1/6 214/1/6 220/1/6
f 218/1/6 219/1/6 221/1/6
f 221/1/6 219/1/6 222/1/6
f 222/1/6 223/1/6 224/1/6
f 224/1/6 223/1/6 225/1/6
f 215/1/6 216/1/6 226/1/6
f 226/1/6 216/1/6 227/1/6
f 224/3/6 225/3/6 229/3/6
f 227/3/6 228/3/6 229/3/6
f 226/3/6 227/3/6 229/3/6
f 225/3/6 226/3/6 229/3/6
f 229/3/6 228/3/6 230/3/6
f 231/1/6 232/1/6 234/1/6
f 234/1/6 232/1/6 235/1/6
f 235/1/6 232/1/6 236/1/6
f 233/1/6 234/1/6 237/1/6
f 237/1/6 234/1/6 238/1/6
f 239/1/6 240/1/6 241/1/6
f 238/1/6 239/1/6 241/1/6
f 241/1/6 240/1/6 242/1/6
f 243/1/6 244/1/6 246/1/6
f 244/2/6 245/2/6 247/2/6
f 246/1/6 244/1/6 247/1/6
f 247/2/6 245/2/6 248/2/6
