# MagicaVoxel @ Ephtracy

# group
g bombardier

# material
mtllib bombardier.mtl
usemtl palette

# normals
vn -1 0 0
vn 1 0 0
vn 0 0 1
vn 0 0 -1
vn 0 -1 0
vn 0 1 0

# texcoords
vt 0.255859 0.5
vt 0.634766 0.5
vt 0.666016 0.5
vt 0.982422 0.5
vt 0.990234 0.5

# verts
v -7 8 -1
v -7 8 -2
v -7 9 -1
v -7 9 -2
v -6 8 -0
v -6 8 -1
v -6 8 -2
v -6 8 -3
v -6 9 -0
v -6 9 -1
v -6 9 -2
v -6 9 -3
v -5 8 1
v -5 8 -0
v -5 9 1
v -5 9 -0
v -4 8 2
v -4 8 1
v -4 9 2
v -4 9 1
v -4 9 -4
v -4 9 -5
v -4 10 -4
v -4 10 -5
v -3 9 -3
v -3 9 -4
v -3 10 -3
v -3 10 -4
v -2 8 3
v -2 8 2
v -2 9 3
v -2 9 2
v -2 9 -3
v -2 10 2
v -2 10 -2
v -2 10 -3
v -2 10 -5
v -2 11 -2
v -2 11 -5
v -1 8 4
v -1 8 3
v -1 8 -3
v -1 8 -5
v -1 9 4
v -1 9 3
v -1 9 2
v -1 9 -3
v -1 9 -5
v -1 10 3
v -1 10 2
v -1 10 -0
v -1 10 -2
v -1 11 2
v -1 11 -0
v -1 11 -2
v -1 11 -5
v -1 12 -2
v -1 12 -4
v -1 13 -4
v -1 13 -5
v 0 8 4
v 0 8 3
v 0 8 -3
v 0 8 -5
v 0 9 4
v 0 9 3
v 0 9 2
v 0 9 -3
v 0 9 -5
v 0 10 3
v 0 10 2
v 0 10 -0
v 0 10 -2
v 0 11 2
v 0 11 -0
v 0 11 -2
v 0 11 -5
v 0 12 -2
v 0 12 -4
v 0 13 -4
v 0 13 -5
v 1 8 3
v 1 8 2
v 1 9 3
v 1 9 2
v 1 9 -3
v 1 10 2
v 1 10 -2
v 1 10 -3
v 1 10 -5
v 1 11 -2
v 1 11 -5
v 2 9 -3
v 2 9 -4
v 2 10 -3
v 2 10 -4
v 3 8 2
v 3 8 1
v 3 9 2
v 3 9 1
v 3 9 -4
v 3 9 -5
v 3 10 -4
v 3 10 -5
v 4 8 1
v 4 8 -0
v 4 9 1
v 4 9 -0
v 5 8 -0
v 5 8 -1
v 5 8 -2
v 5 8 -3
v 5 9 -0
v 5 9 -1
v 5 9 -2
v 5 9 -3
v 6 8 -1
v 6 8 -2
v 6 9 -1
v 6 9 -2
v -1 8 4
v -1 9 4
v 0 8 4
v 0 9 4
v -2 8 3
v -2 9 3
v -1 8 3
v -1 9 3
v -1 10 3
v 0 8 3
v 0 9 3
v 0 10 3
v 1 8 3
v 1 9 3
v -4 8 2
v -4 9 2
v -2 8 2
v -2 9 2
v -2 10 2
v -1 9 2
v -1 10 2
v -1 11 2
v 0 9 2
v 0 10 2
v 0 11 2
v 1 8 2
v 1 9 2
v 1 10 2
v 3 8 2
v 3 9 2
v -5 8 1
v -5 9 1
v -4 8 1
v -4 9 1
v 3 8 1
v 3 9 1
v 4 8 1
v 4 9 1
v -6 8 -0
v -6 9 -0
v -5 8 -0
v -5 9 -0
v 4 8 -0
v 4 9 -0
v 5 8 -0
v 5 9 -0
v -7 8 -1
v -7 9 -1
v -6 8 -1
v -6 9 -1
v 5 8 -1
v 5 9 -1
v 6 8 -1
v 6 9 -1
v -2 10 -2
v -2 11 -2
v -1 10 -2
v -1 11 -2
v -1 12 -2
v 0 10 -2
v 0 11 -2
v 0 12 -2
v 1 10 -2
v 1 11 -2
v -3 9 -3
v -3 10 -3
v -2 9 -3
v -2 10 -3
v 1 9 -3
v 1 10 -3
v 2 9 -3
v 2 10 -3
v -4 9 -4
v -4 10 -4
v -3 9 -4
v -3 10 -4
v -1 12 -4
v -1 13 -4
v 0 12 -4
v 0 13 -4
v 2 9 -4
v 2 10 -4
v 3 9 -4
v 3 10 -4
v -7 8 -2
v -7 9 -2
v -6 8 -2
v -6 9 -2
v 5 8 -2
v 5 9 -2
v 6 8 -2
v 6 9 -2
v -6 8 -3
v -6 9 -3
v -3 8 -3
v -3 9 -3
v -1 8 -3
v -1 9 -3
v 0 8 -3
v 0 9 -3
v 2 8 -3
v 2 9 -3
v 5 8 -3
v 5 9 -3
v -4 9 -5
v -4 10 -5
v -2 10 -5
v -2 11 -5
v -1 8 -5
v -1 9 -5
v -1 10 -5
v -1 11 -5
v -1 13 -5
v 0 8 -5
v 0 9 -5
v 0 10 -5
v 0 11 -5
v 0 13 -5
v 1 10 -5
v 1 11 -5
v 3 9 -5
v 3 10 -5
v -1 8 4
v 0 8 4
v -2 8 3
v -1 8 3
v 0 8 3
v 1 8 3
v -4 8 2
v -2 8 2
v 1 8 2
v 3 8 2
v -5 8 1
v -4 8 1
v -1 8 1
v 0 8 1
v 3 8 1
v 4 8 1
v -6 8 -0
v -5 8 -0
v 4 8 -0
v 5 8 -0
v -7 8 -1
v -6 8 -1
v -2 8 -1
v -1 8 -1
v 0 8 -1
v 1 8 -1
v 5 8 -1
v 6 8 -1
v -7 8 -2
v -6 8 -2
v -3 8 -2
v -2 8 -2
v 1 8 -2
v 2 8 -2
v 5 8 -2
v 6 8 -2
v -6 8 -3
v -3 8 -3
v -1 8 -3
v 0 8 -3
v 2 8 -3
v 5 8 -3
v -1 8 -5
v 0 8 -5
v -3 9 -3
v -1 9 -3
v 0 9 -3
v 2 9 -3
v -4 9 -4
v -3 9 -4
v 2 9 -4
v 3 9 -4
v -4 9 -5
v -1 9 -5
v 0 9 -5
v 3 9 -5
v -1 9 4
v 0 9 4
v -2 9 3
v -1 9 3
v 0 9 3
v 1 9 3
v -4 9 2
v -2 9 2
v -1 9 2
v 0 9 2
v 1 9 2
v 3 9 2
v -5 9 1
v -4 9 1
v 3 9 1
v 4 9 1
v -6 9 -0
v -5 9 -0
v 4 9 -0
v 5 9 -0
v -7 9 -1
v -6 9 -1
v 5 9 -1
v 6 9 -1
v -7 9 -2
v -6 9 -2
v -3 9 -2
v 2 9 -2
v 5 9 -2
v 6 9 -2
v -6 9 -3
v -3 9 -3
v -2 9 -3
v 1 9 -3
v 2 9 -3
v 5 9 -3
v -1 10 3
v 0 10 3
v -2 10 2
v -1 10 2
v 0 10 2
v 1 10 2
v -1 10 -0
v 0 10 -0
v -2 10 -2
v -1 10 -2
v 0 10 -2
v 1 10 -2
v -3 10 -3
v -2 10 -3
v 1 10 -3
v 2 10 -3
v -4 10 -4
v -3 10 -4
v 2 10 -4
v 3 10 -4
v -4 10 -5
v -2 10 -5
v 1 10 -5
v 3 10 -5
v -1 11 2
v 0 11 2
v -1 11 -0
v 0 11 -0
v -2 11 -2
v -1 11 -2
v 0 11 -2
v 1 11 -2
v -2 11 -5
v -1 11 -5
v 0 11 -5
v 1 11 -5
v -1 12 -2
v 0 12 -2
v -1 12 -4
v 0 12 -4
v -1 13 -4
v 0 13 -4
v -1 13 -5
v 0 13 -5

# faces
f 3/5/1 2/5/1 1/5/1
f 4/5/1 2/5/1 3/5/1
f 9/5/1 6/5/1 5/5/1
f 10/5/1 6/5/1 9/5/1
f 11/4/1 8/4/1 7/4/1
f 12/4/1 8/4/1 11/4/1
f 15/5/1 14/5/1 13/5/1
f 16/5/1 14/5/1 15/5/1
f 19/5/1 18/5/1 17/5/1
f 20/5/1 18/5/1 19/5/1
f 23/5/1 22/5/1 21/5/1
f 24/5/1 22/5/1 23/5/1
f 27/5/1 26/5/1 25/5/1
f 28/5/1 26/5/1 27/5/1
f 31/5/1 30/5/1 29/5/1
f 32/5/1 30/5/1 31/5/1
f 34/5/1 33/5/1 32/5/1
f 35/5/1 33/5/1 34/5/1
f 36/5/1 33/5/1 35/5/1
f 38/5/1 37/5/1 36/5/1
f 38/5/1 36/5/1 35/5/1
f 39/5/1 37/5/1 38/5/1
f 44/5/1 41/5/1 40/5/1
f 45/5/1 41/5/1 44/5/1
f 47/5/1 43/5/1 42/5/1
f 48/5/1 43/5/1 47/5/1
f 49/5/1 46/5/1 45/5/1
f 50/5/1 46/5/1 49/5/1
f 53/3/1 51/3/1 50/3/1
f 54/5/1 52/5/1 51/5/1
f 54/3/1 51/3/1 53/3/1
f 55/5/1 52/5/1 54/5/1
f 57/5/1 56/5/1 55/5/1
f 58/5/1 56/5/1 57/5/1
f 59/5/1 56/5/1 58/5/1
f 60/5/1 56/5/1 59/5/1
f 61/5/2 62/5/2 65/5/2
f 65/5/2 62/5/2 66/5/2
f 63/5/2 64/5/2 68/5/2
f 68/5/2 64/5/2 69/5/2
f 66/5/2 67/5/2 70/5/2
f 70/5/2 67/5/2 71/5/2
f 71/3/2 72/3/2 74/3/2
f 72/5/2 73/5/2 75/5/2
f 74/3/2 72/3/2 75/3/2
f 75/5/2 73/5/2 76/5/2
f 76/5/2 77/5/2 78/5/2
f 78/5/2 77/5/2 79/5/2
f 79/5/2 77/5/2 80/5/2
f 80/5/2 77/5/2 81/5/2
f 82/5/2 83/5/2 84/5/2
f 84/5/2 83/5/2 85/5/2
f 85/5/2 86/5/2 87/5/2
f 87/5/2 86/5/2 88/5/2
f 88/5/2 86/5/2 89/5/2
f 89/5/2 90/5/2 91/5/2
f 88/5/2 89/5/2 91/5/2
f 91/5/2 90/5/2 92/5/2
f 93/5/2 94/5/2 95/5/2
f 95/5/2 94/5/2 96/5/2
f 97/5/2 98/5/2 99/5/2
f 99/5/2 98/5/2 100/5/2
f 101/5/2 102/5/2 103/5/2
f 103/5/2 102/5/2 104/5/2
f 105/5/2 106/5/2 107/5/2
f 107/5/2 106/5/2 108/5/2
f 109/5/2 110/5/2 113/5/2
f 113/5/2 110/5/2 114/5/2
f 111/4/2 112/4/2 115/4/2
f 115/4/2 112/4/2 116/4/2
f 117/5/2 118/5/2 119/5/2
f 119/5/2 118/5/2 120/5/2
f 123/5/3 122/5/3 121/5/3
f 124/5/3 122/5/3 123/5/3
f 127/5/3 126/5/3 125/5/3
f 128/5/3 126/5/3 127/5/3
f 131/5/3 129/5/3 128/5/3
f 132/5/3 129/5/3 131/5/3
f 133/5/3 131/5/3 130/5/3
f 134/5/3 131/5/3 133/5/3
f 137/5/3 136/5/3 135/5/3
f 138/5/3 136/5/3 137/5/3
f 140/5/3 139/5/3 138/5/3
f 141/5/3 139/5/3 140/5/3
f 144/3/3 142/3/3 141/3/3
f 145/3/3 142/3/3 144/3/3
f 147/5/3 144/5/3 143/5/3
f 148/5/3 144/5/3 147/5/3
f 149/5/3 147/5/3 146/5/3
f 150/5/3 147/5/3 149/5/3
f 153/5/3 152/5/3 151/5/3
f 154/5/3 152/5/3 153/5/3
f 157/5/3 156/5/3 155/5/3
f 158/5/3 156/5/3 157/5/3
f 161/5/3 160/5/3 159/5/3
f 162/5/3 160/5/3 161/5/3
f 165/5/3 164/5/3 163/5/3
f 166/5/3 164/5/3 165/5/3
f 169/5/3 168/5/3 167/5/3
f 170/5/3 168/5/3 169/5/3
f 173/5/3 172/5/3 171/5/3
f 174/5/3 172/5/3 173/5/3
f 177/5/3 176/5/3 175/5/3
f 178/5/3 176/5/3 177/5/3
f 181/5/3 179/5/3 178/5/3
f 182/5/3 179/5/3 181/5/3
f 183/5/3 181/5/3 180/5/3
f 184/5/3 181/5/3 183/5/3
f 187/5/3 186/5/3 185/5/3
f 188/5/3 186/5/3 187/5/3
f 191/5/3 190/5/3 189/5/3
f 192/5/3 190/5/3 191/5/3
f 195/5/3 194/5/3 193/5/3
f 196/5/3 194/5/3 195/5/3
f 199/5/3 198/5/3 197/5/3
f 200/5/3 198/5/3 199/5/3
f 203/5/3 202/5/3 201/5/3
f 204/5/3 202/5/3 203/5/3
f 205/5/4 206/5/4 207/5/4
f 207/5/4 206/5/4 208/5/4
f 209/5/4 210/5/4 211/5/4
f 211/5/4 210/5/4 212/5/4
f 213/4/4 214/4/4 215/4/4
f 215/4/4 214/4/4 216/4/4
f 215/5/4 216/5/4 217/5/4
f 217/5/4 216/5/4 218/5/4
f 219/5/4 220/5/4 221/5/4
f 221/5/4 220/5/4 222/5/4
f 221/4/4 222/4/4 223/4/4
f 223/4/4 222/4/4 224/4/4
f 225/5/4 226/5/4 227/5/4
f 225/5/4 227/5/4 230/5/4
f 227/5/4 228/5/4 230/5/4
f 230/5/4 228/5/4 231/5/4
f 231/5/4 228/5/4 232/5/4
f 229/5/4 230/5/4 234/5/4
f 230/1/4 231/1/4 235/1/4
f 234/5/4 230/5/4 235/5/4
f 232/5/4 233/5/4 236/5/4
f 235/1/4 231/1/4 236/1/4
f 231/5/4 232/5/4 236/5/4
f 236/5/4 233/5/4 237/5/4
f 237/5/4 233/5/4 238/5/4
f 235/5/4 236/5/4 239/5/4
f 236/5/4 237/5/4 239/5/4
f 239/5/4 237/5/4 240/5/4
f 235/5/4 239/5/4 241/5/4
f 241/5/4 239/5/4 242/5/4
f 246/5/5 244/5/5 243/5/5
f 247/5/5 244/5/5 246/5/5
f 250/5/5 246/5/5 245/5/5
f 250/5/5 248/5/5 247/5/5
f 250/5/5 247/5/5 246/5/5
f 251/5/5 248/5/5 250/5/5
f 254/5/5 250/5/5 249/5/5
f 254/5/5 252/5/5 251/5/5
f 254/5/5 251/5/5 250/5/5
f 255/5/5 252/5/5 254/5/5
f 256/5/5 252/5/5 255/5/5
f 257/5/5 252/5/5 256/5/5
f 260/5/5 254/5/5 253/5/5
f 260/5/5 255/5/5 254/5/5
f 261/5/5 258/5/5 257/5/5
f 261/5/5 257/5/5 256/5/5
f 264/5/5 260/5/5 259/5/5
f 265/5/5 255/5/5 260/5/5
f 265/5/5 260/5/5 264/5/5
f 266/4/5 256/4/5 255/4/5
f 266/5/5 255/5/5 265/5/5
f 267/5/5 262/5/5 261/5/5
f 267/4/5 256/4/5 266/4/5
f 267/5/5 261/5/5 256/5/5
f 268/5/5 262/5/5 267/5/5
f 269/5/5 262/5/5 268/5/5
f 271/5/5 264/5/5 263/5/5
f 271/5/5 265/5/5 264/5/5
f 272/5/5 265/5/5 271/5/5
f 273/5/5 265/5/5 272/5/5
f 274/4/5 266/4/5 265/4/5
f 274/5/5 265/5/5 273/5/5
f 274/4/5 267/4/5 266/4/5
f 274/4/5 268/4/5 267/4/5
f 275/5/5 270/5/5 269/5/5
f 275/4/5 268/4/5 274/4/5
f 275/5/5 269/5/5 268/5/5
f 276/5/5 270/5/5 275/5/5
f 277/5/5 270/5/5 276/5/5
f 278/5/5 270/5/5 277/5/5
f 279/4/5 273/4/5 272/4/5
f 280/5/5 274/5/5 273/5/5
f 280/4/5 273/4/5 279/4/5
f 280/5/5 275/5/5 274/5/5
f 280/5/5 276/5/5 275/5/5
f 281/5/5 276/5/5 280/5/5
f 282/5/5 276/5/5 281/5/5
f 283/4/5 277/4/5 276/4/5
f 283/5/5 276/5/5 282/5/5
f 284/4/5 277/4/5 283/4/5
f 285/5/5 282/5/5 281/5/5
f 286/5/5 282/5/5 285/5/5
f 292/5/5 288/5/5 287/5/5
f 293/5/5 290/5/5 289/5/5
f 295/5/5 292/5/5 291/5/5
f 296/5/5 288/5/5 292/5/5
f 296/5/5 292/5/5 295/5/5
f 297/5/5 294/5/5 293/5/5
f 297/5/5 293/5/5 289/5/5
f 298/5/5 294/5/5 297/5/5
f 299/5/6 300/5/6 302/5/6
f 302/5/6 300/5/6 303/5/6
f 301/5/6 302/5/6 306/5/6
f 306/5/6 302/5/6 307/5/6
f 303/5/6 304/5/6 308/5/6
f 308/5/6 304/5/6 309/5/6
f 305/5/6 306/5/6 312/5/6
f 309/5/6 310/5/6 313/5/6
f 311/5/6 312/5/6 316/5/6
f 313/5/6 314/5/6 317/5/6
f 315/5/6 316/5/6 320/5/6
f 317/5/6 318/5/6 321/5/6
f 319/5/6 320/5/6 323/5/6
f 320/5/6 316/5/6 324/5/6
f 323/5/6 320/5/6 324/5/6
f 312/5/6 306/5/6 325/5/6
f 324/5/6 316/5/6 325/5/6
f 316/5/6 312/5/6 325/5/6
f 321/5/6 322/5/6 326/5/6
f 309/5/6 313/5/6 326/5/6
f 317/5/6 321/5/6 326/5/6
f 313/5/6 317/5/6 326/5/6
f 326/5/6 322/5/6 327/5/6
f 327/5/6 322/5/6 328/5/6
f 324/4/6 325/4/6 329/4/6
f 325/5/6 306/5/6 330/5/6
f 329/4/6 325/4/6 330/4/6
f 330/5/6 306/5/6 331/5/6
f 309/5/6 326/5/6 332/5/6
f 326/4/6 327/4/6 333/4/6
f 332/5/6 326/5/6 333/5/6
f 333/4/6 327/4/6 334/4/6
f 335/5/6 336/5/6 338/5/6
f 338/5/6 336/5/6 339/5/6
f 337/5/6 338/5/6 341/5/6
f 339/5/6 340/5/6 342/5/6
f 337/5/6 341/5/6 343/5/6
f 343/5/6 341/5/6 344/5/6
f 342/5/6 340/5/6 345/5/6
f 345/5/6 340/5/6 346/5/6
f 347/5/6 348/5/6 352/5/6
f 349/5/6 350/5/6 353/5/6
f 351/5/6 352/5/6 355/5/6
f 352/5/6 348/5/6 356/5/6
f 355/5/6 352/5/6 356/5/6
f 353/5/6 354/5/6 357/5/6
f 349/5/6 353/5/6 357/5/6
f 357/5/6 354/5/6 358/5/6
f 359/3/6 360/3/6 361/3/6
f 361/3/6 360/3/6 362/3/6
f 361/5/6 362/5/6 364/5/6
f 364/5/6 362/5/6 365/5/6
f 363/5/6 364/5/6 367/5/6
f 367/5/6 364/5/6 368/5/6
f 365/5/6 366/5/6 369/5/6
f 369/5/6 366/5/6 370/5/6
f 371/5/6 372/5/6 373/5/6
f 373/5/6 372/5/6 374/5/6
f 375/5/6 376/5/6 377/5/6
f 377/5/6 376/5/6 378/5/6
